<?xml version='1.0' encoding='utf-8'?>
<svg xmlns="http://www.w3.org/2000/svg" width="5000" height="5000" viewBox="0 0 1322.9166 1322.9167" version="1.1" id="svg8"> <defs id="defs2"/> <metadata id="metadata5"> </metadata> <g id="layer1" transform="translate(0,1025.9167)"> <g transform="matrix(31.181946,0,0,31.181946,1477.0777,-3789.3151)" id="g7248" style="stroke-width:0.03206984"> <path id="path5278" d="m -26.156776,89.04607 a 20.788654,20.788654 0 0 0 -1.77231,0.0886 20.788654,20.788654 0 0 1 1.77231,-0.0886 z m 2.02979,0.10159 a 20.788654,20.788654 0 0 1 1.2626,0.18601 20.788654,20.788654 0 0 0 -1.2626,-0.18601 z m -4.8295,0.11172 a 20.788654,20.788654 0 0 0 -1.03139,0.15562 20.788654,20.788654 0 0 1 1.03139,-0.15562 z m 6.87701,0.19304 a 20.788654,20.788654 0 0 1 1.3871,0.34866 20.788654,20.788654 0 0 0 -1.3871,-0.34866 z m -8.92111,0.19023 a 20.788654,20.788654 0 0 0 -1.0044,0.25636 20.788654,20.788654 0 0 1 1.0044,-0.25636 z m 10.93151,0.31743 a 20.788654,20.788654 0 0 1 1.4416,0.52032 20.788654,20.788654 0 0 0 -1.4416,-0.52032 z m -12.9228,0.26677 a 20.788654,20.788654 0 0 0 -0.97561,0.35598 20.788654,20.788654 0 0 1 0.97561,-0.35598 z m 14.8729,0.43899 a 20.788654,20.788654 0 0 1 1.51879,0.72688 20.788654,20.788654 0 0 0 -1.51879,-0.72688 z m -16.7935,0.33994 a 20.788654,20.788654 0 0 0 -0.9384,0.45363 20.788654,20.788654 0 0 1 0.9384,-0.45363 z m 18.6618,0.55578 a 20.788654,20.788654 0 0 1 1.5235,0.92611 20.788654,20.788654 0 0 0 -1.5235,-0.92611 z m -20.49911,0.41338 a 20.788654,20.788654 0 0 0 -0.88639,0.5434 20.788654,20.788654 0 0 1 0.88639,-0.5434 z m 22.2714,0.66553 a 20.788654,20.788654 0 0 1 1.48801,1.12225 20.788654,20.788654 0 0 0 -1.48801,-1.12225 z m -23.9995,0.4798 a 20.788654,20.788654 0 0 0 -0.831,0.63175 20.788654,20.788654 0 0 1 0.831,-0.63175 z m 25.65551,0.7702 a 20.788654,20.788654 0 0 1 1.50639,1.39324 20.788654,20.788654 0 0 0 -1.50639,-1.39324 z m -27.26171,0.54255 a 20.788654,20.788654 0 0 0 -0.7649,0.71281 20.788654,20.788654 0 0 1 0.7649,-0.71281 z m 28.78131,0.86307 -14.7364,14.73639 -14.6449,14.64491 a 20.788654,20.788654 0 0 0 14.5273,5.94583 20.788654,20.788654 0 0 0 20.7885998,-20.78857 20.788654,20.788654 0 0 0 -5.9345998,-14.53856 z m -29.3813,29.3813 a 20.788654,20.788654 0 0 1 -1.2641,-1.35919 20.788654,20.788654 0 0 0 1.2641,1.35919 z m -0.8681,-28.77683 a 20.788654,20.788654 0 0 0 -0.68951,0.78484 20.788654,20.788654 0 0 1 0.68951,-0.78484 z m -1.31361,1.60598 a 20.788654,20.788654 0 0 0 -0.60839,0.85069 20.788654,20.788654 0 0 1 0.60839,-0.85069 z m -1.14819,1.73093 a 20.788654,20.788654 0 0 0 -0.51941,0.90556 20.788654,20.788654 0 0 1 0.51941,-0.90556 z m -0.9677,1.83364 a 20.788654,20.788654 0 0 0 -0.42801,0.9565 20.788654,20.788654 0 0 1 0.42801,-0.9565 z m -0.7801,1.92087 a 20.788654,20.788654 0 0 0 -0.33121,0.99618 20.788654,20.788654 0 0 1 0.33121,-0.99618 z m -0.5856,1.99348 a 20.788654,20.788654 0 0 0 -0.2296,1.02207 20.788654,20.788654 0 0 1 0.2296,-1.02207 z m -0.3838,2.04301 a 20.788654,20.788654 0 0 0 -0.12551,1.03444 20.788654,20.788654 0 0 1 0.12551,-1.03444 z m -0.21421,2.80618 a 20.788654,20.788654 0 0 0 0.093,1.80606 20.788654,20.788654 0 0 1 -0.093,-1.80606 z m 0.19901,2.68095 a 20.788654,20.788654 0 0 0 0.186,1.22018 20.788654,20.788654 0 0 1 -0.186,-1.22018 z m 0.3512,1.95521 a 20.788654,20.788654 0 0 0 0.33929,1.32204 20.788654,20.788654 0 0 1 -0.33929,-1.32204 z m 0.5349,1.91046 a 20.788654,20.788654 0 0 0 0.5144,1.40365 20.788654,20.788654 0 0 1 -0.5144,-1.40365 z m 0.7185,1.85925 a 20.788654,20.788654 0 0 0 0.70319,1.45093 20.788654,20.788654 0 0 1 -0.70319,-1.45093 z m 0.8954,1.7858 a 20.788654,20.788654 0 0 0 0.90389,1.47006 20.788654,20.788654 0 0 1 -0.90389,-1.47006 z m 1.0634,1.69322 a 20.788654,20.788654 0 0 0 1.11099,1.45768 20.788654,20.788654 0 0 1 -1.11099,-1.45768 z" style="opacity:1;fill:#c23040;fill-opacity:1;fill-rule:nonzero;stroke:none;stroke-width:0.01697029;stroke-linecap:round;stroke-linejoin:miter;stroke-miterlimit:4;stroke-dasharray:none;stroke-dashoffset:0;stroke-opacity:1;paint-order:stroke fill markers"/> <path id="path5280" d="m -26.156676,89.04599 a 20.788654,20.788654 0 0 0 -20.7886,20.78858 20.788654,20.788654 0 0 0 6.26129,14.84274 l 14.64491,-14.64492 14.7364,-14.73637 a 20.788654,20.788654 0 0 0 -14.854,-6.25003 z" style="opacity:1;fill:#ef4458;fill-opacity:1;fill-rule:nonzero;stroke:none;stroke-width:0.01697029;stroke-linecap:round;stroke-linejoin:miter;stroke-miterlimit:4;stroke-dasharray:none;stroke-dashoffset:0;stroke-opacity:1;paint-order:stroke fill markers"/> <path id="path7510" d="m -20.956386,97.63612 c -8.04969,4.51543 -10.89639,11.80534 -11.4799,18.79368 -0.062,0.74097 -0.099,1.47865 -0.1132,2.20917 0.10481,0.22258 0.25421,0.43127 0.445,0.62115 2.1e-4,2.7e-4 8e-4,8e-4 0.001,0.001 l 10.7704,10.7704 a 20.788654,20.788654 0 0 0 15.8382998,-18.11104 l -11.2162998,-11.21637 -1.7167,-1.71669 v 5.3e-4 c -0.8726,-0.85766 -1.7317,-1.12799 -2.5275,-1.35185 z" style="opacity:0.5;fill:#000000;stroke:none;stroke-width:0.00848514px;stroke-linecap:butt;stroke-linejoin:miter;stroke-opacity:1"/> <path id="path3801" d="m -25.341786,114.55079 c 0.56451,2.4602 -0.8528,4.46314 -2.20039,5.66893 -2.65301,0.39488 -4.4522,-0.4017 -5.0071,-1.58089 0.151,-7.6203 2.6896,-16.00872 11.5928,-21.00292 1.267,0.35642 2.6953,0.82859 4.08119,3.60582 -0.6306,2.45636 -2.52179,3.80845 -3.58539,4.32451 -1.1359,-0.4789 -2.2792,-0.87574 -3.44261,-1.04918 -2.64469,2.28251 -3.8252,4.88972 -4.2666,7.66085 -0.01,0.34349 0.8196,1.06196 2.8281,2.37288 z" style="opacity:1;fill:#ffffff;stroke:none;stroke-width:0.01231482;stroke-linecap:butt;stroke-linejoin:miter;stroke-miterlimit:4;stroke-dasharray:none;stroke-opacity:1"/> </g> </g> </svg>