<?xml version='1.0' encoding='utf-8'?>
<svg xmlns="http://www.w3.org/2000/svg" width="5000" height="5000" viewBox="0 0 1322.9166 1322.9167" version="1.1" id="svg8"> <defs id="defs2"/> <metadata id="metadata5"> </metadata> <g id="layer1" transform="translate(0,1025.9167)"> <g id="g6879" transform="matrix(31.181953,0,0,31.181953,-11796.762,3806.0214)" style="stroke-width:0.03206983"> <path style="opacity:1;fill:#0e8542;fill-opacity:1;fill-rule:nonzero;stroke:none;stroke-width:0.01697028;stroke-linecap:round;stroke-linejoin:miter;stroke-miterlimit:4;stroke-dasharray:none;stroke-dashoffset:0;stroke-opacity:1;paint-order:stroke fill markers" d="m 399.53302,-154.5351 a 20.788654,20.788654 0 0 0 -1.7723,0.089 20.788654,20.788654 0 0 1 1.7723,-0.089 z m 2.0298,0.1016 a 20.788654,20.788654 0 0 1 1.2627,0.186 20.788654,20.788654 0 0 0 -1.2627,-0.186 z m -4.8295,0.1117 a 20.788654,20.788654 0 0 0 -1.0314,0.1556 20.788654,20.788654 0 0 1 1.0314,-0.1556 z m 6.877,0.193 a 20.788654,20.788654 0 0 1 1.3871,0.3487 20.788654,20.788654 0 0 0 -1.3871,-0.3487 z m -8.9211,0.1903 a 20.788654,20.788654 0 0 0 -1.0044,0.2563 20.788654,20.788654 0 0 1 1.0044,-0.2563 z m 10.9315,0.3174 a 20.788654,20.788654 0 0 1 1.4416,0.5203 20.788654,20.788654 0 0 0 -1.4416,-0.5203 z m -12.9228,0.2668 a 20.788654,20.788654 0 0 0 -0.9756,0.3559 20.788654,20.788654 0 0 1 0.9756,-0.3559 z m 14.8729,0.4389 a 20.788654,20.788654 0 0 1 1.5188,0.7269 20.788654,20.788654 0 0 0 -1.5188,-0.7269 z m -16.7935,0.34 a 20.788654,20.788654 0 0 0 -0.9384,0.4536 20.788654,20.788654 0 0 1 0.9384,-0.4536 z m 18.6618,0.5558 a 20.788654,20.788654 0 0 1 1.5235,0.9261 20.788654,20.788654 0 0 0 -1.5235,-0.9261 z m -20.499,0.4133 a 20.788654,20.788654 0 0 0 -0.8865,0.5435 20.788654,20.788654 0 0 1 0.8865,-0.5435 z m 22.2713,0.6656 a 20.788654,20.788654 0 0 1 1.488,1.1222 20.788654,20.788654 0 0 0 -1.488,-1.1222 z m -23.9994,0.4798 a 20.788654,20.788654 0 0 0 -0.831,0.6317 20.788654,20.788654 0 0 1 0.831,-0.6317 z m 25.6554,0.7702 a 20.788654,20.788654 0 0 1 1.5064,1.3932 20.788654,20.788654 0 0 0 -1.5064,-1.3932 z m -27.2617,0.5425 a 20.788654,20.788654 0 0 0 -0.7649,0.7128 20.788654,20.788654 0 0 1 0.7649,-0.7128 z m 28.7813,0.8631 -14.7364,14.7364 -14.6449,14.6449 a 20.788654,20.788654 0 0 0 14.5273,5.94583 20.788654,20.788654 0 0 0 20.7886,-20.78853 20.788654,20.788654 0 0 0 -5.9346,-14.5386 z m -29.3813,29.3813 a 20.788654,20.788654 0 0 1 -1.2641,-1.35919 20.788654,20.788654 0 0 0 1.2641,1.35919 z m -0.8681,-28.7768 a 20.788654,20.788654 0 0 0 -0.6895,0.7848 20.788654,20.788654 0 0 1 0.6895,-0.7848 z m -1.3136,1.6059 a 20.788654,20.788654 0 0 0 -0.6084,0.8507 20.788654,20.788654 0 0 1 0.6084,-0.8507 z m -1.1482,1.731 a 20.788654,20.788654 0 0 0 -0.5194,0.9055 20.788654,20.788654 0 0 1 0.5194,-0.9055 z m -0.9677,1.8336 a 20.788654,20.788654 0 0 0 -0.428,0.9565 20.788654,20.788654 0 0 1 0.428,-0.9565 z m -0.7801,1.9209 a 20.788654,20.788654 0 0 0 -0.3312,0.9962 20.788654,20.788654 0 0 1 0.3312,-0.9962 z m -0.5856,1.9935 a 20.788654,20.788654 0 0 0 -0.2296,1.022 20.788654,20.788654 0 0 1 0.2296,-1.022 z m -0.3838,2.043 a 20.788654,20.788654 0 0 0 -0.1255,1.0344 20.788654,20.788654 0 0 1 0.1255,-1.0344 z m -0.2142,2.8062 a 20.788654,20.788654 0 0 0 0.093,1.806 20.788654,20.788654 0 0 1 -0.093,-1.806 z m 0.199,2.6809 a 20.788654,20.788654 0 0 0 0.186,1.2202 20.788654,20.788654 0 0 1 -0.186,-1.2202 z m 0.3512,1.9552 a 20.788654,20.788654 0 0 0 0.3394,1.32206 20.788654,20.788654 0 0 1 -0.3394,-1.32206 z m 0.5349,1.91048 a 20.788654,20.788654 0 0 0 0.5145,1.40365 20.788654,20.788654 0 0 1 -0.5145,-1.40365 z m 0.7185,1.85925 a 20.788654,20.788654 0 0 0 0.7032,1.45093 20.788654,20.788654 0 0 1 -0.7032,-1.45093 z m 0.8954,1.7858 a 20.788654,20.788654 0 0 0 0.9039,1.47006 20.788654,20.788654 0 0 1 -0.9039,-1.47006 z m 1.0634,1.69322 a 20.788654,20.788654 0 0 0 1.111,1.45768 20.788654,20.788654 0 0 1 -1.111,-1.45768 z" id="path5245"/> <path style="opacity:1;fill:#30b44a;fill-opacity:1;fill-rule:nonzero;stroke:none;stroke-width:0.01697028;stroke-linecap:round;stroke-linejoin:miter;stroke-miterlimit:4;stroke-dasharray:none;stroke-dashoffset:0;stroke-opacity:1;paint-order:stroke fill markers" d="m 399.53312,-154.5352 a 20.788654,20.788654 0 0 0 -20.7886,20.7886 20.788654,20.788654 0 0 0 6.2613,14.84272 l 14.6449,-14.64492 14.7364,-14.7364 a 20.788654,20.788654 0 0 0 -14.854,-6.25 z" id="path5247"/> <path id="path5383" d="m 399.52752,-142.8835 c -5.6173,0 -10.8609,2.4512 -13.9754,6.5216 l 1.3715,1.3715 7.0844,7.08432 7.1809,7.18096 6.21,6.20995 a 20.788654,20.788654 0 0 0 12.58729,-15.55153 l -7.74109,-7.7411 v 5e-4 c -0.4799,-0.4839 -0.9931,-0.938 -1.5358,-1.3596 l 0.01,-0.015 c -0.032,-0.018 -0.063,-0.033 -0.094,-0.05 -1.0113,-0.775 -2.1248,-1.4361 -3.3109,-1.9771 -2.36751,-1.0799 -5.0297,-1.6723 -7.784,-1.6738 z" style="opacity:0.5;fill:#000000;stroke:none;stroke-width:0.00848514px;stroke-linecap:butt;stroke-linejoin:miter;stroke-opacity:1"/> <g style="fill:#ffffff;stroke-width:0.03206983" transform="translate(712.84382,-199.1579)" id="g5346"> <path style="opacity:1;fill:#ffffff;fill-opacity:1;fill-rule:nonzero;stroke:none;stroke-width:0.01697028;stroke-linecap:round;stroke-linejoin:miter;stroke-miterlimit:4;stroke-dasharray:none;stroke-dashoffset:0;stroke-opacity:1;paint-order:stroke fill markers" d="m -313.35239,63.720806 c -3.76788,0.004 -7.17839,1.695614 -8.69974,4.314981 l 2.69131,2.69131 c 1.41238,-1.636758 3.2902,-3.271595 6.00843,-3.273703 2.72166,0.0028 4.65442,1.677564 6.00996,3.281971 l 2.6975,-2.697512 c -1.52167,-2.622121 -4.93614,-4.314978 -8.70746,-4.317047 z" id="path5298"/> <path style="opacity:1;fill:#ffffff;fill-opacity:1;fill-rule:nonzero;stroke:none;stroke-width:0.01697028;stroke-linecap:round;stroke-linejoin:miter;stroke-miterlimit:4;stroke-dasharray:none;stroke-dashoffset:0;stroke-opacity:1;paint-order:stroke fill markers" d="m -313.34154,71.064543 a 3.5080919,2.9765625 0 0 0 -3.40548,2.276346 l 3.39979,3.399792 3.40857,-3.409092 a 3.5080919,2.9765625 0 0 0 -3.40288,-2.267046 z" id="path5323"/> <path style="opacity:1;fill:#ffffff;fill-opacity:1;fill-rule:nonzero;stroke:none;stroke-width:0.01697028;stroke-linecap:round;stroke-linejoin:miter;stroke-miterlimit:4;stroke-dasharray:none;stroke-dashoffset:0;stroke-opacity:1;paint-order:stroke fill markers" d="m -313.31622,56.274232 c -5.61727,0.0042 -10.86088,2.451164 -13.97537,6.521564 l 2.72076,2.720766 c 2.7309,-3.383897 6.57077,-5.381138 11.25461,-5.381874 4.68868,0.0051 8.62401,2.105303 11.25408,5.402543 l 2.73214,-2.732132 c -3.11417,-4.076724 -8.36309,-6.527713 -13.98622,-6.530867 z" id="path5341"/> </g> </g> </g> </svg>