<?xml version='1.0' encoding='utf-8'?>
<svg xmlns="http://www.w3.org/2000/svg" width="5000" height="5000" viewBox="0 0 1322.9166 1322.9167" version="1.1" id="svg8"> <defs id="defs2"/> <metadata id="metadata5"> </metadata> <g id="layer1" transform="translate(0,1025.9167)"> <g transform="matrix(31.182006,0,0,31.182006,-12.599946,-6756.4215)" id="g6984" style="stroke-width:0.03206978"> <path style="opacity:1;fill:#769600;fill-opacity:1;fill-rule:nonzero;stroke:none;stroke-width:0.01697026;stroke-linecap:round;stroke-linejoin:miter;stroke-miterlimit:4;stroke-dasharray:none;stroke-dashoffset:0;stroke-opacity:1;paint-order:stroke fill markers" d="m 21.616914,184.2003 a 20.788654,20.788654 0 0 0 -1.7723,0.0886 20.788654,20.788654 0 0 1 1.7723,-0.0886 z m 2.02978,0.10159 a 20.788654,20.788654 0 0 1 1.26265,0.18601 20.788654,20.788654 0 0 0 -1.26265,-0.18601 z m -4.8295,0.11172 a 20.788654,20.788654 0 0 0 -1.03136,0.15562 20.788654,20.788654 0 0 1 1.03136,-0.15562 z m 6.877,0.19304 a 20.788654,20.788654 0 0 1 1.38706,0.34866 20.788654,20.788654 0 0 0 -1.38706,-0.34866 z m -8.92114,0.19023 a 20.788654,20.788654 0 0 0 -1.00434,0.25636 20.788654,20.788654 0 0 1 1.00434,-0.25636 z m 10.9315,0.31743 a 20.788654,20.788654 0 0 1 1.44165,0.52032 20.788654,20.788654 0 0 0 -1.44165,-0.52032 z m -12.92273,0.26677 a 20.788654,20.788654 0 0 0 -0.97563,0.35598 20.788654,20.788654 0 0 1 0.97563,-0.35598 z m 14.87288,0.43899 a 20.788654,20.788654 0 0 1 1.51874,0.72688 20.788654,20.788654 0 0 0 -1.51874,-0.72688 z m -16.79348,0.33994 a 20.788654,20.788654 0 0 0 -0.93848,0.45363 20.788654,20.788654 0 0 1 0.93848,-0.45363 z m 18.66173,0.55578 a 20.788654,20.788654 0 0 1 1.52352,0.92611 20.788654,20.788654 0 0 0 -1.52352,-0.92611 z m -20.49901,0.41338 a 20.788654,20.788654 0 0 0 -0.88642,0.5434 20.788654,20.788654 0 0 1 0.88642,-0.5434 z m 22.27131,0.66553 a 20.788654,20.788654 0 0 1 1.48807,1.12225 20.788654,20.788654 0 0 0 -1.48807,-1.12225 z m -23.9994202,0.4798 a 20.788654,20.788654 0 0 0 -0.83099,0.63175 20.788654,20.788654 0 0 1 0.83099,-0.63175 z m 25.6554902,0.7702 a 20.788654,20.788654 0 0 1 1.50637,1.39324 20.788654,20.788654 0 0 0 -1.50637,-1.39324 z m -27.2617702,0.54255 a 20.788654,20.788654 0 0 0 -0.76486,0.71281 20.788654,20.788654 0 0 1 0.76486,-0.71281 z m 28.7813602,0.86307 -14.73638,14.73639 -14.6449202,14.64491 a 20.788654,20.788654 0 0 0 14.5273002,5.94583 20.788654,20.788654 0 0 0 20.78855,-20.78857 20.788654,20.788654 0 0 0 -5.93455,-14.53856 z m -29.3813002,29.3813 a 20.788654,20.788654 0 0 1 -1.26408,-1.35919 20.788654,20.788654 0 0 0 1.26408,1.35919 z m -0.86813,-28.77683 a 20.788654,20.788654 0 0 0 -0.68945,0.78484 20.788654,20.788654 0 0 1 0.68945,-0.78484 z m -1.31361,1.60598 a 20.788654,20.788654 0 0 0 -0.6084,0.85069 20.788654,20.788654 0 0 1 0.6084,-0.85069 z m -1.14815,1.73093 a 20.788654,20.788654 0 0 0 -0.51947,0.90556 20.788654,20.788654 0 0 1 0.51947,-0.90556 z m -0.96774,1.83364 a 20.788654,20.788654 0 0 0 -0.42803,0.9565 20.788654,20.788654 0 0 1 0.42803,-0.9565 z m -0.78006,1.92087 a 20.788654,20.788654 0 0 0 -0.33123,0.99618 20.788654,20.788654 0 0 1 0.33123,-0.99618 z m -0.5856,1.99348 a 20.788654,20.788654 0 0 0 -0.22964,1.02207 20.788654,20.788654 0 0 1 0.22964,-1.02207 z m -0.38383,2.04301 a 20.788654,20.788654 0 0 0 -0.12551001,1.03444 20.788654,20.788654 0 0 1 0.12551001,-1.03444 z m -0.21416001,2.80618 a 20.788654,20.788654 0 0 0 0.0929,1.80606 20.788654,20.788654 0 0 1 -0.0929,-1.80606 z m 0.19894001,2.68095 a 20.788654,20.788654 0 0 0 0.18601,1.22018 20.788654,20.788654 0 0 1 -0.18601,-1.22018 z m 0.3512,1.95521 a 20.788654,20.788654 0 0 0 0.33936,1.32204 20.788654,20.788654 0 0 1 -0.33936,-1.32204 z m 0.53497,1.91046 a 20.788654,20.788654 0 0 0 0.5144,1.40365 20.788654,20.788654 0 0 1 -0.5144,-1.40365 z m 0.71842,1.85925 a 20.788654,20.788654 0 0 0 0.70323,1.45093 20.788654,20.788654 0 0 1 -0.70323,-1.45093 z m 0.89543,1.7858 a 20.788654,20.788654 0 0 0 0.90388,1.47006 20.788654,20.788654 0 0 1 -0.90388,-1.47006 z m 1.06342,1.69322 a 20.788654,20.788654 0 0 0 1.111,1.45768 20.788654,20.788654 0 0 1 -1.111,-1.45768 z" id="path8690"/> <path style="opacity:1;fill:#9dc900;fill-opacity:1;fill-rule:nonzero;stroke:none;stroke-width:0.01697026;stroke-linecap:round;stroke-linejoin:miter;stroke-miterlimit:4;stroke-dasharray:none;stroke-dashoffset:0;stroke-opacity:1;paint-order:stroke fill markers" d="M 21.616984,184.20022 A 20.788654,20.788654 0 0 0 0.82841379,204.9888 20.788654,20.788654 0 0 0 7.0896938,219.83154 l 14.6449202,-14.64492 14.73637,-14.73637 a 20.788654,20.788654 0 0 0 -14.854,-6.25003 z" id="path8692"/> <path id="path8823" d="m 15.921324,197.08985 c -0.32753,0 -0.59118,0.26365 -0.59118,0.59118 v 0.14728 c -2.6547,0.15297 -4.74596,2.33997 -4.74596,5.03432 v 4.98161 c 0,1.40371 0.56798,2.66959 1.48724,3.58221 v 5.3e-4 l 1.71153,1.71152 12.17134,12.17135 a 20.788654,20.788654 0 0 0 15.83729,-15.40062 l -10.58489,-10.58489 h -0.003 c -0.6182,-0.62863 -1.40255,-1.09016 -2.281,-1.32653 -0.42025,-0.11308 -0.86018,-0.1788 -1.31723,-0.1788 h -10.18233 l -0.52141,-0.52142 -0.001,0.003 c -0.10832,-0.1279 -0.26814,-0.21084 -0.44959,-0.21084 z" style="opacity:0.5;fill:#000000;stroke:none;stroke-width:0.00848513px;stroke-linecap:butt;stroke-linejoin:miter;stroke-opacity:1"/> <path id="rect8811" d="m 15.921424,197.08991 c -0.32753,0 -0.59105,0.2638 -0.59105,0.59133 v 0.14686 c -2.6547,0.15297 -4.74631,2.33998 -4.74631,5.03433 v 4.98177 c 0,2.79422 2.24942,5.04364 5.04363,5.04364 h 11.97812 c 2.79423,0 5.04395,-2.24942 5.04392,-5.04364 v -4.98177 c 0,-2.79423 -2.24969,-5.04364 -5.04392,-5.04364 h -10.56298 v -0.13755 c 0,-0.32753 -0.26381,-0.59133 -0.59134,-0.59133 z m 2.58908,1.93318 h 1.63107 c 0.45176,0 0.81538,0.36361 0.81538,0.81538 v 1.08747 c 0,0.45176 -0.36362,0.81538 -0.81538,0.81538 h -1.63107 c -0.45176,0 -0.81539,-0.36362 -0.81539,-0.81538 v -1.08747 c 0,-0.45177 0.36363,-0.81538 0.81539,-0.81538 z m 7.13961,1.35896 a 5.0005163,5.0005163 0 0 1 5.00068,5.00039 5.0005163,5.0005163 0 0 1 -5.00068,5.00069 5.0005163,5.0005163 0 0 1 -5.0007,-5.00069 5.0005163,5.0005163 0 0 1 5.0007,-5.00039 z m -0.0463,1.0163 a 3.9510041,3.9510041 0 0 0 -3.95075,3.95105 3.9510041,3.9510041 0 0 0 3.95075,3.95077 3.9510041,3.9510041 0 0 0 3.95106,-3.95077 3.9510041,3.9510041 0 0 0 -3.95106,-3.95105 z m 0,1.43104 a 2.5199317,2.5199317 0 0 1 2.52002,2.52001 2.5199317,2.5199317 0 0 1 -2.52002,2.52002 2.5199317,2.5199317 0 0 1 -2.52001,-2.52002 2.5199317,2.5199317 0 0 1 2.52001,-2.52001 z" style="opacity:1;fill:#ffffff;fill-opacity:1;fill-rule:nonzero;stroke:none;stroke-width:0.00093002;stroke-linecap:round;stroke-linejoin:round;stroke-miterlimit:4;stroke-dasharray:none;stroke-dashoffset:0;stroke-opacity:1;paint-order:markers stroke fill"/> </g> </g> </svg>