<?xml version='1.0' encoding='utf-8'?>
<svg xmlns="http://www.w3.org/2000/svg" width="5000" height="5000" viewBox="0 0 1322.9166 1322.9167" version="1.1" id="svg8"> <defs id="defs2"/> <metadata id="metadata5"> </metadata> <g id="layer1" transform="translate(0,1025.9167)"> <g transform="matrix(31.182028,0,0,31.182028,4456.4399,-6756.4228)" id="g7083" style="stroke-width:0.03206975"> <path style="opacity:1;fill:#9c7ccc;fill-opacity:1;fill-rule:nonzero;stroke:none;stroke-width:0.01697024;stroke-linecap:round;stroke-linejoin:miter;stroke-miterlimit:4;stroke-dasharray:none;stroke-dashoffset:0;stroke-opacity:1;paint-order:stroke fill markers" d="m -121.70418,184.2001 a 20.788654,20.788654 0 0 0 -1.7723,0.0886 20.788654,20.788654 0 0 1 1.7723,-0.0886 z m 2.0298,0.10159 a 20.788654,20.788654 0 0 1 1.2627,0.18601 20.788654,20.788654 0 0 0 -1.2627,-0.18601 z m -4.8295,0.11172 a 20.788654,20.788654 0 0 0 -1.0313,0.15562 20.788654,20.788654 0 0 1 1.0313,-0.15562 z m 6.877,0.19304 a 20.788654,20.788654 0 0 1 1.3871,0.34866 20.788654,20.788654 0 0 0 -1.3871,-0.34866 z m -8.9211,0.19023 a 20.788654,20.788654 0 0 0 -1.0043,0.25636 20.788654,20.788654 0 0 1 1.0043,-0.25636 z m 10.9315,0.31743 a 20.788654,20.788654 0 0 1 1.4416,0.52032 20.788654,20.788654 0 0 0 -1.4416,-0.52032 z m -12.9227,0.26677 a 20.788654,20.788654 0 0 0 -0.9757,0.35598 20.788654,20.788654 0 0 1 0.9757,-0.35598 z m 14.8728,0.43899 a 20.788654,20.788654 0 0 1 1.5188,0.72689 20.788654,20.788654 0 0 0 -1.5188,-0.72689 z m -16.7934,0.33995 a 20.788654,20.788654 0 0 0 -0.9385,0.45363 20.788654,20.788654 0 0 1 0.9385,-0.45363 z m 18.6617,0.55578 a 20.788654,20.788654 0 0 1 1.5235,0.92612 20.788654,20.788654 0 0 0 -1.5235,-0.92612 z m -20.499,0.41338 a 20.788654,20.788654 0 0 0 -0.8864,0.54341 20.788654,20.788654 0 0 1 0.8864,-0.54341 z m 22.2713,0.66554 a 20.788654,20.788654 0 0 1 1.4881,1.12225 20.788654,20.788654 0 0 0 -1.4881,-1.12225 z m -23.9994,0.4798 a 20.788654,20.788654 0 0 0 -0.831,0.63175 20.788654,20.788654 0 0 1 0.831,-0.63175 z m 25.6555,0.77021 a 20.788654,20.788654 0 0 1 1.5063,1.39324 20.788654,20.788654 0 0 0 -1.5063,-1.39324 z m -27.2618,0.54255 a 20.788654,20.788654 0 0 0 -0.7649,0.71281 20.788654,20.788654 0 0 1 0.7649,-0.71281 z m 28.7813,0.86307 -14.7363,14.73648 -14.645,14.64499 a 20.788654,20.788654 0 0 0 14.5273,5.94583 20.788654,20.788654 0 0 0 20.7886,-20.78865 20.788654,20.788654 0 0 0 -5.9346,-14.53865 z m -29.3813,29.38147 a 20.788654,20.788654 0 0 1 -1.264,-1.3592 20.788654,20.788654 0 0 0 1.264,1.3592 z m -0.8681,-28.777 a 20.788654,20.788654 0 0 0 -0.6894,0.78485 20.788654,20.788654 0 0 1 0.6894,-0.78485 z m -1.3136,1.60599 a 20.788654,20.788654 0 0 0 -0.6084,0.8507 20.788654,20.788654 0 0 1 0.6084,-0.8507 z m -1.1481,1.73095 a 20.788654,20.788654 0 0 0 -0.5195,0.90556 20.788654,20.788654 0 0 1 0.5195,-0.90556 z m -0.9678,1.83364 a 20.788654,20.788654 0 0 0 -0.428,0.95651 20.788654,20.788654 0 0 1 0.428,-0.95651 z m -0.78,1.92089 a 20.788654,20.788654 0 0 0 -0.3313,0.99618 20.788654,20.788654 0 0 1 0.3313,-0.99618 z m -0.5856,1.99349 a 20.788654,20.788654 0 0 0 -0.2297,1.02207 20.788654,20.788654 0 0 1 0.2297,-1.02207 z m -0.3839,2.04302 a 20.788654,20.788654 0 0 0 -0.1255,1.03444 20.788654,20.788654 0 0 1 0.1255,-1.03444 z m -0.2141,2.8062 a 20.788654,20.788654 0 0 0 0.093,1.80606 20.788654,20.788654 0 0 1 -0.093,-1.80606 z m 0.1989,2.68096 a 20.788654,20.788654 0 0 0 0.186,1.22019 20.788654,20.788654 0 0 1 -0.186,-1.22019 z m 0.3512,1.95522 a 20.788654,20.788654 0 0 0 0.3394,1.32205 20.788654,20.788654 0 0 1 -0.3394,-1.32205 z m 0.535,1.91047 a 20.788654,20.788654 0 0 0 0.5144,1.40366 20.788654,20.788654 0 0 1 -0.5144,-1.40366 z m 0.7184,1.85926 a 20.788654,20.788654 0 0 0 0.7032,1.45094 20.788654,20.788654 0 0 1 -0.7032,-1.45094 z m 0.8954,1.78581 a 20.788654,20.788654 0 0 0 0.9039,1.47007 20.788654,20.788654 0 0 1 -0.9039,-1.47007 z m 1.0635,1.69323 a 20.788654,20.788654 0 0 0 1.1109,1.45769 20.788654,20.788654 0 0 1 -1.1109,-1.45769 z" id="path8686"/> <path style="opacity:1;fill:#c39bff;fill-opacity:1;fill-rule:nonzero;stroke:none;stroke-width:0.01697024;stroke-linecap:round;stroke-linejoin:miter;stroke-miterlimit:4;stroke-dasharray:none;stroke-dashoffset:0;stroke-opacity:1;paint-order:stroke fill markers" d="m -121.70408,184.20002 a 20.788654,20.788654 0 0 0 -20.7886,20.7887 20.788654,20.788654 0 0 0 6.2613,14.84282 l 14.6449,-14.645 14.7364,-14.73646 a 20.788654,20.788654 0 0 0 -14.854,-6.25006 z" id="path8688"/> <path id="path8744" d="m -120.22458,192.88288 c -0.057,-1.2e-4 -0.1138,0.006 -0.1679,0.0207 l 0.001,0.003 c -0.2369,0.0611 -0.4372,0.25112 -0.5545,0.5116 v 5.3e-4 c -0.023,0.052 -0.043,0.10673 -0.06,0.16382 v 5.3e-4 c -0.033,0.11436 -0.051,0.23813 -0.052,0.36741 v 1.12242 a 6.3907853,6.3907853 0 0 0 -0.1493,0.0336 6.3907853,6.3907853 0 0 0 -0.045,0.015 6.3907853,6.3907853 0 0 0 -0.2987,0.0951 6.3907853,6.3907853 0 0 0 -0.3085,0.10282 6.3907853,6.3907853 0 0 0 -0.044,0.0145 6.3907853,6.3907853 0 0 0 -0.2207,0.0997 6.3907853,6.3907853 0 0 0 -0.016,0.008 6.3907853,6.3907853 0 0 0 -0.262,0.11266 6.3907853,6.3907853 0 0 0 -0.043,0.0238 6.3907853,6.3907853 0 0 0 -0.001,5.2e-4 6.3907853,6.3907853 0 0 0 -0.4356,0.23822 l -0.7886,-0.79477 c -0.1042,-0.10505 -0.2198,-0.18839 -0.3395,-0.2496 -0.1198,-0.0612 -0.2437,-0.10015 -0.3649,-0.11575 -0.061,-0.008 -0.1205,-0.0101 -0.1788,-0.006 -0.1164,0.008 -0.2268,0.0396 -0.3235,0.0956 h -5.3e-4 c -0.048,0.028 -0.093,0.0625 -0.1338,0.10284 l -0.9597,0.95084 c -0.1224,0.1214 -0.1886,0.2814 -0.2015,0.4563 0,0.0583 0,0.11812 0,0.17881 v 5.3e-4 c 0.01,0.0605 0.021,0.1218 0.04,0.18294 0.019,0.0615 0.043,0.12261 0.073,0.18294 0.03,0.0601 0.066,0.11899 0.1075,0.17621 0.041,0.0574 0.088,0.11273 0.14,0.16537 l 0.7902,0.79633 a 6.3907853,6.3907853 0 0 0 -0.066,0.10542 6.3907853,6.3907853 0 0 0 -0.016,0.0233 6.3907853,6.3907853 0 0 0 -0.027,0.0517 6.3907853,6.3907853 0 0 0 -0.11321,0.21756 6.3907853,6.3907853 0 0 0 -0.15399,0.29817 6.3907853,6.3907853 0 0 0 5.3e-4,0.001 6.3907853,6.3907853 0 0 0 -0.022,0.0527 6.3907853,6.3907853 0 0 0 -0.10181,0.2589 6.3907853,6.3907853 0 0 0 -0.01,0.016 6.3907853,6.3907853 0 0 0 -0.10489,0.2651 6.3907853,6.3907853 0 0 0 -0.001,0.001 6.3907853,6.3907853 0 0 0 -0.013,0.0444 6.3907853,6.3907853 0 0 0 -0.001,0.002 6.3907853,6.3907853 0 0 0 -0.015,0.0419 6.3907853,6.3907853 0 0 0 -0.1246,0.43718 l -1.11931,-0.005 c -0.59179,-0.003 -1.06939,0.36611 -1.0712,0.82579 l -0.01,1.35134 c -2e-4,0.0525 0.01,0.10345 0.019,0.15296 0.01,0.026 0.017,0.0504 0.026,0.0755 0.01,0.0209 0.015,0.0418 0.025,0.062 0.016,0.0337 0.035,0.0657 0.057,0.0972 0.01,0.008 0.01,0.0152 0.016,0.0227 0.027,0.0367 0.057,0.071 0.09,0.10387 2e-4,2.7e-4 2e-4,8e-4 5.3e-4,0.001 v 0.005 l 2.4226,2.42259 -0.5136,0.51056 c -0.013,0.0123 -0.022,0.0261 -0.034,0.0388 l -1.9281,-1.92857 c -0.013,-0.0134 -0.028,-0.0247 -0.044,-0.0341 -0.055,-0.0328 -0.1249,-0.041 -0.1953,-0.0258 -0.071,0.0152 -0.1421,0.0537 -0.2026,0.11369 l -0.2625,0.26044 a 2.1047537,2.1047537 0 0 0 -0.042,-0.0269 2.1047537,2.1047537 0 0 0 -0.016,-0.008 2.1047537,2.1047537 0 0 0 0,-0.002 2.1047537,2.1047537 0 0 0 -0.01,-0.007 2.1047537,2.1047537 0 0 0 -0.06,-0.03 2.1047537,2.1047537 0 0 0 -0.01,-0.004 2.1047537,2.1047537 0 0 0 -0.107,-0.0532 2.1047537,2.1047537 0 0 0 -0.012,-0.006 2.1047537,2.1047537 0 0 0 -0.072,-0.0269 2.1047537,2.1047537 0 0 0 0,-0.002 2.1047537,2.1047537 0 0 0 -0.1086,-0.0408 2.1047537,2.1047537 0 0 0 -0.014,-0.005 2.1047537,2.1047537 0 0 0 -0.01,-0.002 2.1047537,2.1047537 0 0 0 -0.137,-0.0388 v -0.36845 c 8e-4,-0.19492 -0.1199,-0.35234 -0.2713,-0.35295 l -0.4455,-0.002 c -0.019,-5e-5 -0.037,0.002 -0.055,0.007 l 6.1e-4,0.003 v 5.3e-4 c -0.031,0.008 -0.061,0.023 -0.087,0.0434 -0.053,0.0408 -0.094,0.104 -0.1157,0.17932 -0.011,0.0377 -0.017,0.0783 -0.017,0.12093 l -5e-4,0.37 a 2.1047537,2.1047537 0 0 0 -0.05,0.0104 2.1047537,2.1047537 0 0 0 -0.015,0.005 2.1047537,2.1047537 0 0 0 -0.098,0.0321 2.1047537,2.1047537 0 0 0 -0.1018,0.0351 2.1047537,2.1047537 0 0 0 -0.014,0.005 2.1047537,2.1047537 0 0 0 -0.072,0.0336 2.1047537,2.1047537 0 0 0 -0.01,0.002 2.1047537,2.1047537 0 0 0 -0.086,0.0372 2.1047537,2.1047537 0 0 0 -0.014,0.009 2.1047537,2.1047537 0 0 0 -6.1e-4,5.3e-4 2.1047537,2.1047537 0 0 0 -0.1431,0.0785 l -0.2594,-0.26149 c -0.103,-0.10378 -0.2399,-0.14409 -0.3473,-0.11265 -0.036,0.0104 -0.068,0.0292 -0.095,0.0558 l -0.3152,0.31316 c -0.1075,0.10662 -0.084,0.30346 0.054,0.44183 l 0.2605,0.262 a 2.1047537,2.1047537 0 0 0 -0.023,0.0351 2.1047537,2.1047537 0 0 0 0,0.007 2.1047537,2.1047537 0 0 0 -0.01,0.0165 2.1047537,2.1047537 0 0 0 -0.037,0.0718 2.1047537,2.1047537 0 0 0 -0.051,0.0982 2.1047537,2.1047537 0 0 0 -0.01,0.0176 2.1047537,2.1047537 0 0 0 -0.033,0.0853 2.1047537,2.1047537 0 0 0 0,0.006 2.1047537,2.1047537 0 0 0 -0.035,0.0873 2.1047537,2.1047537 0 0 0 0,0.0155 2.1047537,2.1047537 0 0 0 -0.01,0.0134 2.1047537,2.1047537 0 0 0 -0.041,0.14402 l -0.3684,-0.001 c -0.1949,-5.3e-4 -0.3524,0.12045 -0.353,0.27182 v 0.44493 c -2e-4,0.0325 0.01,0.063 0.022,0.092 0,0.005 0,0.01 0.01,0.0145 v 5.3e-4 c 0.053,0.0982 0.1775,0.16735 0.3235,0.16795 l 0.37,0.001 a 2.1047537,2.1047537 0 0 0 0.01,0.0491 2.1047537,2.1047537 0 0 0 5e-4,5.3e-4 2.1047537,2.1047537 0 0 0 0,0.0119 2.1047537,2.1047537 0 0 0 0,0.003 2.1047537,2.1047537 0 0 0 0,0.015 2.1047537,2.1047537 0 0 0 0.027,0.0801 2.1047537,2.1047537 0 0 0 5.1e-4,0.003 2.1047537,2.1047537 0 0 0 0.001,0.003 2.1047537,2.1047537 0 0 0 0.026,0.0847 2.1047537,2.1047537 0 0 0 0.01,0.0124 2.1047537,2.1047537 0 0 0 5e-4,0.003 2.1047537,2.1047537 0 0 0 0.01,0.0139 2.1047537,2.1047537 0 0 0 0.031,0.0708 2.1047537,2.1047537 0 0 0 0,0.006 2.1047537,2.1047537 0 0 0 0,0.008 2.1047537,2.1047537 0 0 0 0.035,0.0806 2.1047537,2.1047537 0 0 0 0.01,0.016 2.1047537,2.1047537 0 0 0 0,0.0114 2.1047537,2.1047537 0 0 0 0.072,0.12867 v 0.003 l -0.2609,0.25942 c -0.035,0.0343 -0.062,0.0722 -0.082,0.11162 -0.02,0.0396 -0.033,0.0804 -0.038,0.1204 -0.01,0.0399 0,0.0785 0.01,0.11421 0.011,0.0357 0.029,0.0682 0.056,0.0951 l 0.3132,0.31626 1.5627,1.5627 -0.2016,0.19947 c -0.024,0.0243 -0.045,0.0507 -0.062,0.0796 -0.085,0.14438 -0.078,0.34004 0.012,0.52038 0.018,0.0361 0.039,0.0711 0.064,0.10542 0.025,0.0344 0.053,0.0676 0.084,0.0992 l 0.4739,0.47801 a 3.8317384,3.8317384 0 0 0 -0.04,0.063 3.8317384,3.8317384 0 0 0 -0.01,0.015 3.8317384,3.8317384 0 0 0 -0.016,0.03 3.8317384,3.8317384 0 0 0 -0.068,0.13073 3.8317384,3.8317384 0 0 0 -0.092,0.17881 3.8317384,3.8317384 0 0 0 5e-4,5.2e-4 3.8317384,3.8317384 0 0 0 -0.013,0.032 3.8317384,3.8317384 0 0 0 -0.061,0.15451 3.8317384,3.8317384 0 0 0 0,0.0104 3.8317384,3.8317384 0 0 0 -0.063,0.15865 3.8317384,3.8317384 0 0 0 -0.001,0.001 3.8317384,3.8317384 0 0 0 -0.01,0.0269 3.8317384,3.8317384 0 0 0 -6.1e-4,0.001 3.8317384,3.8317384 0 0 0 -0.01,0.0253 3.8317384,3.8317384 0 0 0 -0.074,0.26148 l -0.6712,-0.003 c -0.044,-1.2e-4 -0.088,0.003 -0.1298,0.01 -0.042,0.006 -0.082,0.0161 -0.1204,0.0284 -0.038,0.0124 -0.075,0.0278 -0.109,0.0455 -0.068,0.0354 -0.1271,0.0807 -0.1731,0.13332 -0.046,0.0527 -0.079,0.11246 -0.097,0.17725 -0.01,0.0325 -0.013,0.0661 -0.014,0.10077 v 0.81029 c -1e-4,0.0315 0,0.0617 0.012,0.0915 0,0.013 0.01,0.0251 0.012,0.0377 0.01,0.0147 0.01,0.0293 0.017,0.0434 0.01,0.0177 0.018,0.0345 0.029,0.0512 0,0.007 0.01,0.0135 0.014,0.0202 0.014,0.0196 0.029,0.0385 0.046,0.0563 v 0.002 l 0.6424,0.64234 5.1e-4,5.3e-4 0.8191,0.81907 -0.3085,0.30644 c -0.126,0.12494 -0.2008,0.27687 -0.2196,0.4222 0,0.0363 -0.01,0.072 0,0.10697 3.9e-4,0.005 0,0.0102 0,0.0155 0.01,0.0987 0.047,0.18976 0.1163,0.25942 l 0.5705,0.57516 c 0.01,0.006 0.014,0.0102 0.021,0.016 l 9.10019,9.10022 a 20.788654,20.788654 0 0 0 13.55111,-6.19239 l 0.48629,-0.54312 a 20.788654,20.788654 0 0 0 5.21881,-11.12645 l -11.5569,-11.55691 -0.8884,-0.88832 v 0.002 l -0.51371,-0.51728 c -0.04,-0.0405 -0.085,-0.0754 -0.1333,-0.10387 -0.042,-0.0248 -0.087,-0.0449 -0.1334,-0.0605 h -5.2e-4 c -0.047,-0.0156 -0.095,-0.0267 -0.1457,-0.0331 -0.1005,-0.0127 -0.2065,-0.007 -0.3137,0.016 -0.054,0.0115 -0.1078,0.0273 -0.1612,0.0475 -0.1604,0.0608 -0.3174,0.16041 -0.4553,0.29714 l -0.494,0.49041 -2.4381,-2.43809 v 0.003 c -2.7e-4,-2.6e-4 -8e-4,-8e-4 0,-0.001 -0.03,-0.0294 -0.062,-0.0551 -0.095,-0.0791 -0.01,-0.007 -0.019,-0.0132 -0.029,-0.0196 -0.028,-0.0185 -0.056,-0.0358 -0.086,-0.0501 -0.023,-0.0112 -0.046,-0.0198 -0.07,-0.0284 -0.022,-0.008 -0.044,-0.0167 -0.067,-0.0222 -0.049,-0.0122 -0.099,-0.0199 -0.1514,-0.0202 z" style="opacity:0.5;fill:#000000;stroke:none;stroke-width:0.00848512px;stroke-linecap:butt;stroke-linejoin:miter;stroke-opacity:1"/> <path id="path8471" d="m -120.39148,192.90666 c -0.3791,0.0978 -0.6638,0.52627 -0.6659,1.04411 v 1.12237 a 6.3907853,6.3907853 0 0 0 -0.1495,0.0332 6.3907853,6.3907853 0 0 0 -0.045,0.0151 6.3907853,6.3907853 0 0 0 -0.2987,0.095 6.3907853,6.3907853 0 0 0 -0.3086,0.10302 6.3907853,6.3907853 0 0 0 -0.044,0.0146 6.3907853,6.3907853 0 0 0 -0.2208,0.0995 6.3907853,6.3907853 0 0 0 -0.017,0.008 6.3907853,6.3907853 0 0 0 -0.2617,0.11249 6.3907853,6.3907853 0 0 0 -0.044,0.024 6.3907853,6.3907853 0 0 0 -8e-4,2.2e-4 6.3907853,6.3907853 0 0 0 -0.436,0.23849 l -0.7883,-0.7948 c -0.4168,-0.42019 -1.0149,-0.49724 -1.3413,-0.17351 l -0.9592,0.95113 c -0.3264,0.32372 -0.2533,0.92269 0.1635,1.34285 l 0.7904,0.79662 a 6.3907853,6.3907853 0 0 0 -0.066,0.10526 6.3907853,6.3907853 0 0 0 -0.016,0.0234 6.3907853,6.3907853 0 0 0 -0.027,0.0515 6.3907853,6.3907853 0 0 0 -0.11289,0.21783 6.3907853,6.3907853 0 0 0 -0.1539,0.29807 6.3907853,6.3907853 0 0 0 1.9e-4,7.9e-4 6.3907853,6.3907853 0 0 0 -0.022,0.0526 6.3907853,6.3907853 0 0 0 -0.10199,0.25935 6.3907853,6.3907853 0 0 0 -0.01,0.0157 6.3907853,6.3907853 0 0 0 -0.10531,0.26507 6.3907853,6.3907853 0 0 0 -5.3e-4,0.001 6.3907853,6.3907853 0 0 0 -0.012,0.0445 6.3907853,6.3907853 0 0 0 0,0.002 6.3907853,6.3907853 0 0 0 -0.016,0.042 6.3907853,6.3907853 0 0 0 -0.12439,0.43721 l -1.11921,-0.005 c -0.59179,-0.003 -1.06959,0.36604 -1.07139,0.82572 l -0.01,1.35108 c 0,0.45967 0.4732,0.8316 1.065,0.834 l 1.1224,0.005 a 6.3907853,6.3907853 0 0 0 0.033,0.14698 6.3907853,6.3907853 0 0 0 5.3e-4,0.002 6.3907853,6.3907853 0 0 0 2e-4,7.9e-4 6.3907853,6.3907853 0 0 0 0.011,0.0365 6.3907853,6.3907853 0 0 0 0,0.009 6.3907853,6.3907853 0 0 0 0.01,0.0451 6.3907853,6.3907853 0 0 0 2e-4,7.9e-4 6.3907853,6.3907853 0 0 0 0.082,0.24318 6.3907853,6.3907853 0 0 0 0,0.006 6.3907853,6.3907853 0 0 0 0,0.009 6.3907853,6.3907853 0 0 0 0.082,0.25926 6.3907853,6.3907853 0 0 0 0.015,0.0356 6.3907853,6.3907853 0 0 0 0,0.008 6.3907853,6.3907853 0 0 0 0.015,0.0431 6.3907853,6.3907853 0 0 0 1.9e-4,8e-4 6.3907853,6.3907853 0 0 0 0.097,0.21422 6.3907853,6.3907853 0 0 0 0.01,0.0187 6.3907853,6.3907853 0 0 0 0.01,0.0204 6.3907853,6.3907853 0 0 0 0.1057,0.24498 6.3907853,6.3907853 0 0 0 5.3e-4,0.002 6.3907853,6.3907853 0 0 0 0.026,0.0471 6.3907853,6.3907853 0 0 0 0.016,0.0347 6.3907853,6.3907853 0 0 0 0.2211,0.39777 l -0.794,0.78808 c -0.4202,0.41679 -0.498,1.01517 -0.1743,1.3415 l 0.9519,0.95905 c 0.3237,0.32638 0.9221,0.25425 1.3423,-0.16257 l 0.7974,-0.79059 a 6.3907853,6.3907853 0 0 0 0.1286,0.0808 6.3907853,6.3907853 0 0 0 0.04,0.0209 6.3907853,6.3907853 0 0 0 0.041,0.0257 6.3907853,6.3907853 0 0 0 10e-4,5.3e-4 6.3907853,6.3907853 0 0 0 0.25,0.12461 6.3907853,6.3907853 0 0 0 0.01,0.005 6.3907853,6.3907853 0 0 0 0.2685,0.13344 6.3907853,6.3907853 0 0 0 0,0.002 6.3907853,6.3907853 0 0 0 0,0.002 6.3907853,6.3907853 0 0 0 0.039,0.0196 6.3907853,6.3907853 0 0 0 0.1606,0.0609 6.3907853,6.3907853 0 0 0 0.092,0.0353 6.3907853,6.3907853 0 0 0 0.3006,0.1145 6.3907853,6.3907853 0 0 0 0.044,0.0166 6.3907853,6.3907853 0 0 0 8e-4,-1.9e-4 6.3907853,6.3907853 0 0 0 0.026,0.007 6.3907853,6.3907853 0 0 0 0.4102,0.11708 v 1.11805 c 0,0.59183 0.3661,1.06958 0.8257,1.07143 l 1.3511,0.005 c 0.4597,0.002 0.8316,-0.47318 0.834,-1.06501 v -1.12236 a 6.3907853,6.3907853 0 0 0 0.1487,-0.0329 6.3907853,6.3907853 0 0 0 0.045,-0.0151 6.3907853,6.3907853 0 0 0 0.2987,-0.095 6.3907853,6.3907853 0 0 0 0.3078,-0.10289 6.3907853,6.3907853 0 0 0 0.044,-0.0146 6.3907853,6.3907853 0 0 0 0.2422,-0.11003 6.3907853,6.3907853 0 0 0 0.024,-0.0113 6.3907853,6.3907853 0 0 0 0.2757,-0.12358 6.3907853,6.3907853 0 0 0 0.4387,-0.24076 l 0.7882,0.79475 c 0.4168,0.42015 1.015,0.49722 1.3413,0.17349 l 0.9593,-0.95113 c 0.041,-0.0405 0.075,-0.0857 0.1036,-0.13382 0.1988,-0.33731 0.098,-0.84136 -0.2671,-1.20902 l -0.7904,-0.7966 a 6.3907853,6.3907853 0 0 0 0.082,-0.12879 6.3907853,6.3907853 0 0 0 -2e-4,-7.9e-4 6.3907853,6.3907853 0 0 0 0.018,-0.0346 6.3907853,6.3907853 0 0 0 0.1694,-0.32801 6.3907853,6.3907853 0 0 0 0.106,-0.20394 6.3907853,6.3907853 0 0 0 -2e-4,-8e-4 6.3907853,6.3907853 0 0 0 0.014,-0.0334 6.3907853,6.3907853 0 0 0 0,-0.003 6.3907853,6.3907853 0 0 0 0.1237,-0.31188 6.3907853,6.3907853 0 0 0 0.1089,-0.28783 6.3907853,6.3907853 0 0 0 7.9e-4,-0.003 6.3907853,6.3907853 0 0 0 0.016,-0.0422 6.3907853,6.3907853 0 0 0 0.1245,-0.43721 l 1.1191,0.005 c 0.5918,0.003 1.0696,-0.36605 1.0714,-0.8257 l 0.01,-1.35109 c 2.1e-4,-0.0576 -0.01,-0.1139 -0.021,-0.16805 -0.098,-0.37914 -0.5262,-0.66385 -1.04409,-0.66593 l -1.12231,-0.005 a 6.3907853,6.3907853 0 0 0 -0.034,-0.14855 6.3907853,6.3907853 0 0 0 -2e-4,-7.9e-4 6.3907853,6.3907853 0 0 0 -0.014,-0.0455 6.3907853,6.3907853 0 0 0 -0.01,-0.0443 6.3907853,6.3907853 0 0 0 -1.9e-4,-8e-4 6.3907853,6.3907853 0 0 0 -0.085,-0.25372 6.3907853,6.3907853 0 0 0 -0.084,-0.26362 6.3907853,6.3907853 0 0 0 -2.1e-4,-7.9e-4 6.3907853,6.3907853 0 0 0 -0.019,-0.0434 6.3907853,6.3907853 0 0 0 -0.015,-0.0439 6.3907853,6.3907853 0 0 0 -2e-4,-7.9e-4 6.3907853,6.3907853 0 0 0 -0.1117,-0.24905 6.3907853,6.3907853 0 0 0 -0.01,-0.0166 6.3907853,6.3907853 0 0 0 -0.12119,-0.26995 6.3907853,6.3907853 0 0 0 0,-0.005 6.3907853,6.3907853 0 0 0 -0.019,-0.0426 6.3907853,6.3907853 0 0 0 -2e-4,-8e-4 6.3907853,6.3907853 0 0 0 -0.01,-0.0124 6.3907853,6.3907853 0 0 0 -0.2145,-0.38499 l 0.794,-0.78808 c 0.4201,-0.41679 0.4979,-1.01514 0.1742,-1.34149 l -0.952,-0.95921 c -0.04,-0.0405 -0.085,-0.0753 -0.1331,-0.10376 -0.3372,-0.199 -0.8421,-0.0974 -1.2097,0.26721 l -0.7959,0.79022 a 6.3907853,6.3907853 0 0 0 -0.1298,-0.082 6.3907853,6.3907853 0 0 0 -0.047,-0.0248 6.3907853,6.3907853 0 0 0 0,-0.002 6.3907853,6.3907853 0 0 0 -0.03,-0.0187 6.3907853,6.3907853 0 0 0 -0.1841,-0.0919 6.3907853,6.3907853 0 0 0 -0.026,-0.0133 6.3907853,6.3907853 0 0 0 -0.3235,-0.1617 6.3907853,6.3907853 0 0 0 -0.037,-0.0185 6.3907853,6.3907853 0 0 0 -7.9e-4,2e-4 6.3907853,6.3907853 0 0 0 -0.219,-0.0835 6.3907853,6.3907853 0 0 0 0,-0.002 6.3907853,6.3907853 0 0 0 -0.3301,-0.12528 6.3907853,6.3907853 0 0 0 -0.043,-0.0162 6.3907853,6.3907853 0 0 0 -10e-4,-5.3e-4 6.3907853,6.3907853 0 0 0 -0.02,-0.006 6.3907853,6.3907853 0 0 0 -0.4163,-0.1187 v -1.11914 c 0,-0.59182 -0.366,-1.06959 -0.8257,-1.07142 l -1.3511,-0.005 c -0.057,-1.3e-4 -0.1139,0.006 -0.168,0.0209 z m -0.2265,4.4469 a 4.0668636,4.0668636 0 0 1 4.9689,2.89558 4.0668636,4.0668636 0 0 1 -2.8954,4.96965 4.0668636,4.0668636 0 0 1 -4.9699,-2.89613 4.0668636,4.0668636 0 0 1 2.8964,-4.9691 z m -9.2636,5.4837 2.9e-4,8e-4 c -0.1248,0.0326 -0.2187,0.17309 -0.2194,0.34359 l -0.001,0.36994 a 2.1047538,2.1047538 0 0 0 -0.05,0.0105 2.1047538,2.1047538 0 0 0 -0.015,0.005 2.1047538,2.1047538 0 0 0 -0.098,0.032 2.1047538,2.1047538 0 0 0 -0.1014,0.035 2.1047538,2.1047538 0 0 0 -0.015,0.005 2.1047538,2.1047538 0 0 0 -0.072,0.0331 2.1047538,2.1047538 0 0 0 -0.01,0.002 2.1047538,2.1047538 0 0 0 -0.086,0.0369 2.1047538,2.1047538 0 0 0 -0.014,0.009 2.1047538,2.1047538 0 0 0 -8e-4,2e-4 2.1047538,2.1047538 0 0 0 -0.143,0.0789 l -0.2595,-0.26168 c -0.1373,-0.13838 -0.3346,-0.16361 -0.442,-0.057 l -0.3154,0.3132 c -0.1075,0.10662 -0.084,0.30359 0.053,0.44196 l 0.2605,0.26229 a 2.1047538,2.1047538 0 0 0 -0.022,0.035 2.1047538,2.1047538 0 0 0 0,0.007 2.1047538,2.1047538 0 0 0 -0.01,0.0165 2.1047538,2.1047538 0 0 0 -0.037,0.0718 2.1047538,2.1047538 0 0 0 -0.051,0.0982 2.1047538,2.1047538 0 0 0 -0.01,0.0176 2.1047538,2.1047538 0 0 0 -0.033,0.0855 2.1047538,2.1047538 0 0 0 0,0.006 2.1047538,2.1047538 0 0 0 -0.035,0.0876 2.1047538,2.1047538 0 0 0 0,0.0151 2.1047538,2.1047538 0 0 0 -0.01,0.0139 2.1047538,2.1047538 0 0 0 -0.041,0.14408 l -0.3684,-0.001 c -0.1949,-5.3e-4 -0.3524,0.1201 -0.353,0.27146 v 0.44533 c -6.8e-4,0.15138 0.156,0.27395 0.3509,0.27475 l 0.3699,0.001 a 2.1047538,2.1047538 0 0 0 0.011,0.049 2.1047538,2.1047538 0 0 0 2e-4,8e-4 2.1047538,2.1047538 0 0 0 0,0.0117 2.1047538,2.1047538 0 0 0 0,0.003 2.1047538,2.1047538 0 0 0 0,0.0153 2.1047538,2.1047538 0 0 0 0.027,0.0799 2.1047538,2.1047538 0 0 0 6.9e-4,0.003 2.1047538,2.1047538 0 0 0 8e-4,0.003 2.1047538,2.1047538 0 0 0 0.027,0.0849 2.1047538,2.1047538 0 0 0 0.01,0.0125 2.1047538,2.1047538 0 0 0 6.8e-4,0.003 2.1047538,2.1047538 0 0 0 0.01,0.0142 2.1047538,2.1047538 0 0 0 0.032,0.0707 2.1047538,2.1047538 0 0 0 0,0.006 2.1047538,2.1047538 0 0 0 0,0.008 2.1047538,2.1047538 0 0 0 0.035,0.0804 2.1047538,2.1047538 0 0 0 0.01,0.0162 2.1047538,2.1047538 0 0 0 0,0.0113 2.1047538,2.1047538 0 0 0 0.073,0.13082 l -0.2615,0.26026 c -0.1384,0.13722 -0.1639,0.33381 -0.057,0.4413 l 0.3133,0.31614 c 0.1067,0.10747 0.3036,0.0836 0.442,-0.0535 l 0.2623,-0.26045 a 2.1047538,2.1047538 0 0 0 0.043,0.0267 2.1047538,2.1047538 0 0 0 0.013,0.007 2.1047538,2.1047538 0 0 0 0.013,0.007 2.1047538,2.1047538 0 0 0 10e-4,5.3e-4 2.1047538,2.1047538 0 0 0 0.082,0.0406 2.1047538,2.1047538 0 0 0 0,0.002 2.1047538,2.1047538 0 0 0 0.088,0.0437 2.1047538,2.1047538 0 0 0 0,5.3e-4 2.1047538,2.1047538 0 0 0 0.001,5.3e-4 2.1047538,2.1047538 0 0 0 0.013,0.007 2.1047538,2.1047538 0 0 0 0.053,0.02 2.1047538,2.1047538 0 0 0 0.03,0.0113 2.1047538,2.1047538 0 0 0 0.099,0.0377 2.1047538,2.1047538 0 0 0 0.015,0.005 2.1047538,2.1047538 0 0 0 0.01,0.003 2.1047538,2.1047538 0 0 0 0.1352,0.0385 v 0.36863 c -6.8e-4,0.19493 0.1209,0.35222 0.2722,0.35283 l 0.4452,0.001 c 0.15141,5.2e-4 0.27401,-0.15599 0.2747,-0.35094 v -0.36919 a 2.1047538,2.1047538 0 0 0 0.049,-0.0104 2.1047538,2.1047538 0 0 0 0.015,-0.005 2.1047538,2.1047538 0 0 0 0.098,-0.0311 2.1047538,2.1047538 0 0 0 0.10141,-0.035 2.1047538,2.1047538 0 0 0 0.014,-0.006 2.1047538,2.1047538 0 0 0 0.08,-0.0353 2.1047538,2.1047538 0 0 0 0.01,-0.004 2.1047538,2.1047538 0 0 0 0.091,-0.041 2.1047538,2.1047538 0 0 0 0.14379,-0.0792 l 0.2603,0.26154 c 0.1372,0.13839 0.33381,0.16385 0.4412,0.0572 l 0.31621,-0.31339 c 0.014,-0.0129 0.025,-0.028 0.034,-0.0438 0.065,-0.11116 0.032,-0.27708 -0.088,-0.39818 l -0.2605,-0.26227 a 2.1047538,2.1047538 0 0 0 0.027,-0.0425 2.1047538,2.1047538 0 0 0 0.01,-0.0124 2.1047538,2.1047538 0 0 0 0.056,-0.10764 2.1047538,2.1047538 0 0 0 0.035,-0.0673 2.1047538,2.1047538 0 0 0 0,-0.0105 2.1047538,2.1047538 0 0 0 2e-4,-0.002 2.1047538,2.1047538 0 0 0 0.041,-0.10278 2.1047538,2.1047538 0 0 0 0.035,-0.095 2.1047538,2.1047538 0 0 0 5.2e-4,-0.001 2.1047538,2.1047538 0 0 0 0.01,-0.0139 2.1047538,2.1047538 0 0 0 0.041,-0.14407 l 0.36851,0.001 c 0.1949,5.3e-4 0.3522,-0.12077 0.35279,-0.27221 v -0.44457 c 0,-0.0189 0,-0.0375 -0.01,-0.0554 -0.033,-0.12483 -0.1731,-0.21871 -0.3436,-0.21939 l -0.3701,-0.001 a 2.1047538,2.1047538 0 0 0 -0.011,-0.049 2.1047538,2.1047538 0 0 0 0,-0.0149 2.1047538,2.1047538 0 0 0 0,-0.0146 2.1047538,2.1047538 0 0 0 -2e-4,-7.9e-4 2.1047538,2.1047538 0 0 0 -0.028,-0.0831 2.1047538,2.1047538 0 0 0 -0.028,-0.0872 2.1047538,2.1047538 0 0 0 -0.01,-0.0146 2.1047538,2.1047538 0 0 0 0,-0.0144 2.1047538,2.1047538 0 0 0 -2e-4,-7.9e-4 2.1047538,2.1047538 0 0 0 -0.037,-0.0814 2.1047538,2.1047538 0 0 0 0,-0.006 2.1047538,2.1047538 0 0 0 -0.04,-0.0887 2.1047538,2.1047538 0 0 0 -5.3e-4,-0.002 2.1047538,2.1047538 0 0 0 -0.01,-0.0146 2.1047538,2.1047538 0 0 0 0,-0.005 2.1047538,2.1047538 0 0 0 -0.071,-0.1274 l 0.2617,-0.25951 c 0.1384,-0.13721 0.1639,-0.33383 0.057,-0.4413 l -0.3135,-0.31622 c -0.013,-0.0134 -0.028,-0.0251 -0.044,-0.0345 -0.11109,-0.0656 -0.277,-0.0321 -0.3982,0.0879 l -0.2622,0.26045 a 2.1047538,2.1047538 0 0 0 -0.043,-0.0267 2.1047538,2.1047538 0 0 0 -0.016,-0.008 2.1047538,2.1047538 0 0 0 0,-0.002 2.1047538,2.1047538 0 0 0 -0.01,-0.007 2.1047538,2.1047538 0 0 0 -0.06,-0.0301 2.1047538,2.1047538 0 0 0 -0.01,-0.004 2.1047538,2.1047538 0 0 0 -0.10689,-0.0534 2.1047538,2.1047538 0 0 0 -0.012,-0.006 2.1047538,2.1047538 0 0 0 -0.072,-0.027 2.1047538,2.1047538 0 0 0 0,-0.002 2.1047538,2.1047538 0 0 0 -0.1084,-0.0409 2.1047538,2.1047538 0 0 0 -0.014,-0.005 2.1047538,2.1047538 0 0 0 -0.01,-0.002 2.1047538,2.1047538 0 0 0 -0.137,-0.039 v -0.36844 c 7.9e-4,-0.19492 -0.12,-0.35242 -0.2714,-0.35303 l -0.4454,-0.002 c -0.019,-6e-5 -0.038,0.002 -0.056,0.007 z m -0.075,1.46538 a 1.3393888,1.3393888 0 0 1 1.6365,0.9537 1.3393888,1.3393888 0 0 1 -0.9537,1.63659 1.3393888,1.3393888 0 0 1 -1.6366,-0.95371 1.3393888,1.3393888 0 0 1 0.9538,-1.63658 z m 3.2457,3.4322 2e-4,8e-4 c -0.2272,0.0591 -0.3985,0.31636 -0.3998,0.62683 v 0.67234 a 3.8317384,3.8317384 0 0 0 -0.089,0.0204 3.8317384,3.8317384 0 0 0 -0.027,0.009 3.8317384,3.8317384 0 0 0 -0.1788,0.0565 3.8317384,3.8317384 0 0 0 -0.1856,0.0614 3.8317384,3.8317384 0 0 0 -0.026,0.0103 3.8317384,3.8317384 0 0 0 -0.1321,0.0591 3.8317384,3.8317384 0 0 0 -0.01,0.005 3.8317384,3.8317384 0 0 0 -0.15751,0.0673 3.8317384,3.8317384 0 0 0 -0.026,0.0152 3.8317384,3.8317384 0 0 0 -0.2619,0.14247 l -0.4726,-0.47623 c -0.2499,-0.25194 -0.6084,-0.29854 -0.8041,-0.10444 l -0.5753,0.57059 c -0.1957,0.19404 -0.1515,0.55277 0.098,0.80468 l 0.4739,0.47805 a 3.8317384,3.8317384 0 0 0 -0.04,0.0631 3.8317384,3.8317384 0 0 0 -0.01,0.0149 3.8317384,3.8317384 0 0 0 -0.016,0.03 3.8317384,3.8317384 0 0 0 -0.068,0.13103 3.8317384,3.8317384 0 0 0 -0.092,0.17837 3.8317384,3.8317384 0 0 0 2.9e-4,7.9e-4 3.8317384,3.8317384 0 0 0 -0.014,0.0318 3.8317384,3.8317384 0 0 0 -0.061,0.15491 3.8317384,3.8317384 0 0 0 0,0.0103 3.8317384,3.8317384 0 0 0 -0.063,0.15864 3.8317384,3.8317384 0 0 0 -6e-4,10e-4 3.8317384,3.8317384 0 0 0 -0.01,0.027 3.8317384,3.8317384 0 0 0 -6.1e-4,0.001 3.8317384,3.8317384 0 0 0 -0.01,0.0249 3.8317384,3.8317384 0 0 0 -0.075,0.26185 l -0.6714,-0.003 c -0.3548,-0.001 -0.641,0.21894 -0.6421,0.4946 v 0.81053 c 0,0.27561 0.2839,0.49854 0.6387,0.49997 l 0.6731,0.003 a 3.8317384,3.8317384 0 0 0 0.019,0.0877 3.8317384,3.8317384 0 0 0 2e-4,7.9e-4 3.8317384,3.8317384 0 0 0 2e-4,7.9e-4 3.8317384,3.8317384 0 0 0 0.01,0.0217 3.8317384,3.8317384 0 0 0 0,0.006 3.8317384,3.8317384 0 0 0 0.01,0.0269 3.8317384,3.8317384 0 0 0 2e-4,8e-4 3.8317384,3.8317384 0 0 0 0.05,0.14592 3.8317384,3.8317384 0 0 0 7.9e-4,0.003 3.8317384,3.8317384 0 0 0 0,0.006 3.8317384,3.8317384 0 0 0 0.049,0.15572 3.8317384,3.8317384 0 0 0 0.01,0.0209 3.8317384,3.8317384 0 0 0 0,0.006 3.8317384,3.8317384 0 0 0 0.01,0.0251 3.8317384,3.8317384 0 0 0 2e-4,7.9e-4 3.8317384,3.8317384 0 0 0 0.058,0.1284 3.8317384,3.8317384 0 0 0 0,0.0113 3.8317384,3.8317384 0 0 0 0.01,0.0111 3.8317384,3.8317384 0 0 0 0.063,0.14724 3.8317384,3.8317384 0 0 0 2e-4,7.9e-4 3.8317384,3.8317384 0 0 0 0.016,0.0283 3.8317384,3.8317384 0 0 0 0.01,0.021 3.8317384,3.8317384 0 0 0 0.1323,0.23875 l -0.476,0.47259 c -0.2519,0.24989 -0.2985,0.60838 -0.1044,0.80405 l 0.5706,0.57525 c 0.1941,0.19567 0.553,0.15234 0.8049,-0.0976 l 0.478,-0.47392 a 3.8317384,3.8317384 0 0 0 0.077,0.0482 3.8317384,3.8317384 0 0 0 0.024,0.0122 3.8317384,3.8317384 0 0 0 0.024,0.0154 3.8317384,3.8317384 0 0 0 0.001,5.2e-4 3.8317384,3.8317384 0 0 0 0.1496,0.0745 3.8317384,3.8317384 0 0 0 0.01,0.004 3.8317384,3.8317384 0 0 0 0.1606,0.0794 3.8317384,3.8317384 0 0 0 0,0.003 3.8317384,3.8317384 0 0 0 0,2.6e-4 3.8317384,3.8317384 0 0 0 0.024,0.0114 3.8317384,3.8317384 0 0 0 0.096,0.0369 3.8317384,3.8317384 0 0 0 0.056,0.0209 3.8317384,3.8317384 0 0 0 0.1804,0.0687 3.8317384,3.8317384 0 0 0 0.026,0.0102 3.8317384,3.8317384 0 0 0 0.016,0.005 3.8317384,3.8317384 0 0 0 0.2461,0.0699 v 0.6714 c 0,0.35483 0.219,0.64099 0.4946,0.64211 l 0.8105,0.003 c 0.2756,10e-4 0.4986,-0.28388 0.5,-0.63874 v -0.67287 a 3.8317384,3.8317384 0 0 0 0.09,-0.0184 3.8317384,3.8317384 0 0 0 0.027,-0.0104 3.8317384,3.8317384 0 0 0 0.1788,-0.0565 3.8317384,3.8317384 0 0 0 0.1845,-0.0627 3.8317384,3.8317384 0 0 0 0.027,-0.009 3.8317384,3.8317384 0 0 0 0.1449,-0.0657 3.8317384,3.8317384 0 0 0 0.014,-0.007 3.8317384,3.8317384 0 0 0 0.1653,-0.0742 3.8317384,3.8317384 0 0 0 0.263,-0.14442 l 0.4728,0.47673 c 0.2499,0.2519 0.6084,0.29854 0.8041,0.10444 l 0.5752,-0.57059 c 0.024,-0.0243 0.045,-0.0512 0.062,-0.08 0.1193,-0.20224 0.058,-0.50489 -0.1605,-0.72534 l -0.4737,-0.47712 a 3.8317384,3.8317384 0 0 0 0.049,-0.0774 3.8317384,3.8317384 0 0 0 0.011,-0.0205 3.8317384,3.8317384 0 0 0 0.1014,-0.19706 3.8317384,3.8317384 0 0 0 0.064,-0.12257 3.8317384,3.8317384 0 0 0 0.01,-0.02 3.8317384,3.8317384 0 0 0 0,-0.003 3.8317384,3.8317384 0 0 0 0.074,-0.18667 3.8317384,3.8317384 0 0 0 0.066,-0.17308 3.8317384,3.8317384 0 0 0 2.6e-4,-0.002 3.8317384,3.8317384 0 0 0 0.01,-0.0252 3.8317384,3.8317384 0 0 0 0.075,-0.26184 l 0.67141,0.003 c 0.35479,0.001 0.64099,-0.21894 0.64209,-0.49459 v -0.81053 c 2.1e-4,-0.0343 0,-0.0683 -0.013,-0.1008 -0.059,-0.22721 -0.3154,-0.39797 -0.6259,-0.39924 l -0.6731,-0.003 a 3.8317384,3.8317384 0 0 0 -0.019,-0.0895 3.8317384,3.8317384 0 0 0 -0.01,-0.0275 3.8317384,3.8317384 0 0 0 -0.01,-0.0266 3.8317384,3.8317384 0 0 0 -0.051,-0.15196 3.8317384,3.8317384 0 0 0 -0.05,-0.15878 3.8317384,3.8317384 0 0 0 -0.012,-0.026 3.8317384,3.8317384 0 0 0 -0.01,-0.026 3.8317384,3.8317384 0 0 0 -2e-4,-7.9e-4 3.8317384,3.8317384 0 0 0 -0.067,-0.14945 3.8317384,3.8317384 0 0 0 -0.01,-0.01 3.8317384,3.8317384 0 0 0 -0.072,-0.1617 3.8317384,3.8317384 0 0 0 -7.9e-4,-0.003 3.8317384,3.8317384 0 0 0 -0.012,-0.0252 3.8317384,3.8317384 0 0 0 -2e-4,-7.9e-4 3.8317384,3.8317384 0 0 0 0,-0.007 3.8317384,3.8317384 0 0 0 -0.1287,-0.23084 l 0.476,-0.47259 c 0.2519,-0.24989 0.2986,-0.60838 0.1045,-0.80407 l -0.5706,-0.57519 c -0.024,-0.0245 -0.051,-0.0452 -0.079,-0.0622 -0.2022,-0.1193 -0.505,-0.0589 -0.7255,0.15973 l -0.4771,0.47451 a 3.8317384,3.8317384 0 0 0 -0.078,-0.0499 3.8317384,3.8317384 0 0 0 -0.028,-0.0143 3.8317384,3.8317384 0 0 0 0,-0.002 3.8317384,3.8317384 0 0 0 -0.018,-0.0117 3.8317384,3.8317384 0 0 0 -0.1105,-0.0548 3.8317384,3.8317384 0 0 0 -0.016,-0.008 3.8317384,3.8317384 0 0 0 -0.1934,-0.0968 3.8317384,3.8317384 0 0 0 -0.022,-0.0112 3.8317384,3.8317384 0 0 0 -7.9e-4,2.1e-4 3.8317384,3.8317384 0 0 0 -0.13111,-0.0502 3.8317384,3.8317384 0 0 0 0,-0.002 3.8317384,3.8317384 0 0 0 -0.1983,-0.0752 3.8317384,3.8317384 0 0 0 -0.026,-0.009 3.8317384,3.8317384 0 0 0 -0.012,-0.003 3.8317384,3.8317384 0 0 0 -0.2497,-0.0714 v -0.67073 c 0,-0.35483 -0.21989,-0.64155 -0.49549,-0.64267 l -0.8098,-0.003 c -0.034,-2.6e-4 -0.068,0.004 -0.10091,0.012 z m -0.1363,2.66741 a 2.4383791,2.4383791 0 0 1 2.9795,1.73624 2.4383791,2.4383791 0 0 1 -1.7363,2.97943 2.4383791,2.4383791 0 0 1 -2.9794,-1.73623 2.4383791,2.4383791 0 0 1 1.7362,-2.97944 z m 7.9139,2.7e-4 5.3e-4,0.002 c -0.087,0.0227 -0.1518,0.12062 -0.1523,0.23956 v 0.25787 a 1.4676391,1.4676391 0 0 0 -0.034,0.007 1.4676391,1.4676391 0 0 0 -0.01,0.003 1.4676391,1.4676391 0 0 0 -0.068,0.0231 1.4676391,1.4676391 0 0 0 -0.07,0.0238 1.4676391,1.4676391 0 0 0 -0.01,0.003 1.4676391,1.4676391 0 0 0 -0.051,0.0226 1.4676391,1.4676391 0 0 0 0,0.002 1.4676391,1.4676391 0 0 0 -0.06,0.025 1.4676391,1.4676391 0 0 0 -0.011,0.006 1.4676391,1.4676391 0 0 0 -0.10021,0.0547 l -0.18049,-0.18247 c -0.096,-0.0965 -0.2334,-0.11414 -0.3083,-0.0397 l -0.2203,0.21787 c -0.075,0.0743 -0.058,0.21238 0.038,0.30887 l 0.1812,0.18229 a 1.4676391,1.4676391 0 0 0 -0.015,0.0242 1.4676391,1.4676391 0 0 0 0,0.006 1.4676391,1.4676391 0 0 0 -0.01,0.0126 1.4676391,1.4676391 0 0 0 -0.026,0.0496 1.4676391,1.4676391 0 0 0 -0.035,0.0682 1.4676391,1.4676391 0 0 0 2e-4,7.9e-4 1.4676391,1.4676391 0 0 0 0,0.0122 1.4676391,1.4676391 0 0 0 -0.024,0.0596 1.4676391,1.4676391 0 0 0 0,0.003 1.4676391,1.4676391 0 0 0 -0.024,0.0611 1.4676391,1.4676391 0 0 0 0,0.0101 1.4676391,1.4676391 0 0 0 0,0.0103 1.4676391,1.4676391 0 0 0 -0.028,0.10024 l -0.2569,-5.3e-4 c -0.1359,-2.2e-4 -0.2459,0.0837 -0.2464,0.18929 v 0.31031 c -5.3e-4,0.10554 0.1091,0.19074 0.245,0.19129 l 0.2579,10e-4 a 1.4676391,1.4676391 0 0 0 0.01,0.0336 1.4676391,1.4676391 0 0 0 0,0.009 1.4676391,1.4676391 0 0 0 5.3e-4,0.002 1.4676391,1.4676391 0 0 0 0,0.0103 1.4676391,1.4676391 0 0 0 0.019,0.0556 1.4676391,1.4676391 0 0 0 5.3e-4,0.002 1.4676391,1.4676391 0 0 0 7.9e-4,0.003 1.4676391,1.4676391 0 0 0 0.019,0.0596 1.4676391,1.4676391 0 0 0 0,0.009 1.4676391,1.4676391 0 0 0 0,0.003 1.4676391,1.4676391 0 0 0 0,0.01 1.4676391,1.4676391 0 0 0 0.022,0.049 1.4676391,1.4676391 0 0 0 0,0.005 1.4676391,1.4676391 0 0 0 0,0.005 1.4676391,1.4676391 0 0 0 0.025,0.0564 1.4676391,1.4676391 0 0 0 0.01,0.0109 1.4676391,1.4676391 0 0 0 0,0.008 1.4676391,1.4676391 0 0 0 0.051,0.0909 l -0.1823,0.18128 c -0.096,0.0957 -0.1141,0.23341 -0.04,0.30836 l 0.2179,0.22023 c 0.074,0.0749 0.2124,0.0578 0.3089,-0.0379 l 0.183,-0.18149 a 1.4676391,1.4676391 0 0 0 0.029,0.0189 1.4676391,1.4676391 0 0 0 0.01,0.006 1.4676391,1.4676391 0 0 0 0.01,0.006 1.4676391,1.4676391 0 0 0 0.058,0.0292 1.4676391,1.4676391 0 0 0 0.001,5.3e-4 1.4676391,1.4676391 0 0 0 0.062,0.0305 1.4676391,1.4676391 0 0 0 0.001,5.3e-4 1.4676391,1.4676391 0 0 0 0.01,0.006 1.4676391,1.4676391 0 0 0 0.037,0.0138 1.4676391,1.4676391 0 0 0 0.022,0.008 1.4676391,1.4676391 0 0 0 0.068,0.0264 1.4676391,1.4676391 0 0 0 0.011,0.004 1.4676391,1.4676391 0 0 0 0.01,0.002 1.4676391,1.4676391 0 0 0 0.094,0.0268 l -7.9e-4,0.25693 c -5.3e-4,0.13586 0.084,0.24591 0.1892,0.24635 l 0.31029,10e-4 c 0.1056,8e-4 0.191,-0.10826 0.1915,-0.24419 v -0.25789 a 1.4676391,1.4676391 0 0 0 0.034,-0.008 1.4676391,1.4676391 0 0 0 0.011,-0.003 1.4676391,1.4676391 0 0 0 0.068,-0.0231 1.4676391,1.4676391 0 0 0 0.071,-0.024 1.4676391,1.4676391 0 0 0 0.01,-0.003 1.4676391,1.4676391 0 0 0 0.055,-0.0256 1.4676391,1.4676391 0 0 0 0.01,-0.003 1.4676391,1.4676391 0 0 0 0.064,-0.0277 1.4676391,1.4676391 0 0 0 0.10071,-0.0556 l 0.18049,0.18246 c 0.096,0.0965 0.2334,0.11416 0.3084,0.0397 l 0.2202,-0.2179 c 0.01,-0.008 0.017,-0.0202 0.024,-0.0314 0.046,-0.0775 0.022,-0.19308 -0.062,-0.2775 l -0.1813,-0.18226 a 1.4676391,1.4676391 0 0 0 0.019,-0.03 1.4676391,1.4676391 0 0 0 0,-0.009 1.4676391,1.4676391 0 0 0 0.039,-0.0749 1.4676391,1.4676391 0 0 0 0.024,-0.0468 1.4676391,1.4676391 0 0 0 -2e-4,-8e-4 1.4676391,1.4676391 0 0 0 0,-0.007 1.4676391,1.4676391 0 0 0 -2e-4,-7.9e-4 1.4676391,1.4676391 0 0 0 0.029,-0.0714 1.4676391,1.4676391 0 0 0 0.025,-0.0662 1.4676391,1.4676391 0 0 0 5.3e-4,-0.001 1.4676391,1.4676391 0 0 0 0,-0.0102 1.4676391,1.4676391 0 0 0 0.029,-0.10047 l 0.2572,0.001 c 0.1359,2.2e-4 0.2449,-0.0842 0.2454,-0.18981 v -0.31031 c 2.7e-4,-0.0126 0,-0.026 0,-0.0383 -0.023,-0.087 -0.1209,-0.15263 -0.2398,-0.15312 l -0.2577,-5.3e-4 a 1.4676391,1.4676391 0 0 0 -0.01,-0.0342 1.4676391,1.4676391 0 0 0 0,-0.0103 1.4676391,1.4676391 0 0 0 0,-0.0103 1.4676391,1.4676391 0 0 0 -0.019,-0.0585 1.4676391,1.4676391 0 0 0 -0.019,-0.0605 1.4676391,1.4676391 0 0 0 0,-0.01 1.4676391,1.4676391 0 0 0 0,-0.0101 1.4676391,1.4676391 0 0 0 -2e-4,-7.9e-4 1.4676391,1.4676391 0 0 0 -0.026,-0.0571 1.4676391,1.4676391 0 0 0 0,-0.005 1.4676391,1.4676391 0 0 0 -0.028,-0.0621 1.4676391,1.4676391 0 0 0 -2e-4,-7.9e-4 1.4676391,1.4676391 0 0 0 0,-0.01 1.4676391,1.4676391 0 0 0 0,-0.003 1.4676391,1.4676391 0 0 0 -0.049,-0.0887 l 0.1823,-0.18128 c 0.096,-0.0957 0.1143,-0.23266 0.04,-0.3076 l -0.2187,-0.22005 c -0.01,-0.009 -0.02,-0.0177 -0.031,-0.0243 -0.077,-0.0457 -0.1933,-0.0226 -0.2778,0.0607 l -0.183,0.18149 a 1.4676391,1.4676391 0 0 0 -0.03,-0.0187 1.4676391,1.4676391 0 0 0 -0.01,-0.006 1.4676391,1.4676391 0 0 0 0,-2.7e-4 1.4676391,1.4676391 0 0 0 -0.01,-0.005 1.4676391,1.4676391 0 0 0 -0.042,-0.0213 1.4676391,1.4676391 0 0 0 -0.01,-0.004 1.4676391,1.4676391 0 0 0 -0.075,-0.0376 1.4676391,1.4676391 0 0 0 -0.01,-0.004 1.4676391,1.4676391 0 0 0 -0.05,-0.0191 1.4676391,1.4676391 0 0 0 0,-2.7e-4 1.4676391,1.4676391 0 0 0 -0.075,-0.0285 1.4676391,1.4676391 0 0 0 -0.01,-0.004 1.4676391,1.4676391 0 0 0 -0.01,-0.002 1.4676391,1.4676391 0 0 0 -0.095,-0.0273 l 7.9e-4,-0.25693 c 5.3e-4,-0.13589 -0.084,-0.24592 -0.1893,-0.24635 l -0.3103,-0.001 c -0.013,2.6e-4 -0.027,7.9e-4 -0.039,0.004 z m -0.052,1.02263 a 0.93395215,0.93395215 0 0 1 1.1416,0.66527 0.93395215,0.93395215 0 0 1 -0.6655,1.14086 0.93395215,0.93395215 0 0 1 -1.1406,-0.66471 0.93395215,0.93395215 0 0 1 0.6645,-1.14142 z" style="opacity:1;fill:#ffffff;fill-opacity:1;fill-rule:nonzero;stroke:none;stroke-width:0.01697024;stroke-linecap:round;stroke-linejoin:miter;stroke-miterlimit:4;stroke-dasharray:none;stroke-dashoffset:0;stroke-opacity:1;paint-order:stroke fill markers"/> </g> </g> </svg>