<?xml version='1.0' encoding='utf-8'?>
<svg xmlns="http://www.w3.org/2000/svg" width="5000" height="5000" viewBox="0 0 1322.9166 1322.9167" version="1.1" id="svg8"> <defs id="defs2"/> <metadata id="metadata5"> </metadata> <g id="layer1" transform="translate(0,1025.9167)"> <g transform="matrix(31.182024,0,0,31.182024,2966.7587,-5272.8746)" id="g7182" style="stroke-width:0.03206976"> <path id="path8303" d="m -73.930481,136.62319 a 20.788654,20.788654 0 0 0 -1.772301,0.0886 20.788654,20.788654 0 0 1 1.772301,-0.0886 z m 2.029801,0.10159 a 20.788654,20.788654 0 0 1 1.2627,0.18601 20.788654,20.788654 0 0 0 -1.2627,-0.18601 z m -4.829501,0.11172 a 20.788654,20.788654 0 0 0 -1.0313,0.15562 20.788654,20.788654 0 0 1 1.0313,-0.15562 z m 6.877,0.19304 a 20.788654,20.788654 0 0 1 1.387099,0.34866 20.788654,20.788654 0 0 0 -1.387099,-0.34866 z m -8.921102,0.19023 a 20.788654,20.788654 0 0 0 -1.004297,0.25636 20.788654,20.788654 0 0 1 1.004297,-0.25636 z m 10.931502,0.31743 a 20.788654,20.788654 0 0 1 1.4416,0.52032 20.788654,20.788654 0 0 0 -1.4416,-0.52032 z m -12.9227,0.26677 a 20.788654,20.788654 0 0 0 -0.975702,0.35598 20.788654,20.788654 0 0 1 0.975702,-0.35598 z m 14.8728,0.43899 a 20.788654,20.788654 0 0 1 1.518799,0.72688 20.788654,20.788654 0 0 0 -1.518799,-0.72688 z m -16.7934,0.33994 a 20.788654,20.788654 0 0 0 -0.938501,0.45363 20.788654,20.788654 0 0 1 0.938501,-0.45363 z m 18.6617,0.55578 a 20.788654,20.788654 0 0 1 1.5235,0.92611 20.788654,20.788654 0 0 0 -1.5235,-0.92611 z m -20.499001,0.41338 a 20.788654,20.788654 0 0 0 -0.886399,0.5434 20.788654,20.788654 0 0 1 0.886399,-0.5434 z m 22.271302,0.66553 a 20.788654,20.788654 0 0 1 1.488099,1.12225 20.788654,20.788654 0 0 0 -1.488099,-1.12225 z m -23.999402,0.4798 a 20.788654,20.788654 0 0 0 -0.831,0.63175 20.788654,20.788654 0 0 1 0.831,-0.63175 z m 25.6555,0.7702 a 20.788654,20.788654 0 0 1 1.5063,1.39324 20.788654,20.788654 0 0 0 -1.5063,-1.39324 z m -27.261798,0.54255 a 20.788654,20.788654 0 0 0 -0.7649,0.71281 20.788654,20.788654 0 0 1 0.7649,-0.71281 z m 28.781298,0.86307 -14.7363,14.73639 -14.644999,14.64491 a 20.788654,20.788654 0 0 0 14.5273,5.94583 20.788654,20.788654 0 0 0 20.788605,-20.78857 20.788654,20.788654 0 0 0 -5.934606,-14.53856 z m -29.381299,29.3813 a 20.788654,20.788654 0 0 1 -1.264,-1.35919 20.788654,20.788654 0 0 0 1.264,1.35919 z m -0.868101,-28.77683 a 20.788654,20.788654 0 0 0 -0.689401,0.78484 20.788654,20.788654 0 0 1 0.689401,-0.78484 z m -1.313601,1.60598 a 20.788654,20.788654 0 0 0 -0.608398,0.85069 20.788654,20.788654 0 0 1 0.608398,-0.85069 z m -1.148098,1.73093 a 20.788654,20.788654 0 0 0 -0.519501,0.90556 20.788654,20.788654 0 0 1 0.519501,-0.90556 z m -0.967801,1.83364 a 20.788654,20.788654 0 0 0 -0.428,0.9565 20.788654,20.788654 0 0 1 0.428,-0.9565 z m -0.779999,1.92087 a 20.788654,20.788654 0 0 0 -0.331301,0.99618 20.788654,20.788654 0 0 1 0.331301,-0.99618 z m -0.5856,1.99348 a 20.788654,20.788654 0 0 0 -0.229701,1.02207 20.788654,20.788654 0 0 1 0.229701,-1.02207 z m -0.3839,2.04301 a 20.788654,20.788654 0 0 0 -0.1255,1.03444 20.788654,20.788654 0 0 1 0.1255,-1.03444 z m -0.214101,2.80618 a 20.788654,20.788654 0 0 0 0.093,1.80606 20.788654,20.788654 0 0 1 -0.093,-1.80606 z m 0.198901,2.68095 a 20.788654,20.788654 0 0 0 0.185999,1.22018 20.788654,20.788654 0 0 1 -0.185999,-1.22018 z m 0.3512,1.95521 a 20.788654,20.788654 0 0 0 0.339399,1.32204 20.788654,20.788654 0 0 1 -0.339399,-1.32204 z m 0.535,1.91046 a 20.788654,20.788654 0 0 0 0.514401,1.40365 20.788654,20.788654 0 0 1 -0.514401,-1.40365 z m 0.7184,1.85925 a 20.788654,20.788654 0 0 0 0.703199,1.45093 20.788654,20.788654 0 0 1 -0.703199,-1.45093 z m 0.8954,1.7858 a 20.788654,20.788654 0 0 0 0.903899,1.47006 20.788654,20.788654 0 0 1 -0.903899,-1.47006 z m 1.063501,1.69322 a 20.788654,20.788654 0 0 0 1.110898,1.45768 20.788654,20.788654 0 0 1 -1.110898,-1.45768 z" style="opacity:1;fill:#a69e94;fill-opacity:1;fill-rule:nonzero;stroke:none;stroke-width:0.01697025;stroke-linecap:round;stroke-linejoin:miter;stroke-miterlimit:4;stroke-dasharray:none;stroke-dashoffset:0;stroke-opacity:1;paint-order:stroke fill markers"/> <path id="path8305" d="m -73.930381,136.62311 a 20.788654,20.788654 0 0 0 -20.788601,20.78858 20.788654,20.788654 0 0 0 6.261301,14.84274 l 14.644899,-14.64492 14.7364,-14.73637 a 20.788654,20.788654 0 0 0 -14.853999,-6.25003 z" style="opacity:1;fill:#d9d3d0;fill-opacity:1;fill-rule:nonzero;stroke:none;stroke-width:0.01697025;stroke-linecap:round;stroke-linejoin:miter;stroke-miterlimit:4;stroke-dasharray:none;stroke-dashoffset:0;stroke-opacity:1;paint-order:stroke fill markers"/> <path id="path8603" d="m -78.98588,146.40436 c -0.692502,0 -1.249501,0.97343 -1.249501,2.1823 v 15.44505 5.3e-4 2.20452 c 0,0.79754 0.2432,1.4906 0.607201,1.8712 v 0.003 l 0.046,0.0455 9.649503,9.64954 a 20.788654,20.788654 0 0 0 16.386591,-16.40675 l -12.028192,-12.0282 -2.687201,-2.6877 v 0 c -0.1807,-0.17683 -0.389099,-0.27905 -0.611799,-0.27905 z" style="opacity:0.5;fill:#000000;stroke:none;stroke-width:0.00848512px;stroke-linecap:butt;stroke-linejoin:miter;stroke-opacity:1"/> <path id="path8494" d="m -78.985682,146.40456 c -0.692399,0 -1.2499,0.97322 -1.2499,2.18209 v 17.65016 c 0,1.20888 0.557501,2.18208 1.2499,2.18208 h 10.110401 c 0.692499,0 1.25,-0.9732 1.25,-2.18208 v -17.65016 c 0,-1.20887 -0.557501,-2.18209 -1.25,-2.18209 z m 3.756102,0.75168 h 2.598197 c 0.230302,0 0.415402,0.18512 0.415402,0.41539 0,0.23025 -0.1851,0.41538 -0.415402,0.41538 h -2.598197 c -0.230201,0 -0.415401,-0.18513 -0.415401,-0.41538 0,-0.23027 0.1852,-0.41539 0.415401,-0.41539 z m -3.922702,1.76593 h 10.443601 v 16.83323 h -10.443601 z m 5.221801,17.35302 a 0.67540698,0.67540698 0 0 1 0.6757,0.67567 0.67540698,0.67540698 0 0 1 -0.6757,0.67489 0.67540698,0.67540698 0 0 1 -0.675601,-0.67489 0.67540698,0.67540698 0 0 1 0.675601,-0.67567 z" style="opacity:1;fill:#ffffff;fill-opacity:1;fill-rule:nonzero;stroke:none;stroke-width:0.01697025;stroke-linecap:round;stroke-linejoin:miter;stroke-miterlimit:4;stroke-dasharray:none;stroke-dashoffset:0;stroke-opacity:1;paint-order:stroke fill markers"/> </g> </g> </svg>