<?xml version='1.0' encoding='utf-8'?>
<svg xmlns="http://www.w3.org/2000/svg" width="5000" height="5000" viewBox="0 0 1322.9166 1322.9167" version="1.1" id="svg8"> <defs id="defs2"/> <metadata id="metadata5"> </metadata> <g id="layer1" transform="translate(0,1025.9167)"> <g id="g5830" transform="matrix(31.182028,0,0,31.182028,35634.459,26867.901)" style="stroke-width:0.03206976"> <path id="path5872" d="m -1121.5755,-894.12362 a 20.788654,20.788654 0 0 0 -1.7723,0.0886 20.788654,20.788654 0 0 1 1.7723,-0.0886 z m 2.0297,0.10159 a 20.788654,20.788654 0 0 1 1.2627,0.18601 20.788654,20.788654 0 0 0 -1.2627,-0.18601 z m -4.8295,0.11172 a 20.788654,20.788654 0 0 0 -1.0313,0.15562 20.788654,20.788654 0 0 1 1.0313,-0.15562 z m 6.877,0.19304 a 20.788654,20.788654 0 0 1 1.3871,0.34866 20.788654,20.788654 0 0 0 -1.3871,-0.34866 z m -8.9211,0.19023 a 20.788654,20.788654 0 0 0 -1.0043,0.25636 20.788654,20.788654 0 0 1 1.0043,-0.25636 z m 10.9315,0.31743 a 20.788654,20.788654 0 0 1 1.4417,0.52032 20.788654,20.788654 0 0 0 -1.4417,-0.52032 z m -12.9227,0.26677 a 20.788654,20.788654 0 0 0 -0.9756,0.35598 20.788654,20.788654 0 0 1 0.9756,-0.35598 z m 14.8729,0.43899 a 20.788654,20.788654 0 0 1 1.5187,0.72688 20.788654,20.788654 0 0 0 -1.5187,-0.72688 z m -16.7935,0.33994 a 20.788654,20.788654 0 0 0 -0.9385,0.45363 20.788654,20.788654 0 0 1 0.9385,-0.45363 z m 18.6617,0.55578 a 20.788654,20.788654 0 0 1 1.5235,0.92611 20.788654,20.788654 0 0 0 -1.5235,-0.92611 z m -20.499,0.41338 a 20.788654,20.788654 0 0 0 -0.8864,0.5434 20.788654,20.788654 0 0 1 0.8864,-0.5434 z m 22.2713,0.66553 a 20.788654,20.788654 0 0 1 1.4881,1.12225 20.788654,20.788654 0 0 0 -1.4881,-1.12225 z m -23.9994,0.4798 a 20.788654,20.788654 0 0 0 -0.831,0.63175 20.788654,20.788654 0 0 1 0.831,-0.63175 z m 25.6555,0.7702 a 20.788654,20.788654 0 0 1 1.5063,1.39324 20.788654,20.788654 0 0 0 -1.5063,-1.39324 z m -27.2618,0.54255 a 20.788654,20.788654 0 0 0 -0.7648,0.71281 20.788654,20.788654 0 0 1 0.7648,-0.71281 z m 28.7814,0.86307 -14.7364,14.73639 -14.6449,14.64491 a 20.788654,20.788654 0 0 0 14.5273,5.94583 20.788654,20.788654 0 0 0 20.7885,-20.78857 20.788654,20.788654 0 0 0 -5.9345,-14.53856 z m -29.3813,29.3813 a 20.788654,20.788654 0 0 1 -1.2641,-1.35919 20.788654,20.788654 0 0 0 1.2641,1.35919 z m -0.8682,-28.77683 a 20.788654,20.788654 0 0 0 -0.6894,0.78484 20.788654,20.788654 0 0 1 0.6894,-0.78484 z m -1.3136,1.60598 a 20.788654,20.788654 0 0 0 -0.6084,0.85069 20.788654,20.788654 0 0 1 0.6084,-0.85069 z m -1.1481,1.73093 a 20.788654,20.788654 0 0 0 -0.5195,0.90556 20.788654,20.788654 0 0 1 0.5195,-0.90556 z m -0.9678,1.83364 a 20.788654,20.788654 0 0 0 -0.428,0.9565 20.788654,20.788654 0 0 1 0.428,-0.9565 z m -0.78,1.92087 a 20.788654,20.788654 0 0 0 -0.3312,0.99618 20.788654,20.788654 0 0 1 0.3312,-0.99618 z m -0.5856,1.99348 a 20.788654,20.788654 0 0 0 -0.2296,1.02207 20.788654,20.788654 0 0 1 0.2296,-1.02207 z m -0.3839,2.04301 a 20.788654,20.788654 0 0 0 -0.1255,1.03444 20.788654,20.788654 0 0 1 0.1255,-1.03444 z m -0.2141,2.80618 a 20.788654,20.788654 0 0 0 0.093,1.80606 20.788654,20.788654 0 0 1 -0.093,-1.80606 z m 0.1989,2.68095 a 20.788654,20.788654 0 0 0 0.1861,1.22018 20.788654,20.788654 0 0 1 -0.1861,-1.22018 z m 0.3512,1.95521 a 20.788654,20.788654 0 0 0 0.3394,1.32204 20.788654,20.788654 0 0 1 -0.3394,-1.32204 z m 0.535,1.91046 a 20.788654,20.788654 0 0 0 0.5144,1.40365 20.788654,20.788654 0 0 1 -0.5144,-1.40365 z m 0.7184,1.85925 a 20.788654,20.788654 0 0 0 0.7033,1.45093 20.788654,20.788654 0 0 1 -0.7033,-1.45093 z m 0.8954,1.7858 a 20.788654,20.788654 0 0 0 0.9039,1.47006 20.788654,20.788654 0 0 1 -0.9039,-1.47006 z m 1.0635,1.69322 a 20.788654,20.788654 0 0 0 1.111,1.45768 20.788654,20.788654 0 0 1 -1.111,-1.45768 z" style="opacity:1;fill:#795b91;fill-opacity:1;fill-rule:nonzero;stroke:none;stroke-width:0.01697025;stroke-linecap:round;stroke-linejoin:miter;stroke-miterlimit:4;stroke-dasharray:none;stroke-dashoffset:0;stroke-opacity:1;paint-order:stroke fill markers"/> <path id="circle5879" d="m -1121.5755,-894.1237 a 20.788654,20.788654 0 0 0 -20.7885,20.78858 20.788654,20.788654 0 0 0 6.2612,14.84274 l 14.645,-14.64492 14.7363,-14.73637 a 20.788654,20.788654 0 0 0 -14.854,-6.25003 z" style="opacity:1;fill:#906dad;fill-opacity:1;fill-rule:nonzero;stroke:none;stroke-width:0.01697025;stroke-linecap:round;stroke-linejoin:miter;stroke-miterlimit:4;stroke-dasharray:none;stroke-dashoffset:0;stroke-opacity:1;paint-order:stroke fill markers"/> <path id="path5887" d="m -1121.5753,-886.65517 c -2.2828,0 -4.1207,2.01509 -4.1207,4.51807 v 6.92051 h -0.1592 l -0.51,-0.48524 h -0.8491 v 0.48524 h -0.069 c -0.2576,0 -0.4651,0.20702 -0.4651,0.46457 v 0.015 c 0,0.25756 0.2075,0.46509 0.4651,0.46509 h 0.069 v 4.20905 c 0,1.49474 0.6164,2.83826 1.6067,3.79822 -0.015,-0.0145 -0.031,-0.0277 -0.046,-0.0424 v 0.002 l 3.1181,3.12746 v -1.63091 c 2e-4,2e-5 3e-4,-2e-5 6e-4,0 v 2.99981 h -3.2505 c -0.4249,0 -0.7674,0.34246 -0.7674,0.7674 v 1.02629 h 5e-4 l 7.2756,7.33082 a 20.788654,20.788654 0 0 0 17.8139,-15.45177 l -12.498,-12.49743 -4.6633,-4.66224 v 10e-4 c 0.029,0.0322 0.054,0.0677 0.082,0.10077 -0.7521,-0.89716 -1.8288,-1.46141 -3.0329,-1.46141 z m 3.1987,1.66605 c 0.034,0.0462 0.065,0.0955 0.098,0.14314 -0.033,-0.0477 -0.063,-0.0969 -0.098,-0.14314 z m 0.2305,0.34261 c 0.035,0.058 0.066,0.119 0.099,0.1788 -0.033,-0.0598 -0.064,-0.12089 -0.099,-0.1788 z m 0.2031,0.37001 c 0.032,0.0659 0.06,0.13479 0.089,0.20257 -0.029,-0.0677 -0.057,-0.13676 -0.089,-0.20257 z m 0.17,0.39119 c 0.035,0.091 0.063,0.18566 0.092,0.27957 -0.029,-0.0941 -0.058,-0.18847 -0.092,-0.27957 z m 0.1349,0.40824 c 0.037,0.12982 0.067,0.26226 0.092,0.39688 -0.026,-0.1345 -0.056,-0.26716 -0.092,-0.39688 z m 0.1,0.4284 c 0.055,0.29433 0.084,0.59949 0.084,0.91209 v 4.99659 1.9234 0 -6.92051 c 0,-0.31252 -0.029,-0.61724 -0.083,-0.91157 z m 1.6015,7.34684 h 5e-4 v 0.48524 h -5e-4 z m 0.3984,0.62115 c 0.084,0.084 0.1364,0.19974 0.1364,0.32866 v 0.015 c 0,0.0966 -0.029,0.18577 -0.079,0.25994 0.05,-0.0741 0.079,-0.1636 0.079,-0.25994 v -0.015 c 0,-0.12877 -0.052,-0.24463 -0.1359,-0.32866 z m -10.8267,0.80822 h 0.6692 v 5.3e-4 h -0.6692 z m 8.91,0 h 0.6693 v 5.3e-4 h -0.6693 z m 1.5183,5.3e-4 h 5e-4 v 4.20904 c 0,0.68256 -0.1278,1.33378 -0.3612,1.93167 0.2332,-0.59773 0.3607,-1.24934 0.3607,-1.93167 z m -9.7369,3.66695 c 0,0.052 0.015,0.10208 0.021,0.15348 -0.01,-0.0514 -0.016,-0.10153 -0.021,-0.15348 z m -0.6682,0.34727 c 0,0.0144 0,0.029 0,0.0434 0,-0.0144 0,-0.029 0,-0.0434 z m 0.7349,0.11834 c 0.01,0.0401 0.019,0.0786 0.027,0.11834 -0.01,-0.0397 -0.02,-0.0782 -0.027,-0.11834 z m -0.6672,0.34572 c 0,0.0234 0.01,0.047 0.014,0.0703 0,-0.0234 -0.01,-0.0468 -0.014,-0.0703 z m 0.7742,0.0987 c 0.011,0.0379 0.025,0.0741 0.037,0.11162 -0.012,-0.0375 -0.026,-0.0737 -0.037,-0.11162 z m -0.6631,0.35295 c 0.01,0.0315 0.019,0.0628 0.029,0.0941 -0.01,-0.0313 -0.02,-0.0625 -0.029,-0.0941 z m 0.8103,0.0754 c 0.043,0.10854 0.089,0.2155 0.1396,0.31936 -0.048,-0.0983 -0.092,-0.19879 -0.1334,-0.30128 0,-0.006 0,-0.0122 -0.01,-0.0181 z m -0.6495,0.37723 c 0.01,0.0252 0.022,0.0499 0.033,0.0749 -0.011,-0.025 -0.022,-0.0497 -0.033,-0.0749 z m 0.8542,0.0651 c 0.037,0.0715 0.076,0.14193 0.1168,0.21085 -0.041,-0.0689 -0.079,-0.1394 -0.1168,-0.21085 z m -0.6796,0.30541 c 0.018,0.0348 0.035,0.0702 0.054,0.10439 -0.019,-0.0343 -0.036,-0.0696 -0.054,-0.10439 z m 0.8796,0.0398 c 0.043,0.0673 0.088,0.13291 0.1343,0.19741 -0.046,-0.0645 -0.091,-0.13008 -0.1343,-0.19741 z m 0.2103,0.30438 c 0.072,0.0938 0.1466,0.18423 0.2248,0.2713 -0.078,-0.0871 -0.1533,-0.17746 -0.2248,-0.2713 z m 8.4398,0.0439 c -0.2334,0.59764 -0.5718,1.14177 -0.9932,1.60972 0.4213,-0.46799 0.7599,-1.01206 0.9932,-1.60972 z m -9.2728,0.0522 c 0.022,0.0328 0.046,0.0639 0.068,0.0961 -0.023,-0.0322 -0.046,-0.0633 -0.068,-0.0961 z m 1.1425,0.26354 c 0.058,0.0606 0.1165,0.11989 0.1773,0.17674 -0.061,-0.0569 -0.1197,-0.11609 -0.1773,-0.17674 z m -0.8991,0.0672 c 0.03,0.0374 0.06,0.0746 0.091,0.11111 -0.031,-0.0365 -0.061,-0.0736 -0.091,-0.11111 z m 1.1766,0.20103 c 0.069,0.0607 0.1402,0.11839 0.2129,0.17415 -0.073,-0.0558 -0.1438,-0.11349 -0.2129,-0.17415 z m -0.863,0.15554 c 0.016,0.0168 0.032,0.0346 0.049,0.0512 -0.017,-0.0166 -0.032,-0.0343 -0.049,-0.0512 z m 1.1467,0.0744 c 0.097,0.0707 0.1966,0.13668 0.2987,0.19843 -0.1021,-0.0618 -0.2021,-0.12763 -0.2987,-0.19843 z m 4.2587,0.21549 c -0.2336,0.13878 -0.4806,0.25384 -0.739,0.34158 -0.3875,0.13161 -0.7998,0.20257 -1.2278,0.20257 -0.1302,0 -0.2585,-0.009 -0.3855,-0.0217 0.1269,0.0128 0.2554,0.0212 0.3855,0.0212 0.428,0 0.8403,-0.0704 1.2278,-0.20206 0.2584,-0.0877 0.5054,-0.2028 0.739,-0.34158 z m -5.0633,0.0279 c 0.032,0.0269 0.065,0.0525 0.098,0.0785 -0.033,-0.0261 -0.066,-0.0516 -0.098,-0.0785 z m 1.1891,0.004 c 0.081,0.0463 0.1634,0.0898 0.2475,0.13022 -0.084,-0.0405 -0.1665,-0.0839 -0.2475,-0.13022 z m 0.34,0.17415 c 0.098,0.044 0.198,0.0841 0.2998,0.11989 -0.1018,-0.0358 -0.2017,-0.0758 -0.2998,-0.11989 z m -1.1932,0.0791 c 0.034,0.0241 0.068,0.0487 0.1034,0.0718 -0.035,-0.0232 -0.069,-0.0478 -0.1034,-0.0718 z m 1.541,0.0594 c 0.1156,0.039 0.2342,0.0708 0.354,0.0987 -0.1199,-0.0279 -0.2383,-0.0597 -0.354,-0.0987 z m 0.446,0.11782 c 0.096,0.02 0.1941,0.0361 0.293,0.0486 -0.099,-0.0125 -0.1965,-0.0286 -0.293,-0.0486 z m -1.5457,0.0997 c 0.025,0.0138 0.052,0.0254 0.077,0.0388 -0.025,-0.0133 -0.052,-0.025 -0.077,-0.0388 z m 6.6027,0.0191 c -0.1055,0.11711 -0.2162,0.22919 -0.3317,0.33641 0.1154,-0.10716 0.2263,-0.21938 0.3317,-0.33641 z m -6.2223,0.16536 c 0.037,0.0162 0.075,0.0318 0.1121,0.047 -0.038,-0.0153 -0.075,-0.0308 -0.1121,-0.047 z m 0.4217,0.1602 c 0.031,0.01 0.061,0.0216 0.092,0.031 -0.031,-0.009 -0.061,-0.0209 -0.092,-0.031 z m 2.9657,0.0243 c -0.1494,0.0463 -0.3014,0.0857 -0.4569,0.1173 0.1552,-0.0316 0.3077,-0.0711 0.4569,-0.1173 z m -5.2865,0.0832 c 0.047,0.0416 0.095,0.0825 0.1441,0.12247 -0.049,-0.0399 -0.097,-0.0809 -0.1441,-0.12247 z m 2.8127,0.0258 c 0.035,0.007 0.071,0.0125 0.106,0.0191 -0.035,-0.007 -0.071,-0.0117 -0.106,-0.0191 z m 0.4346,0.0692 c 0.042,0.005 0.083,0.01 0.1251,0.0134 -0.042,-0.004 -0.083,-0.009 -0.1251,-0.0134 z m -2.9026,0.18345 c 0.054,0.0396 0.1081,0.0781 0.1632,0.11576 -0.055,-0.0377 -0.1096,-0.0761 -0.1632,-0.11576 z m 0.3751,0.25322 c 0.058,0.0358 0.1179,0.0698 0.1778,0.10335 -0.06,-0.0336 -0.1194,-0.0675 -0.1778,-0.10335 z m 6.2131,0.0139 c -0.185,0.11223 -0.3776,0.21252 -0.5767,0.30179 0.1991,-0.0893 0.3917,-0.18954 0.5767,-0.30179 z m -5.8219,0.20413 c 0.066,0.0332 0.1339,0.0641 0.2015,0.0946 -0.068,-0.0305 -0.1353,-0.0613 -0.2015,-0.0946 z m 0.4165,0.1881 c 0.073,0.029 0.1477,0.0543 0.2222,0.0801 -0.074,-0.0258 -0.1493,-0.0511 -0.2222,-0.0801 z m 0.4326,0.15141 c 0.091,0.0272 0.1838,0.0484 0.2764,0.0708 -0.093,-0.0224 -0.1857,-0.0436 -0.2764,-0.0708 z m 0.4516,0.1142 c 0.1195,0.0246 0.2415,0.0425 0.3638,0.0589 -0.1224,-0.0164 -0.2442,-0.0343 -0.3638,-0.0589 z m 2.3673,0.0775 c 2e-4,-2e-5 3e-4,2e-5 5e-4,0 v 2.99775 h -5e-4 z m 3.406,3.01322 c 0.1,0.0204 0.1924,0.0603 0.2739,0.11524 -0.082,-0.055 -0.174,-0.0948 -0.2739,-0.11524 z m 0.3876,0.20877 c 0.1388,0.13868 0.2248,0.33051 0.2248,0.54312 v 1.02629 h -6e-4 v -1.02629 c 0,-0.21247 -0.086,-0.40446 -0.2242,-0.54312 z" style="opacity:0.5;fill:#000000;stroke:none;stroke-width:0.00848512px;stroke-linecap:butt;stroke-linejoin:miter;stroke-opacity:1"/> <path id="rect5826" d="m -1121.5755,-886.65497 c -2.2829,0 -4.1207,2.01499 -4.1207,4.51797 v 6.92034 h -0.6689 v -0.48515 h -0.849 v 0.48515 h -0.069 c -0.2575,0 -0.4652,0.20733 -0.4652,0.46488 v 0.0147 c 0,0.25755 0.2077,0.46488 0.4652,0.46488 h 0.069 v 4.20927 c 0,2.72395 2.0383,4.95298 4.679,5.25441 v 3.00007 h -3.2506 c -0.4249,0 -0.7671,0.34217 -0.7671,0.76711 v 1.02629 h 9.9362 v -1.02629 c 0,-0.42494 -0.3422,-0.76711 -0.7671,-0.76711 h -3.2505 v -2.99782 c 2.6495,-0.29316 4.6972,-2.5264 4.6972,-5.25666 v -4.20927 h 0.069 c 0.2575,0 0.4649,-0.20733 0.4649,-0.46488 v -0.0147 c 0,-0.25755 -0.2074,-0.46488 -0.4649,-0.46488 h -0.069 v -0.48515 h -0.849 v 0.48515 h -0.6689 v -6.92034 c 0,-2.50298 -1.8378,-4.51797 -4.1206,-4.51797 z m -4.7896,12.38271 h 0.6689 v 3.19676 c 0,2.50298 1.8378,4.51797 4.1207,4.51797 2.2828,0 4.1206,-2.01499 4.1206,-4.51797 v -3.19676 h 0.6689 v 3.55584 c 0,2.6367 -2.1227,4.75941 -4.7594,4.75941 h -0.06 c -2.6367,0 -4.7594,-2.12271 -4.7594,-4.75941 z" style="opacity:1;fill:#ffffff;fill-opacity:1;fill-rule:nonzero;stroke:none;stroke-width:0.01697025;stroke-linecap:round;stroke-linejoin:miter;stroke-miterlimit:4;stroke-dasharray:none;stroke-dashoffset:0;stroke-opacity:1;paint-order:stroke fill markers"/> </g> </g> </svg>