<?xml version='1.0' encoding='utf-8'?>
<svg xmlns="http://www.w3.org/2000/svg" width="5000" height="5000" viewBox="0 0 1322.9166 1322.9167" version="1.1" id="svg8"> <defs id="defs2"/> <metadata id="metadata5"> </metadata> <g id="layer1" transform="translate(0,1025.9167)"> <g transform="matrix(31.182028,0,0,31.182028,4456.4399,-3789.321)" id="g7314" style="stroke-width:0.03206975"> <path style="opacity:1;fill:#b33e27;fill-opacity:1;fill-rule:nonzero;stroke:none;stroke-width:0.01697024;stroke-linecap:round;stroke-linejoin:miter;stroke-miterlimit:4;stroke-dasharray:none;stroke-dashoffset:0;stroke-opacity:1;paint-order:stroke fill markers" d="m -121.70418,89.04587 a 20.788654,20.788654 0 0 0 -1.7723,0.0886 20.788654,20.788654 0 0 1 1.7723,-0.0886 z m 2.0298,0.10159 a 20.788654,20.788654 0 0 1 1.2627,0.18601 20.788654,20.788654 0 0 0 -1.2627,-0.18601 z m -4.8295,0.11172 a 20.788654,20.788654 0 0 0 -1.0313,0.15562 20.788654,20.788654 0 0 1 1.0313,-0.15562 z m 6.877,0.19304 a 20.788654,20.788654 0 0 1 1.3871,0.34866 20.788654,20.788654 0 0 0 -1.3871,-0.34866 z m -8.9211,0.19023 a 20.788654,20.788654 0 0 0 -1.0043,0.25636 20.788654,20.788654 0 0 1 1.0043,-0.25636 z m 10.9315,0.31743 a 20.788654,20.788654 0 0 1 1.4416,0.52032 20.788654,20.788654 0 0 0 -1.4416,-0.52032 z m -12.9227,0.26677 a 20.788654,20.788654 0 0 0 -0.9757,0.35598 20.788654,20.788654 0 0 1 0.9757,-0.35598 z m 14.8728,0.43899 a 20.788654,20.788654 0 0 1 1.5188,0.72689 20.788654,20.788654 0 0 0 -1.5188,-0.72689 z m -16.7934,0.33995 a 20.788654,20.788654 0 0 0 -0.9385,0.45363 20.788654,20.788654 0 0 1 0.9385,-0.45363 z m 18.6617,0.55578 a 20.788654,20.788654 0 0 1 1.5235,0.92612 20.788654,20.788654 0 0 0 -1.5235,-0.92612 z m -20.499,0.41338 a 20.788654,20.788654 0 0 0 -0.8864,0.54341 20.788654,20.788654 0 0 1 0.8864,-0.54341 z m 22.2713,0.66554 a 20.788654,20.788654 0 0 1 1.4881,1.12225 20.788654,20.788654 0 0 0 -1.4881,-1.12225 z m -23.9994,0.4798 a 20.788654,20.788654 0 0 0 -0.831,0.63175 20.788654,20.788654 0 0 1 0.831,-0.63175 z m 25.6555,0.77021 a 20.788654,20.788654 0 0 1 1.5063,1.39324 20.788654,20.788654 0 0 0 -1.5063,-1.39324 z m -27.2618,0.54255 a 20.788654,20.788654 0 0 0 -0.7649,0.71281 20.788654,20.788654 0 0 1 0.7649,-0.71281 z m 28.7813,0.86307 -14.7363,14.73648 -14.645,14.64499 a 20.788654,20.788654 0 0 0 14.5273,5.94583 20.788654,20.788654 0 0 0 20.7886,-20.78865 20.788654,20.788654 0 0 0 -5.9346,-14.53865 z m -29.3813,29.38147 a 20.788654,20.788654 0 0 1 -1.264,-1.3592 20.788654,20.788654 0 0 0 1.264,1.3592 z m -0.8681,-28.777 a 20.788654,20.788654 0 0 0 -0.6894,0.78485 20.788654,20.788654 0 0 1 0.6894,-0.78485 z m -1.3136,1.60599 a 20.788654,20.788654 0 0 0 -0.6084,0.8507 20.788654,20.788654 0 0 1 0.6084,-0.8507 z m -1.1481,1.73095 a 20.788654,20.788654 0 0 0 -0.5195,0.90556 20.788654,20.788654 0 0 1 0.5195,-0.90556 z m -0.9678,1.83364 a 20.788654,20.788654 0 0 0 -0.428,0.95651 20.788654,20.788654 0 0 1 0.428,-0.95651 z m -0.78,1.92089 a 20.788654,20.788654 0 0 0 -0.3313,0.99618 20.788654,20.788654 0 0 1 0.3313,-0.99618 z m -0.5856,1.99349 a 20.788654,20.788654 0 0 0 -0.2297,1.02207 20.788654,20.788654 0 0 1 0.2297,-1.02207 z m -0.3839,2.04302 a 20.788654,20.788654 0 0 0 -0.1255,1.03444 20.788654,20.788654 0 0 1 0.1255,-1.03444 z m -0.2141,2.8062 a 20.788654,20.788654 0 0 0 0.093,1.80606 20.788654,20.788654 0 0 1 -0.093,-1.80606 z m 0.1989,2.68096 a 20.788654,20.788654 0 0 0 0.186,1.22019 20.788654,20.788654 0 0 1 -0.186,-1.22019 z m 0.3512,1.95522 a 20.788654,20.788654 0 0 0 0.3394,1.32205 20.788654,20.788654 0 0 1 -0.3394,-1.32205 z m 0.535,1.91047 a 20.788654,20.788654 0 0 0 0.5144,1.40366 20.788654,20.788654 0 0 1 -0.5144,-1.40366 z m 0.7184,1.85926 a 20.788654,20.788654 0 0 0 0.7032,1.45094 20.788654,20.788654 0 0 1 -0.7032,-1.45094 z m 0.8954,1.78581 a 20.788654,20.788654 0 0 0 0.9039,1.47007 20.788654,20.788654 0 0 1 -0.9039,-1.47007 z m 1.0635,1.69323 a 20.788654,20.788654 0 0 0 1.1109,1.45769 20.788654,20.788654 0 0 1 -1.1109,-1.45769 z" id="path5294"/> <path style="opacity:1;fill:#e04e26;fill-opacity:1;fill-rule:nonzero;stroke:none;stroke-width:0.01697024;stroke-linecap:round;stroke-linejoin:miter;stroke-miterlimit:4;stroke-dasharray:none;stroke-dashoffset:0;stroke-opacity:1;paint-order:stroke fill markers" d="m -121.70408,89.04579 a 20.788654,20.788654 0 0 0 -20.7886,20.7887 20.788654,20.788654 0 0 0 6.2613,14.84282 l 14.6449,-14.645 14.7364,-14.73646 a 20.788654,20.788654 0 0 0 -14.854,-6.25006 z" id="path5296"/> <path id="path6279" d="m -119.35898,99.64272 a 5.8505624,5.9472658 0 0 0 -5.5847,4.17804 2.8285773,2.7560498 0 0 0 -1.9823,-0.79323 2.8285773,2.7560498 0 0 0 -2.8287,2.75591 2.8285773,2.7560498 0 0 0 0.1105,0.75964 h -0.015 l 6.1e-4,0.006 a 4.6175927,4.6417685 0 0 0 -4.0608,4.60178 4.6175927,4.6417685 0 0 0 1.1317,3.04013 v 0.002 l 0.055,0.0548 a 4.6175927,4.6417685 0 0 0 0.3633,0.36329 l 3.0045,3.00391 12.391,12.39097 a 20.788654,20.788654 0 0 0 15.1887,-14.98616 l -12.4923,-12.49226 -1.1265,-1.12655 v 0.003 a 5.8505624,5.9472658 0 0 0 -4.14861,-1.75971 z" style="opacity:0.5;fill:#000000;stroke:none;stroke-width:0.00848512px;stroke-linecap:butt;stroke-linejoin:miter;stroke-opacity:1"/> <path style="opacity:1;fill:#ffffff;fill-opacity:1;fill-rule:nonzero;stroke:none;stroke-width:0.00541883;stroke-linecap:square;stroke-linejoin:miter;stroke-miterlimit:4;stroke-dasharray:none;stroke-dashoffset:0;stroke-opacity:1;paint-order:stroke fill markers" d="m -119.35898,99.64298 a 5.8505624,5.9472658 0 0 0 -5.5849,4.17787 2.8285773,2.7560498 0 0 0 -1.9822,-0.79343 2.8285773,2.7560498 0 0 0 -2.8286,2.75625 2.8285773,2.7560498 0 0 0 0.1106,0.75921 h -0.016 l 2.9e-4,0.006 a 4.6175927,4.6417685 0 0 0 -4.0603,4.60187 4.6175927,4.6417685 0 0 0 4.6179,4.64192 h 14.7956 a 4.6175927,4.6417685 0 0 0 4.6175,-4.64192 4.6175927,4.6417685 0 0 0 -3.9067,-4.5804 5.8505624,5.9472658 0 0 0 0.087,-0.98014 5.8505624,5.9472658 0 0 0 -5.8506,-5.94706 z" id="path6258"/> </g> </g> </svg>