<?xml version='1.0' encoding='utf-8'?>
<svg xmlns="http://www.w3.org/2000/svg" width="5000" height="5000" viewBox="0 0 1322.9166 1322.9167" version="1.1" id="svg8"> <defs id="defs2"/> <metadata id="metadata5"> </metadata> <g id="layer1" transform="translate(0,1025.9167)"> <g transform="matrix(31.181998,0,0,31.181998,-12.600864,-2305.7687)" id="g6918" style="stroke-width:0.03206979"> <path id="path7532" d="m 21.616944,41.46887 a 20.788654,20.788654 0 0 0 -1.77231,0.0886 20.788654,20.788654 0 0 1 1.77231,-0.0886 z m 2.02978,0.101592 a 20.788654,20.788654 0 0 1 1.26265,0.18601 20.788654,20.788654 0 0 0 -1.26265,-0.18601 z m -4.8295,0.11172 a 20.788654,20.788654 0 0 0 -1.03135,0.15562 20.788654,20.788654 0 0 1 1.03135,-0.15562 z m 6.87699,0.19304 a 20.788654,20.788654 0 0 1 1.38707,0.34866 20.788654,20.788654 0 0 0 -1.38707,-0.34866 z m -8.92112,0.190228 a 20.788654,20.788654 0 0 0 -1.00434,0.25636 20.788654,20.788654 0 0 1 1.00434,-0.25636 z m 10.93148,0.317431 a 20.788654,20.788654 0 0 1 1.44166,0.520319 20.788654,20.788654 0 0 0 -1.44166,-0.520319 z m -12.92271,0.266769 a 20.788654,20.788654 0 0 0 -0.97563,0.355981 20.788654,20.788654 0 0 1 0.97563,-0.355981 z m 14.87287,0.438991 a 20.788654,20.788654 0 0 1 1.51875,0.726879 20.788654,20.788654 0 0 0 -1.51875,-0.726879 z m -16.79347,0.33994 a 20.788654,20.788654 0 0 0 -0.93848,0.45363 20.788654,20.788654 0 0 1 0.93848,-0.45363 z m 18.66172,0.555781 a 20.788654,20.788654 0 0 1 1.52353,0.92611 20.788654,20.788654 0 0 0 -1.52353,-0.92611 z m -20.49901,0.413379 a 20.788654,20.788654 0 0 0 -0.88642,0.543399 20.788654,20.788654 0 0 1 0.88642,-0.543399 z m 22.27131,0.665531 a 20.788654,20.788654 0 0 1 1.48807,1.122248 20.788654,20.788654 0 0 0 -1.48807,-1.122248 z m -23.9994102,0.4798 a 20.788654,20.788654 0 0 0 -0.831,0.631749 20.788654,20.788654 0 0 1 0.831,-0.631749 z m 25.6554802,0.7702 a 20.788654,20.788654 0 0 1 1.50637,1.39324 20.788654,20.788654 0 0 0 -1.50637,-1.39324 z M 7.6895938,46.855821 a 20.788654,20.788654 0 0 0 -0.76486,0.712811 20.788654,20.788654 0 0 1 0.76486,-0.712811 z M 36.470934,47.718892 21.734564,62.455281 7.0896438,77.100191 A 20.788654,20.788654 0 0 0 21.616944,83.04602 20.788654,20.788654 0 0 0 42.405504,62.257452 20.788654,20.788654 0 0 0 36.470934,47.718892 Z M 7.0896438,77.100191 a 20.788654,20.788654 0 0 1 -1.26409,-1.359188 20.788654,20.788654 0 0 0 1.26409,1.359188 z m -0.86813,-28.776829 a 20.788654,20.788654 0 0 0 -0.68946,0.784838 20.788654,20.788654 0 0 1 0.68946,-0.784838 z m -1.31362,1.605978 a 20.788654,20.788654 0 0 0 -0.60839,0.850691 20.788654,20.788654 0 0 1 0.60839,-0.850691 z m -1.14813,1.730931 a 20.788654,20.788654 0 0 0 -0.51947,0.90556 20.788654,20.788654 0 0 1 0.51947,-0.90556 z m -0.96775,1.833639 a 20.788654,20.788654 0 0 0 -0.42802,0.9565 20.788654,20.788654 0 0 1 0.42802,-0.9565 z m -0.78006,1.920872 a 20.788654,20.788654 0 0 0 -0.33122,0.99618 20.788654,20.788654 0 0 1 0.33122,-0.99618 z m -0.5856,1.99348 a 20.788654,20.788654 0 0 0 -0.22963,1.022069 20.788654,20.788654 0 0 1 0.22963,-1.022069 z m -0.38384,2.043009 A 20.788654,20.788654 0 0 0 0.91700379,60.485712 20.788654,20.788654 0 0 1 1.0425138,59.451271 Z m -0.21415001,2.806181 a 20.788654,20.788654 0 0 0 0.0929,1.806059 20.788654,20.788654 0 0 1 -0.0929,-1.806059 z m 0.19895001,2.680949 a 20.788654,20.788654 0 0 0 0.18601,1.220179 20.788654,20.788654 0 0 1 -0.18601,-1.220179 z m 0.3512,1.95521 a 20.788654,20.788654 0 0 0 0.33936,1.322041 20.788654,20.788654 0 0 1 -0.33936,-1.322041 z m 0.53495,1.910461 a 20.788654,20.788654 0 0 0 0.51441,1.403649 20.788654,20.788654 0 0 1 -0.51441,-1.403649 z m 0.71843,1.859248 a 20.788654,20.788654 0 0 0 0.70324,1.45093 20.788654,20.788654 0 0 1 -0.70324,-1.45093 z m 0.89542,1.7858 a 20.788654,20.788654 0 0 0 0.90388,1.470062 20.788654,20.788654 0 0 1 -0.90388,-1.470062 z m 1.06344,1.693223 a 20.788654,20.788654 0 0 0 1.11098,1.457679 20.788654,20.788654 0 0 1 -1.11098,-1.457679 z" style="opacity:1;fill:#007385;fill-opacity:1;fill-rule:nonzero;stroke:none;stroke-width:0.01697026;stroke-linecap:round;stroke-linejoin:miter;stroke-miterlimit:4;stroke-dasharray:none;stroke-dashoffset:0;stroke-opacity:1;paint-order:stroke fill markers"/> <path id="path7534" d="M 21.617014,41.468791 A 20.788654,20.788654 0 0 0 0.82843379,62.25737 20.788654,20.788654 0 0 0 7.0897138,77.100112 L 21.734644,62.455191 36.471024,47.71882 a 20.788654,20.788654 0 0 0 -14.85401,-6.250029 z" style="opacity:1;fill:#0095a6;fill-opacity:1;fill-rule:nonzero;stroke:none;stroke-width:0.01697026;stroke-linecap:round;stroke-linejoin:miter;stroke-miterlimit:4;stroke-dasharray:none;stroke-dashoffset:0;stroke-opacity:1;paint-order:stroke fill markers"/> <path id="circle7612" d="M 21.616784,50.13363 A 12.123959,12.123959 0 0 0 9.4929938,62.257442 12.123959,12.123959 0 0 0 13.212654,70.977323 l -0.009,0.009 11.76259,11.762597 a 20.788654,20.788654 0 0 0 17.15761,-17.128156 l -11.77757,-11.777059 -0.002,0.0021 a 12.123959,12.123959 0 0 0 -8.72763,-3.711908 z" style="opacity:0.5;fill:#000000;fill-opacity:1;fill-rule:nonzero;stroke:none;stroke-width:0.00093002;stroke-linecap:round;stroke-linejoin:round;stroke-miterlimit:4;stroke-dasharray:none;stroke-dashoffset:0;stroke-opacity:1;paint-order:markers stroke fill"/> <path id="path7558" d="M 21.616784,50.13363 A 12.123959,12.123959 0 0 0 9.4929938,62.257442 12.123959,12.123959 0 0 0 21.616784,74.381761 12.123959,12.123959 0 0 0 33.741114,62.257442 12.123959,12.123959 0 0 0 21.616784,50.13363 Z m -1.89599,1.190112 a 11.123541,11.123546 0 0 1 0.003,0 c -0.99907,0.629589 -1.82476,1.731118 -2.45308,3.064928 -0.37816,0.802762 -0.69546,1.709341 -0.94412,2.69286 -0.98348,0.248672 -1.88859,0.564431 -2.69131,0.94257 -1.26551,0.596162 -2.31956,1.371452 -2.96313,2.302712 a 11.123541,11.123546 0 0 1 9.04855,-9.00307 z m 3.80338,0.0145 a 11.123541,11.123546 0 0 1 9.03718,9.001519 c -0.64219,-0.937159 -1.69993,-1.716669 -2.9714,-2.31562 -0.80234,-0.37796 -1.70886,-0.69396 -2.69287,-0.942578 -0.24867,-0.98352 -0.56392,-1.890101 -0.94205,-2.69286 -0.62273,-1.32189 -1.44144,-2.41807 -2.43086,-3.050461 z m -1.90893,1.073319 c 0.927,0 1.99029,0.877372 2.84013,2.681492 0.22883,0.485748 0.43419,1.032309 0.61548,1.622639 -1.09441,-0.16692 -2.2556,-0.25735 -3.46182,-0.25735 -1.20511,0 -2.36321,0.0907 -3.45559,0.25735 0.18129,-0.59033 0.38817,-1.136891 0.61702,-1.622639 0.84984,-1.80412 1.91777,-2.681492 2.84478,-2.681492 z m 0,5.70456 c 1.38017,0 2.69301,0.131511 3.88814,0.359672 0.22791,1.19471 0.35915,2.508589 0.35915,3.888129 0,1.381471 -0.13267,2.694709 -0.36122,3.890721 -1.19472,0.229399 -2.50649,0.362771 -3.88607,0.362771 -1.38077,0 -2.69577,-0.132951 -3.89278,-0.362771 -0.2286,-1.196012 -0.3607,-2.50925 -0.3607,-3.890721 0,-1.37954 0.13119,-2.693419 0.35915,-3.888129 1.19743,-0.228582 2.51297,-0.359672 3.89433,-0.359672 z m -5.65443,0.792202 c -0.16666,1.092298 -0.25735,2.250588 -0.25735,3.455599 0,1.204449 0.0909,2.36212 0.25735,3.45509 -0.59032,-0.1818 -1.13739,-0.38636 -1.62264,-0.61495 -1.80409,-0.8499 -2.67994,-1.91312 -2.67994,-2.84014 0,-0.926979 0.87585,-1.990789 2.67994,-2.840649 0.48525,-0.2286 1.03232,-0.43379 1.62264,-0.61495 z m 11.30267,0 c 0.59023,0.181258 1.13645,0.386159 1.62212,0.61495 1.80411,0.84986 2.68149,1.91367 2.68149,2.840649 0,0.92702 -0.87738,1.99024 -2.68149,2.84014 -0.48567,0.22878 -1.03189,0.433041 -1.62212,0.61495 0.16655,-1.09297 0.25735,-2.250641 0.25735,-3.45509 0,-1.205011 -0.0907,-2.363301 -0.25735,-3.455599 z m 5.25911,5.527829 a 11.123541,11.123546 0 0 1 -8.7049,8.741071 c 0.85702,-0.64965 1.57714,-1.644761 2.13734,-2.833942 0.37856,-0.80364 0.69533,-1.711618 0.94413,-2.697509 0.9829,-0.248621 1.88845,-0.566168 2.69079,-0.944131 1.24821,-0.587989 2.28707,-1.351687 2.93264,-2.265489 z m -21.81159,0.015 c 0.64681,0.907508 1.68256,1.665529 2.92437,2.250509 0.80188,0.37777 1.70638,0.695579 2.68976,0.944131 0.2488,0.985899 0.56709,1.893859 0.94567,2.69751 0.5645,1.198329 1.29293,2.199319 2.16008,2.848401 a 11.123541,11.123546 0 0 1 -8.71988,-8.740551 z m 7.44244,3.560509 c 1.09484,0.16719 2.25501,0.25735 3.4618,0.25735 1.20509,0 2.36324,-0.0907 3.45561,-0.25735 -0.18128,0.590251 -0.38667,1.136941 -0.61548,1.622639 -0.84984,1.804112 -1.91933,2.679941 -2.84634,2.679941 -0.92702,0 -1.98873,-0.875829 -2.83857,-2.679941 -0.22881,-0.485698 -0.43577,-1.032388 -0.61702,-1.622639 z" style="opacity:1;fill:#ffffff;fill-opacity:1;fill-rule:nonzero;stroke:none;stroke-width:0.00093002;stroke-linecap:round;stroke-linejoin:round;stroke-miterlimit:4;stroke-dasharray:none;stroke-dashoffset:0;stroke-opacity:1;paint-order:markers stroke fill"/> </g> </g> </svg>