<?xml version='1.0' encoding='utf-8'?>
<svg xmlns="http://www.w3.org/2000/svg" width="5000" height="5000" viewBox="0 0 1322.9166 1322.9167" version="1.1" id="svg8"> <defs id="defs2"/> <metadata id="metadata5"> </metadata> <g id="layer1" transform="translate(0,1025.9167)"> <g transform="matrix(31.181949,0,0,31.181949,2966.7548,-2305.7656)" id="g7384" style="stroke-width:0.03206984"> <path id="path5286" d="m -73.930481,41.46887 a 20.788654,20.788654 0 0 0 -1.772301,0.0886 20.788654,20.788654 0 0 1 1.772301,-0.0886 z m 2.029801,0.101592 a 20.788654,20.788654 0 0 1 1.2627,0.18601 20.788654,20.788654 0 0 0 -1.2627,-0.18601 z m -4.829501,0.11172 a 20.788654,20.788654 0 0 0 -1.031401,0.15562 20.788654,20.788654 0 0 1 1.031401,-0.15562 z m 6.877,0.19304 a 20.788654,20.788654 0 0 1 1.387099,0.34866 20.788654,20.788654 0 0 0 -1.387099,-0.34866 z m -8.921102,0.190228 a 20.788654,20.788654 0 0 0 -1.004398,0.25636 20.788654,20.788654 0 0 1 1.004398,-0.25636 z m 10.931502,0.317431 a 20.788654,20.788654 0 0 1 1.4416,0.520319 20.788654,20.788654 0 0 0 -1.4416,-0.520319 z m -12.922801,0.266769 a 20.788654,20.788654 0 0 0 -0.975601,0.355981 20.788654,20.788654 0 0 1 0.975601,-0.355981 z m 14.872901,0.438991 a 20.788654,20.788654 0 0 1 1.518799,0.726879 20.788654,20.788654 0 0 0 -1.518799,-0.726879 z m -16.793501,0.33994 a 20.788654,20.788654 0 0 0 -0.9384,0.45363 20.788654,20.788654 0 0 1 0.9384,-0.45363 z m 18.661801,0.555781 a 20.788654,20.788654 0 0 1 1.5235,0.92611 20.788654,20.788654 0 0 0 -1.5235,-0.92611 z m -20.499001,0.413379 a 20.788654,20.788654 0 0 0 -0.8865,0.543399 20.788654,20.788654 0 0 1 0.8865,-0.543399 z m 22.271302,0.665531 a 20.788654,20.788654 0 0 1 1.487998,1.122248 20.788654,20.788654 0 0 0 -1.487998,-1.122248 z m -23.999402,0.4798 a 20.788654,20.788654 0 0 0 -0.831,0.631749 20.788654,20.788654 0 0 1 0.831,-0.631749 z m 25.6554,0.7702 a 20.788654,20.788654 0 0 1 1.5064,1.39324 20.788654,20.788654 0 0 0 -1.5064,-1.39324 z m -27.261698,0.542549 a 20.788654,20.788654 0 0 0 -0.7649,0.712811 20.788654,20.788654 0 0 1 0.7649,-0.712811 z m 28.781298,0.863071 -14.7364,14.736389 -14.644899,14.64491 a 20.788654,20.788654 0 0 0 14.5273,5.945829 20.788654,20.788654 0 0 0 20.788605,-20.788568 20.788654,20.788654 0 0 0 -5.934606,-14.53856 z m -29.381299,29.381299 a 20.788654,20.788654 0 0 1 -1.2641,-1.359188 20.788654,20.788654 0 0 0 1.2641,1.359188 z m -0.868101,-28.776829 a 20.788654,20.788654 0 0 0 -0.689499,0.784838 20.788654,20.788654 0 0 1 0.689499,-0.784838 z m -1.313601,1.605978 a 20.788654,20.788654 0 0 0 -0.608398,0.850691 20.788654,20.788654 0 0 1 0.608398,-0.850691 z m -1.148199,1.730931 a 20.788654,20.788654 0 0 0 -0.5194,0.90556 20.788654,20.788654 0 0 1 0.5194,-0.90556 z m -0.9677,1.833639 a 20.788654,20.788654 0 0 0 -0.428,0.9565 20.788654,20.788654 0 0 1 0.428,-0.9565 z m -0.7801,1.920872 a 20.788654,20.788654 0 0 0 -0.3312,0.99618 20.788654,20.788654 0 0 1 0.3312,-0.99618 z m -0.5856,1.99348 a 20.788654,20.788654 0 0 0 -0.2296,1.022069 20.788654,20.788654 0 0 1 0.2296,-1.022069 z m -0.383799,2.043009 a 20.788654,20.788654 0 0 0 -0.1255,1.034441 20.788654,20.788654 0 0 1 0.1255,-1.034441 z m -0.214201,2.806181 a 20.788654,20.788654 0 0 0 0.093,1.806059 20.788654,20.788654 0 0 1 -0.093,-1.806059 z m 0.199001,2.680949 a 20.788654,20.788654 0 0 0 0.185999,1.220179 20.788654,20.788654 0 0 1 -0.185999,-1.220179 z m 0.3512,1.95521 a 20.788654,20.788654 0 0 0 0.339399,1.322041 20.788654,20.788654 0 0 1 -0.339399,-1.322041 z m 0.5349,1.910461 a 20.788654,20.788654 0 0 0 0.514501,1.403649 20.788654,20.788654 0 0 1 -0.514501,-1.403649 z m 0.7185,1.859248 a 20.788654,20.788654 0 0 0 0.703199,1.45093 20.788654,20.788654 0 0 1 -0.703199,-1.45093 z m 0.8954,1.7858 a 20.788654,20.788654 0 0 0 0.903899,1.470062 20.788654,20.788654 0 0 1 -0.903899,-1.470062 z m 1.0634,1.693223 a 20.788654,20.788654 0 0 0 1.110999,1.457679 20.788654,20.788654 0 0 1 -1.110999,-1.457679 z" style="opacity:1;fill:#e49f15;fill-opacity:1;fill-rule:nonzero;stroke:none;stroke-width:0.01697029;stroke-linecap:round;stroke-linejoin:miter;stroke-miterlimit:4;stroke-dasharray:none;stroke-dashoffset:0;stroke-opacity:1;paint-order:stroke fill markers"/> <path id="path5288" d="m -73.930381,41.468791 a 20.788654,20.788654 0 0 0 -20.788601,20.788579 20.788654,20.788654 0 0 0 6.261301,14.842742 l 14.644899,-14.644921 14.7364,-14.736371 a 20.788654,20.788654 0 0 0 -14.853999,-6.250029 z" style="opacity:1;fill:#ffc20e;fill-opacity:1;fill-rule:nonzero;stroke:none;stroke-width:0.01697029;stroke-linecap:round;stroke-linejoin:miter;stroke-miterlimit:4;stroke-dasharray:none;stroke-dashoffset:0;stroke-opacity:1;paint-order:stroke fill markers"/> <path id="path6241" d="m -73.43158,52.260671 c -0.160902,-0.0011 -0.3272,0.005 -0.4987,0.0186 -0.117502,-0.009 -0.232701,-0.01511 -0.345202,-0.01759 -1.6876,-0.0364 -2.8228,0.699799 -3.590499,1.95131 -0.6828,1.997749 -0.082,2.70983 0,4.255029 -0.654601,0.2027 0.3728,3.317232 0.807199,3.10524 0.099,0.385421 0.150701,1.101151 0.6258,1.30793 l -0.045,0.955501 -0.136398,0.0455 -0.272802,0.910029 -0.318899,-0.13643 -0.8191,1.046451 -5.6906,2.319751 c -0.744501,0.520829 -0.769199,2.790018 -1.134301,4.232298 l 0.619602,0.619602 10.1669,10.166818 a 20.788654,20.788654 0 0 0 0.1338,0.005 20.788654,20.788654 0 0 0 19.456694,-13.49943 l -13.215195,-13.215214 -2.949202,-2.949181 c -0.028,-0.028 -0.055,-0.0561 -0.083,-0.0832 l -0.034,-0.0336 -0.0011,0.0021 c -0.677899,-0.635558 -1.549601,-0.998979 -2.6758,-1.006657 z" style="opacity:0.5;fill:#000000;stroke:none;stroke-width:0.00848514px;stroke-linecap:butt;stroke-linejoin:miter;stroke-opacity:1"/> <path id="path3852" d="m -74.275382,52.2617 c -1.6876,-0.0364 -2.823099,0.700061 -3.5908,1.951572 -0.6828,1.99775 -0.082,2.70932 0,4.254529 -0.654601,0.2027 0.3732,3.317442 0.807601,3.105449 0.099,0.385422 0.1506,1.10122 0.6258,1.308003 l -0.045,0.955579 -0.1367,0.0455 -0.273,0.910032 -0.3185,-0.13666 -0.818901,1.046678 -5.691,2.319401 c -0.7445,0.52083 -0.7693,2.790341 -1.134401,4.232619 h 10.920302 10.920301 c -0.365101,-1.442278 -0.389501,-3.711789 -1.134002,-4.232608 l -5.690999,-2.319412 -0.818901,-1.046678 -0.318598,0.13666 -0.272902,-0.910032 -0.1367,-0.0455 -0.045,-0.955579 c 0.475202,-0.206783 0.527301,-0.922581 0.6258,-1.308003 0.434401,0.211993 1.462201,-2.902749 0.807601,-3.105449 0.082,-1.545209 0.6828,-2.256779 0,-4.254529 -0.818901,-1.33495 -2.056601,-2.08366 -3.936,-1.93376 -0.117501,-0.009 -0.232399,-0.0154 -0.3449,-0.01781 z" style="fill:#ffffff;stroke:none;stroke-width:0.00208454;stroke-linecap:butt;stroke-linejoin:miter;stroke-miterlimit:4;stroke-dasharray:none;stroke-opacity:1"/> </g> </g> </svg>