<?xml version="1.0" encoding="UTF-8" standalone="no"?>
<!-- Created with Inkscape (http://www.inkscape.org/) -->
<svg
   xmlns:svg="http://www.w3.org/2000/svg"
   xmlns="http://www.w3.org/2000/svg"
   version="1.0"
   width="220"
   height="168"
   viewBox="0 0 220 168.001"
   id="svg1410"
   xml:space="preserve">
 <defs
   id="defs1412">
  <style
   type="text/css"
   id="style1414" />
 
  
  
  
  
  
  
 </defs>
 <rect
   width="143.037"
   height="33.704102"
   x="34.782398"
   y="67.970299"
   style="fill:#ccc;fill-opacity:1"
   id="rect1418" /><path
   d="M 177.87,134.236 C 121.6281,133.68797 117.1422,127.597 109.178,108.4442 C 100.02797,86.4355 80.7488,71.7602 34.7825,71.7602 L 34.7825,105.4643 C 57.5873,106.07729 67.1141,101.63279 87.8957,140.2207 C 102.0064,166.4224 138.6526,168.4444 177.87,167.9401 L 177.87,134.236 z "
   style="fill:#ccc;fill-opacity:1"
   id="path1420" /><path
   d="M 179.376,41.2135 C 127.6553,42.172559 118.1451,57.6025 106.3009,74.0329 C 95.0768,89.6058 80.7488,101.6743 34.7825,101.6743 L 34.7825,67.9702 C 57.5873,67.357206 74.9035,60.91781 89.104,39 C 105.2852,14.022 140.1585,7.005 179.376,7.5093 L 179.376,41.2134 L 179.376,41.2135 z "
   style="fill:#999;fill-opacity:1"
   id="path1422" /><circle
   cx="27.3332"
   cy="87.904999"
   r="27.3332"
   style="fill:#999;fill-opacity:1"
   id="circle1424" /><polygon
   points="176.499,0 220.001,24.4005 176.499,48.651 176.499,0 "
   style="fill:#999;fill-opacity:1"
   id="polygon1426" />
</svg>