<?xml version='1.0' encoding='utf-8'?>
<svg xmlns="http://www.w3.org/2000/svg" width="5000" height="5000" viewBox="0 0 1322.9166 1322.9167" version="1.1" id="svg8"> <defs id="defs2"/> <metadata id="metadata5"> </metadata> <g id="layer1" transform="translate(0,1025.9167)"> <g transform="matrix(31.182029,0,0,31.182029,1477.0781,-822.21947)" id="g7450" style="stroke-width:0.03206975"> <path id="path5264" d="m -26.156776,-6.1082485 a 20.788654,20.788654 0 0 0 -1.77231,0.0886 20.788654,20.788654 0 0 1 1.77231,-0.0886 z m 2.02979,0.10159 a 20.788654,20.788654 0 0 1 1.2627,0.18601 20.788654,20.788654 0 0 0 -1.2627,-0.18601 z m -4.8295,0.11172 a 20.788654,20.788654 0 0 0 -1.03129,0.15562 20.788654,20.788654 0 0 1 1.03129,-0.15562 z m 6.87701,0.19304 a 20.788654,20.788654 0 0 1 1.3871,0.34866 20.788654,20.788654 0 0 0 -1.3871,-0.34866 z m -8.92111,0.19023 a 20.788654,20.788654 0 0 0 -1.0044,0.25636 20.788654,20.788654 0 0 1 1.0044,-0.25636 z m 10.93151,0.31743 a 20.788654,20.788654 0 0 1 1.4416,0.52032 20.788654,20.788654 0 0 0 -1.4416,-0.52032 z m -12.9227,0.26677 a 20.788654,20.788654 0 0 0 -0.97571,0.35598 20.788654,20.788654 0 0 1 0.97571,-0.35598 z m 14.8728,0.438989 a 20.788654,20.788654 0 0 1 1.51879,0.72688 20.788654,20.788654 0 0 0 -1.51879,-0.72688 z m -16.7934,0.339941 a 20.788654,20.788654 0 0 0 -0.9385,0.45363 20.788654,20.788654 0 0 1 0.9385,-0.45363 z m 18.6617,0.55578 a 20.788654,20.788654 0 0 1 1.5235,0.92611 20.788654,20.788654 0 0 0 -1.5235,-0.92611 z m -20.499,0.41338 a 20.788654,20.788654 0 0 0 -0.8865,0.5434 20.788654,20.788654 0 0 1 0.8865,-0.5434 z m 22.27129,0.66553 a 20.788654,20.788654 0 0 1 1.48801,1.12225 20.788654,20.788654 0 0 0 -1.48801,-1.12225 z m -23.99939,0.4798 a 20.788654,20.788654 0 0 0 -0.83101,0.63175 20.788654,20.788654 0 0 1 0.83101,-0.63175 z m 25.6554,0.770199 a 20.788654,20.788654 0 0 1 1.50639,1.39324099 20.788654,20.788654 0 0 0 -1.50639,-1.39324099 z m -27.26171,0.54255099 a 20.788654,20.788654 0 0 0 -0.7649,0.71281 20.788654,20.788654 0 0 1 0.7649,-0.71281 z m 28.78131,0.86307 -14.7363,14.73638851 -14.645,14.64491 a 20.788654,20.788654 0 0 0 14.5273,5.94583 A 20.788654,20.788654 0 0 0 -5.3681762,14.680331 20.788654,20.788654 0 0 0 -11.302776,0.14177149 Z M -40.684076,29.52307 a 20.788654,20.788654 0 0 1 -1.26401,-1.359188 20.788654,20.788654 0 0 0 1.26401,1.359188 z m -0.8681,-28.77682851 a 20.788654,20.788654 0 0 0 -0.68941,0.78484001 20.788654,20.788654 0 0 1 0.68941,-0.78484001 z m -1.31361,1.60598001 a 20.788654,20.788654 0 0 0 -0.60839,0.85069 20.788654,20.788654 0 0 1 0.60839,-0.85069 z m -1.14809,1.73093 a 20.788654,20.788654 0 0 0 -0.51951,0.90556 20.788654,20.788654 0 0 1 0.51951,-0.90556 z m -0.9678,1.83364 a 20.788654,20.788654 0 0 0 -0.42801,0.9565 20.788654,20.788654 0 0 1 0.42801,-0.9565 z m -0.78,1.92087 a 20.788654,20.788654 0 0 0 -0.33131,0.99618 20.788654,20.788654 0 0 1 0.33131,-0.99618 z m -0.5857,1.99348 a 20.788654,20.788654 0 0 0 -0.2296,1.0220685 20.788654,20.788654 0 0 1 0.2296,-1.0220685 z m -0.3838,2.0430085 a 20.788654,20.788654 0 0 0 -0.12551,1.034441 20.788654,20.788654 0 0 1 0.12551,-1.034441 z m -0.2141,2.806181 a 20.788654,20.788654 0 0 0 0.093,1.806059 20.788654,20.788654 0 0 1 -0.093,-1.806059 z m 0.1989,2.680949 a 20.788654,20.788654 0 0 0 0.186,1.220182 20.788654,20.788654 0 0 1 -0.186,-1.220182 z m 0.3512,1.95521 a 20.788654,20.788654 0 0 0 0.3394,1.322041 20.788654,20.788654 0 0 1 -0.3394,-1.322041 z m 0.53499,1.910461 a 20.788654,20.788654 0 0 0 0.5144,1.403649 20.788654,20.788654 0 0 1 -0.5144,-1.403649 z m 0.71841,1.859251 a 20.788654,20.788654 0 0 0 0.70319,1.45093 20.788654,20.788654 0 0 1 -0.70319,-1.45093 z m 0.8954,1.7858 a 20.788654,20.788654 0 0 0 0.90389,1.470059 20.788654,20.788654 0 0 1 -0.90389,-1.470059 z m 1.06349,1.69322 a 20.788654,20.788654 0 0 0 1.1109,1.457679 20.788654,20.788654 0 0 1 -1.1109,-1.457679 z" style="opacity:1;fill:#de761c;fill-opacity:1;fill-rule:nonzero;stroke:none;stroke-width:0.01697024;stroke-linecap:round;stroke-linejoin:miter;stroke-miterlimit:4;stroke-dasharray:none;stroke-dashoffset:0;stroke-opacity:1;paint-order:stroke fill markers"/> <path id="path5266" d="m -26.156676,-6.1083285 a 20.788654,20.788654 0 0 0 -20.7886,20.7885805 20.788654,20.788654 0 0 0 6.26129,14.842739 l 14.64491,-14.644921 14.7364,-14.73636851 a 20.788654,20.788654 0 0 0 -14.854,-6.25002999 z" style="opacity:1;fill:#f7941d;fill-opacity:1;fill-rule:nonzero;stroke:none;stroke-width:0.01697024;stroke-linecap:round;stroke-linejoin:miter;stroke-miterlimit:4;stroke-dasharray:none;stroke-dashoffset:0;stroke-opacity:1;paint-order:stroke fill markers"/> <path id="path5436" d="m -26.156586,5.6669215 a 13.265673,8.4470806 0 0 0 -13.26589,8.4470295 13.265673,8.4470806 0 0 0 2.0619,4.49481 l -0.014,0.006 3.7992,3.79925 1.093,1.092962 c -0.1566,0.992039 -0.2865,1.799068 -0.3023,1.829339 l 9.8541,9.8547 A 20.788654,20.788654 0 0 0 -5.7904762,18.749121 l -9.1539998,-9.1539585 -0.017,0.007 a 13.265673,8.4470806 0 0 0 -3.4654,-2.336299 13.265673,8.4470806 0 0 0 -7.7303,-1.59835 z" style="opacity:0.5;fill:#000000;stroke:none;stroke-width:0.00848512px;stroke-linecap:butt;stroke-linejoin:miter;stroke-opacity:1"/> <path id="path5399" d="m -26.156776,5.6668115 a 13.265674,8.4470806 0 0 0 -13.2656,8.4473375 13.265674,8.4470806 0 0 0 7.2345,7.513932 c -0.2817,1.81566 -0.57161,3.659531 -0.5969,3.707831 l 4.6638,-2.878582 a 13.265674,8.4470806 0 0 0 1.9642,0.103711 13.265674,8.4470806 0 0 0 13.2657,-8.446892 13.265674,8.4470806 0 0 0 -13.2657,-8.4473375 z" style="opacity:1;fill:#ffffff;fill-opacity:1;fill-rule:nonzero;stroke:none;stroke-width:0.01697024;stroke-linecap:round;stroke-linejoin:miter;stroke-miterlimit:4;stroke-dasharray:none;stroke-dashoffset:0;stroke-opacity:1;paint-order:stroke fill markers"/> </g> </g> </svg>