<?xml version='1.0' encoding='utf-8'?>
<svg xmlns="http://www.w3.org/2000/svg" width="5000" height="5000" viewBox="0 0 1322.9166 1322.9167" version="1.1" id="svg8"> <defs id="defs2"/> <metadata id="metadata5"> </metadata> <g id="layer1" transform="translate(0,1025.9167)"> <g transform="matrix(31.181998,0,0,31.181998,-12.600553,-822.21902)" id="g6885" style="stroke-width:0.03206979"> <path style="opacity:1;fill:#23854b;fill-opacity:1;fill-rule:nonzero;stroke:none;stroke-width:0.01697026;stroke-linecap:round;stroke-linejoin:miter;stroke-miterlimit:4;stroke-dasharray:none;stroke-dashoffset:0;stroke-opacity:1;paint-order:stroke fill markers" d="m 21.616924,-6.1082485 a 20.788654,20.788654 0 0 0 -1.77229,0.0886 20.788654,20.788654 0 0 1 1.77229,-0.0886 z m 2.02978,0.10159 a 20.788654,20.788654 0 0 1 1.26265,0.18601 20.788654,20.788654 0 0 0 -1.26265,-0.18601 z m -4.8295,0.11172 a 20.788654,20.788654 0 0 0 -1.03134,0.15562 20.788654,20.788654 0 0 1 1.03134,-0.15562 z m 6.87701,0.19304 a 20.788654,20.788654 0 0 1 1.38706,0.34866 20.788654,20.788654 0 0 0 -1.38706,-0.34866 z m -8.92113,0.19023 a 20.788654,20.788654 0 0 0 -1.00434,0.25636 20.788654,20.788654 0 0 1 1.00434,-0.25636 z m 10.93149,0.31743 a 20.788654,20.788654 0 0 1 1.44164,0.52032 20.788654,20.788654 0 0 0 -1.44164,-0.52032 z m -12.92272,0.26677 a 20.788654,20.788654 0 0 0 -0.97563,0.35598 20.788654,20.788654 0 0 1 0.97563,-0.35598 z m 14.87287,0.438989 a 20.788654,20.788654 0 0 1 1.51875,0.72688 20.788654,20.788654 0 0 0 -1.51875,-0.72688 z m -16.79347,0.339941 a 20.788654,20.788654 0 0 0 -0.93848,0.45363 20.788654,20.788654 0 0 1 0.93848,-0.45363 z m 18.66172,0.55578 a 20.788654,20.788654 0 0 1 1.52353,0.92611 20.788654,20.788654 0 0 0 -1.52353,-0.92611 z m -20.49901,0.41338 a 20.788654,20.788654 0 0 0 -0.88643,0.5434 20.788654,20.788654 0 0 1 0.88643,-0.5434 z m 22.27131,0.66553 a 20.788654,20.788654 0 0 1 1.48806,1.12225 20.788654,20.788654 0 0 0 -1.48806,-1.12225 z m -23.9994102,0.4798 a 20.788654,20.788654 0 0 0 -0.831,0.63175 20.788654,20.788654 0 0 1 0.831,-0.63175 z m 25.6554702,0.770199 a 20.788654,20.788654 0 0 1 1.50638,1.39324099 20.788654,20.788654 0 0 0 -1.50638,-1.39324099 z M 7.6895838,-0.72129851 a 20.788654,20.788654 0 0 0 -0.76486,0.71281 20.788654,20.788654 0 0 1 0.76486,-0.71281 z M 36.470934,0.14177149 21.734554,14.87816 7.0896238,29.52307 A 20.788654,20.788654 0 0 0 21.616924,35.4689 20.788654,20.788654 0 0 0 42.405494,14.680331 20.788654,20.788654 0 0 0 36.470934,0.14177149 Z M 7.0896238,29.52307 a 20.788654,20.788654 0 0 1 -1.26407,-1.359188 20.788654,20.788654 0 0 0 1.26407,1.359188 z M 6.2215038,0.74624149 a 20.788654,20.788654 0 0 0 -0.68945,0.78484001 20.788654,20.788654 0 0 1 0.68945,-0.78484001 z m -1.31361,1.60598001 a 20.788654,20.788654 0 0 0 -0.6084,0.85069 20.788654,20.788654 0 0 1 0.6084,-0.85069 z m -1.14814,1.73093 a 20.788654,20.788654 0 0 0 -0.51947,0.90556 20.788654,20.788654 0 0 1 0.51947,-0.90556 z m -0.96775,1.83364 a 20.788654,20.788654 0 0 0 -0.42802,0.9565 20.788654,20.788654 0 0 1 0.42802,-0.9565 z m -0.78007,1.92087 a 20.788654,20.788654 0 0 0 -0.33121,0.99618 20.788654,20.788654 0 0 1 0.33121,-0.99618 z m -0.58559,1.99348 a 20.788654,20.788654 0 0 0 -0.22963,1.0220685 20.788654,20.788654 0 0 1 0.22963,-1.0220685 z M 1.0425138,11.87415 A 20.788654,20.788654 0 0 0 0.91700379,12.908591 20.788654,20.788654 0 0 1 1.0425138,11.87415 Z m -0.21416001,2.806181 a 20.788654,20.788654 0 0 0 0.0929,1.806059 20.788654,20.788654 0 0 1 -0.0929,-1.806059 z M 1.0273038,17.36128 a 20.788654,20.788654 0 0 0 0.18601,1.220182 20.788654,20.788654 0 0 1 -0.18601,-1.220182 z m 0.3512,1.95521 a 20.788654,20.788654 0 0 0 0.33936,1.322041 20.788654,20.788654 0 0 1 -0.33936,-1.322041 z m 0.53495,1.910461 a 20.788654,20.788654 0 0 0 0.5144,1.403649 20.788654,20.788654 0 0 1 -0.5144,-1.403649 z m 0.71842,1.859251 a 20.788654,20.788654 0 0 0 0.70325,1.45093 20.788654,20.788654 0 0 1 -0.70325,-1.45093 z m 0.89544,1.7858 a 20.788654,20.788654 0 0 0 0.90387,1.470059 20.788654,20.788654 0 0 1 -0.90387,-1.470059 z m 1.06343,1.69322 a 20.788654,20.788654 0 0 0 1.11099,1.457679 20.788654,20.788654 0 0 1 -1.11099,-1.457679 z" id="path7524"/> <path style="opacity:1;fill:#37c871;fill-opacity:1;fill-rule:nonzero;stroke:none;stroke-width:0.01697026;stroke-linecap:round;stroke-linejoin:miter;stroke-miterlimit:4;stroke-dasharray:none;stroke-dashoffset:0;stroke-opacity:1;paint-order:stroke fill markers" d="M 21.617004,-6.1083285 A 20.788654,20.788654 0 0 0 0.82842379,14.680252 20.788654,20.788654 0 0 0 7.0897038,29.522991 L 21.734624,14.87807 36.471014,0.14170149 A 20.788654,20.788654 0 0 0 21.617004,-6.1083285 Z" id="path7526"/> <path id="path8235" d="m 21.616034,2.4557415 c -5.60326,0.007 -10.2613,5.09907 -10.90424,10.7233785 -1.2041402,0.515421 -2.0438102,1.708261 -2.0438102,3.105232 0,0.81112 0.28385,1.553178 0.75706,2.134238 l -5.3e-4,0.0011 0.004,0.004 c 0.14273,0.174681 0.30288,0.334672 0.47749,0.477491 l 3.9031202,3.903131 12.18685,12.186848 a 20.788654,20.788654 0 0 0 15.98507,-16.2326 l -12.06334,-12.0628285 -0.90434,-0.90434 c -0.083,-0.0858 -0.16746,-0.16952 -0.2527,-0.2527 l -0.0987,-0.0987 -0.003,-5.3e-4 c -1.91081,-1.821733 -4.36844,-2.981893 -7.04143,-2.983333 z" style="opacity:0.5;fill:#000000;stroke:none;stroke-width:0.00848513px;stroke-linecap:butt;stroke-linejoin:miter;stroke-opacity:1"/> <path id="rect4333" d="m 21.615944,2.4559615 c -5.60326,0.007 -10.26112,5.09868 -10.90406,10.7229895 -1.2041402,0.515429 -2.0439102,1.708599 -2.0439102,3.105581 0,1.871379 1.5071102,3.377848 3.3784902,3.377848 h 0.9731 a 9.2534737,11.032924 0 0 0 8.6817,7.242241 9.2534737,11.032924 0 0 0 8.67843,-7.242241 h 0.80831 c 1.87139,0 3.37787,-1.506469 3.37787,-3.377848 0,-1.393232 -0.83584,-2.583352 -2.0348,-3.10102 C 31.889634,7.5544615 27.225154,2.4589915 21.617244,2.4559615 Z m 0.001,0.89233 h 5.3e-4 c 5.02884,0.003 9.18425,4.58212 9.93227,9.5779395 -0.11924,-0.0127 -0.23943,-0.02021 -0.36216,-0.02021 h -0.57382 a 9.2534737,11.032924 0 0 0 -8.91227,-8.0674785 9.2534737,11.032924 0 0 0 -8.90315,8.0674785 h -0.75231 c -0.11974,0 -0.23794,0.006 -0.35431,0.0182 0.74842,-4.9923895 4.89989,-9.5691395 9.92509,-9.5759895 z m -3.39933,6.13887 c 1.92885,2.6733995 5.40297,4.0307385 10.96333,3.9288795 a 7.7790522,9.3929237 0 0 1 0.30027,2.573441 7.7790522,9.3929237 0 0 1 -0.46506,3.161599 c -2.07552,1.702599 -3.93029,2.080069 -5.72266,2.08363 a 1.9906356,1.2718868 0 0 0 -1.83874,-0.787471 1.9906356,1.2718868 0 0 0 -1.99049,1.272072 1.9906356,1.2718868 0 0 0 1.99049,1.272058 1.9906356,1.2718868 0 0 0 1.90974,-0.917728 c 1.30372,-0.003 2.65013,0.0366 4.91826,-1.095561 a 7.7790522,9.3929237 0 0 1 -6.58113,4.40371 7.7790522,9.3929237 0 0 1 -7.77895,-9.392309 7.7790522,9.3929237 0 0 1 0.0625,-1.124212 c 2.09786,-0.819589 3.46566,-2.672779 4.23241,-5.3781085 z m 0.2436,4.4102205 a 1.0320949,1.0320949 0 0 0 -1.03172,1.032369 1.0320949,1.0320949 0 0 0 1.03172,1.031719 1.0320949,1.0320949 0 0 0 1.03238,-1.031719 1.0320949,1.0320949 0 0 0 -1.03238,-1.032369 z m 6.42871,0 a 1.0320949,1.0320949 0 0 0 -1.03171,1.032369 1.0320949,1.0320949 0 0 0 1.03171,1.031719 1.0320949,1.0320949 0 0 0 1.03238,-1.031719 1.0320949,1.0320949 0 0 0 -1.03238,-1.032369 z" style="opacity:1;fill:#ffffff;fill-opacity:1;fill-rule:nonzero;stroke:none;stroke-width:0.01697026;stroke-linecap:round;stroke-linejoin:miter;stroke-miterlimit:4;stroke-dasharray:none;stroke-dashoffset:0;stroke-opacity:1;paint-order:stroke fill markers"/> </g> </g> </svg>