<?xml version='1.0' encoding='utf-8'?>
<svg xmlns="http://www.w3.org/2000/svg" width="5000" height="5000" viewBox="0 0 1322.9166 1322.9167" version="1.1" id="svg8"> <defs id="defs2"/> <metadata id="metadata5"> </metadata> <g id="layer1" transform="translate(0,1025.9167)"> <g transform="matrix(31.182029,0,0,31.182029,1477.0781,-2305.7706)" id="g7417" style="stroke-width:0.03206975"> <path style="opacity:1;fill:#5aaa91;fill-opacity:1;fill-rule:nonzero;stroke:none;stroke-width:0.01697024;stroke-linecap:round;stroke-linejoin:miter;stroke-miterlimit:4;stroke-dasharray:none;stroke-dashoffset:0;stroke-opacity:1;paint-order:stroke fill markers" d="m -26.156776,41.46887 a 20.788654,20.788654 0 0 0 -1.77231,0.0886 20.788654,20.788654 0 0 1 1.77231,-0.0886 z m 2.02979,0.101592 a 20.788654,20.788654 0 0 1 1.2627,0.18601 20.788654,20.788654 0 0 0 -1.2627,-0.18601 z m -4.8295,0.11172 a 20.788654,20.788654 0 0 0 -1.03129,0.15562 20.788654,20.788654 0 0 1 1.03129,-0.15562 z m 6.87701,0.19304 a 20.788654,20.788654 0 0 1 1.3871,0.34866 20.788654,20.788654 0 0 0 -1.3871,-0.34866 z m -8.92111,0.190228 a 20.788654,20.788654 0 0 0 -1.0043,0.25636 20.788654,20.788654 0 0 1 1.0043,-0.25636 z m 10.93151,0.317431 a 20.788654,20.788654 0 0 1 1.4416,0.520319 20.788654,20.788654 0 0 0 -1.4416,-0.520319 z m -12.9227,0.266769 a 20.788654,20.788654 0 0 0 -0.97571,0.355981 20.788654,20.788654 0 0 1 0.97571,-0.355981 z m 14.8728,0.438991 a 20.788654,20.788654 0 0 1 1.51879,0.726879 20.788654,20.788654 0 0 0 -1.51879,-0.726879 z m -16.7934,0.33994 a 20.788654,20.788654 0 0 0 -0.9385,0.45363 20.788654,20.788654 0 0 1 0.9385,-0.45363 z m 18.6617,0.555781 a 20.788654,20.788654 0 0 1 1.5235,0.92611 20.788654,20.788654 0 0 0 -1.5235,-0.92611 z m -20.499,0.413379 a 20.788654,20.788654 0 0 0 -0.8864,0.543399 20.788654,20.788654 0 0 1 0.8864,-0.543399 z m 22.27129,0.665531 a 20.788654,20.788654 0 0 1 1.48811,1.122248 20.788654,20.788654 0 0 0 -1.48811,-1.122248 z m -23.99939,0.4798 a 20.788654,20.788654 0 0 0 -0.83101,0.631749 20.788654,20.788654 0 0 1 0.83101,-0.631749 z m 25.6555,0.7702 a 20.788654,20.788654 0 0 1 1.50629,1.39324 20.788654,20.788654 0 0 0 -1.50629,-1.39324 z m -27.26181,0.542549 a 20.788654,20.788654 0 0 0 -0.7649,0.712811 20.788654,20.788654 0 0 1 0.7649,-0.712811 z m 28.78131,0.863071 -14.7363,14.736389 -14.645,14.64491 a 20.788654,20.788654 0 0 0 14.5273,5.945829 20.788654,20.788654 0 0 0 20.7885998,-20.788568 20.788654,20.788654 0 0 0 -5.9345998,-14.53856 z m -29.3813,29.381299 a 20.788654,20.788654 0 0 1 -1.26401,-1.359188 20.788654,20.788654 0 0 0 1.26401,1.359188 z m -0.8681,-28.776829 a 20.788654,20.788654 0 0 0 -0.68941,0.784838 20.788654,20.788654 0 0 1 0.68941,-0.784838 z m -1.31361,1.605978 a 20.788654,20.788654 0 0 0 -0.60839,0.850691 20.788654,20.788654 0 0 1 0.60839,-0.850691 z m -1.14809,1.730931 a 20.788654,20.788654 0 0 0 -0.51951,0.90556 20.788654,20.788654 0 0 1 0.51951,-0.90556 z m -0.9678,1.833639 a 20.788654,20.788654 0 0 0 -0.42801,0.9565 20.788654,20.788654 0 0 1 0.42801,-0.9565 z m -0.78,1.920872 a 20.788654,20.788654 0 0 0 -0.33131,0.99618 20.788654,20.788654 0 0 1 0.33131,-0.99618 z m -0.5856,1.99348 a 20.788654,20.788654 0 0 0 -0.2297,1.022069 20.788654,20.788654 0 0 1 0.2297,-1.022069 z m -0.3839,2.043009 a 20.788654,20.788654 0 0 0 -0.12551,1.034441 20.788654,20.788654 0 0 1 0.12551,-1.034441 z m -0.2141,2.806181 a 20.788654,20.788654 0 0 0 0.093,1.806059 20.788654,20.788654 0 0 1 -0.093,-1.806059 z m 0.1989,2.680949 a 20.788654,20.788654 0 0 0 0.186,1.220179 20.788654,20.788654 0 0 1 -0.186,-1.220179 z m 0.3512,1.95521 a 20.788654,20.788654 0 0 0 0.3394,1.322041 20.788654,20.788654 0 0 1 -0.3394,-1.322041 z m 0.53499,1.910461 a 20.788654,20.788654 0 0 0 0.5144,1.403649 20.788654,20.788654 0 0 1 -0.5144,-1.403649 z m 0.71841,1.859248 a 20.788654,20.788654 0 0 0 0.70319,1.45093 20.788654,20.788654 0 0 1 -0.70319,-1.45093 z m 0.8954,1.7858 a 20.788654,20.788654 0 0 0 0.90389,1.470062 20.788654,20.788654 0 0 1 -0.90389,-1.470062 z m 1.06349,1.693223 a 20.788654,20.788654 0 0 0 1.1109,1.457679 20.788654,20.788654 0 0 1 -1.1109,-1.457679 z" id="path5282"/> <path style="opacity:1;fill:#67c4a6;fill-opacity:1;fill-rule:nonzero;stroke:none;stroke-width:0.01697024;stroke-linecap:round;stroke-linejoin:miter;stroke-miterlimit:4;stroke-dasharray:none;stroke-dashoffset:0;stroke-opacity:1;paint-order:stroke fill markers" d="m -26.156676,41.468791 a 20.788654,20.788654 0 0 0 -20.7886,20.788579 20.788654,20.788654 0 0 0 6.26129,14.842742 l 14.64501,-14.644921 14.7363,-14.736371 a 20.788654,20.788654 0 0 0 -14.854,-6.250029 z" id="path5284"/> <path id="path5492" d="m -26.133186,48.47986 a 9.9815348,9.9815348 0 0 0 -9.98189,9.981822 c 0.10669,3.070439 1.5425,6.915089 3.69749,10.41745 1.3853,2.251451 3.06521,4.362759 4.88911,6.03168 l 7.29209,7.292048 A 20.788654,20.788654 0 0 0 -5.5406762,64.930022 l -11.4638998,-11.463901 -2.1182,-2.11822 -0.014,-0.0011 a 9.9815348,9.9815348 0 0 0 -6.9965,-2.867009 z" style="opacity:0.5;fill:#000000;stroke:none;stroke-width:0.00848512px;stroke-linecap:butt;stroke-linejoin:miter;stroke-opacity:1"/> <path id="path5447" d="m -26.156486,48.457992 a 9.9815348,9.9815348 0 0 0 -9.9818,9.981819 c 0.19231,5.538819 4.69501,13.605441 9.9813,17.617019 5.28631,-4.011599 9.78891,-12.078208 9.98131,-17.617019 h 5.2e-4 a 9.9815348,9.9815348 0 0 0 -9.9813,-9.981819 z m 0.01,3.962548 a 6.0003719,6.0003719 0 0 1 6.0007,6.000671 6.0003719,6.0003719 0 0 1 -6.0007,6.000141 6.0003719,6.0003719 0 0 1 -6.0002,-6.000141 6.0003719,6.0003719 0 0 1 6.0002,-6.000671 z m 0,2.173502 a 3.8270087,3.8270087 0 0 0 -3.8272,3.827169 3.8270087,3.8270087 0 0 0 3.8272,3.827161 3.8270087,3.8270087 0 0 0 3.8272,-3.827161 3.8270087,3.8270087 0 0 0 -3.8272,-3.827169 z" style="opacity:1;fill:#ffffff;fill-opacity:1;fill-rule:nonzero;stroke:none;stroke-width:0.01697024;stroke-linecap:round;stroke-linejoin:miter;stroke-miterlimit:4;stroke-dasharray:none;stroke-dashoffset:0;stroke-opacity:1;paint-order:stroke fill markers"/> </g> </g> </svg>