<?xml version='1.0' encoding='utf-8'?>
<svg xmlns="http://www.w3.org/2000/svg" width="5000" height="5000" viewBox="0 0 1322.9166 1322.9167" version="1.1" id="svg8"> <defs id="defs2"/> <metadata id="metadata5"> </metadata> <g id="layer1" transform="translate(0,1025.9167)"> <g transform="matrix(31.18201,0,0,31.18201,4456.4371,-2305.7694)" id="g7348" style="stroke-width:0.03206977"> <g transform="translate(-156.73998,-22.357513)" id="g5551" style="stroke-width:0.03206977"> <path id="path5290" d="m 35.035888,63.826384 a 20.788654,20.788654 0 0 0 -1.772298,0.0886 20.788654,20.788654 0 0 1 1.772298,-0.0886 z m 2.02978,0.10159 a 20.788654,20.788654 0 0 1 1.262656,0.18601 20.788654,20.788654 0 0 0 -1.262656,-0.18601 z m -4.829498,0.11172 a 20.788654,20.788654 0 0 0 -1.031352,0.15562 20.788654,20.788654 0 0 1 1.031352,-0.15562 z m 6.877003,0.19304 a 20.788654,20.788654 0 0 1 1.387055,0.34866 20.788654,20.788654 0 0 0 -1.387055,-0.34866 z m -8.921132,0.19023 a 20.788654,20.788654 0 0 0 -1.004335,0.25636 20.788654,20.788654 0 0 1 1.004335,-0.25636 z m 10.931493,0.31743 a 20.788654,20.788654 0 0 1 1.441645,0.52032 20.788654,20.788654 0 0 0 -1.441645,-0.52032 z m -12.922718,0.26677 a 20.788654,20.788654 0 0 0 -0.975638,0.35598 20.788654,20.788654 0 0 1 0.975638,-0.35598 z m 14.872863,0.43899 a 20.788654,20.788654 0 0 1 1.518749,0.72688 20.788654,20.788654 0 0 0 -1.518749,-0.72688 z m -16.793465,0.33994 a 20.788654,20.788654 0 0 0 -0.938478,0.45363 20.788654,20.788654 0 0 1 0.938478,-0.45363 z m 18.661718,0.55578 a 20.788654,20.788654 0 0 1 1.52353,0.92611 20.788654,20.788654 0 0 0 -1.52353,-0.92611 z m -20.499009,0.41338 a 20.788654,20.788654 0 0 0 -0.886419,0.5434 20.788654,20.788654 0 0 1 0.886419,-0.5434 z m 22.271309,0.66553 a 20.788654,20.788654 0 0 1 1.488068,1.12225 20.788654,20.788654 0 0 0 -1.488068,-1.12225 z m -23.999411,0.4798 a 20.788654,20.788654 0 0 0 -0.830995,0.63175 20.788654,20.788654 0 0 1 0.830995,-0.63175 z m 25.65548,0.7702 a 20.788654,20.788654 0 0 1 1.506366,1.39324 20.788654,20.788654 0 0 0 -1.506366,-1.39324 z m -27.261755,0.54255 a 20.788654,20.788654 0 0 0 -0.764864,0.71281 20.788654,20.788654 0 0 1 0.764864,-0.71281 z m 28.781347,0.86307 -14.736381,14.73639 -14.644917,14.64491 a 20.788654,20.788654 0 0 0 14.527293,5.945826 20.788654,20.788654 0 0 0 20.788544,-20.788566 20.788654,20.788654 0 0 0 -5.934539,-14.53856 z m -29.381298,29.3813 a 20.788654,20.788654 0 0 1 -1.264083,-1.35919 20.788654,20.788654 0 0 0 1.264083,1.35919 z m -0.868138,-28.77683 a 20.788654,20.788654 0 0 0 -0.689448,0.78484 20.788654,20.788654 0 0 1 0.689448,-0.78484 z m -1.313605,1.60598 a 20.788654,20.788654 0 0 0 -0.608402,0.85069 20.788654,20.788654 0 0 1 0.608402,-0.85069 z m -1.148142,1.73093 a 20.788654,20.788654 0 0 0 -0.519466,0.90556 20.788654,20.788654 0 0 1 0.519466,-0.90556 z m -0.967753,1.83364 a 20.788654,20.788654 0 0 0 -0.42802,0.9565 20.788654,20.788654 0 0 1 0.42802,-0.9565 z m -0.780052,1.92087 a 20.788654,20.788654 0 0 0 -0.331224,0.99618 20.788654,20.788654 0 0 1 0.331224,-0.99618 z m -0.585607,1.99348 a 20.788654,20.788654 0 0 0 -0.229622,1.02207 20.788654,20.788654 0 0 1 0.229622,-1.02207 z m -0.383829,2.04301 a 20.788654,20.788654 0 0 0 -0.125508,1.03444 20.788654,20.788654 0 0 1 0.125508,-1.03444 z m -0.214162,2.80618 a 20.788654,20.788654 0 0 0 0.09287,1.80606 20.788654,20.788654 0 0 1 -0.09287,-1.80606 z m 0.198959,2.68095 a 20.788654,20.788654 0 0 0 0.186008,1.22018 20.788654,20.788654 0 0 1 -0.186008,-1.22018 z m 0.351193,1.95521 a 20.788654,20.788654 0 0 0 0.339366,1.32204 20.788654,20.788654 0 0 1 -0.339366,-1.32204 z m 0.534958,1.91046 a 20.788654,20.788654 0 0 0 0.514407,1.40365 20.788654,20.788654 0 0 1 -0.514407,-1.40365 z m 0.718424,1.85925 a 20.788654,20.788654 0 0 0 0.703237,1.45093 20.788654,20.788654 0 0 1 -0.703237,-1.45093 z m 0.895426,1.7858 a 20.788654,20.788654 0 0 0 0.903883,1.47006 20.788654,20.788654 0 0 1 -0.903883,-1.47006 z m 1.063437,1.69322 a 20.788654,20.788654 0 0 0 1.110988,1.45768 20.788654,20.788654 0 0 1 -1.110988,-1.45768 z" style="opacity:1;fill:#345976;fill-opacity:1;fill-rule:nonzero;stroke:none;stroke-width:0.01697025;stroke-linecap:round;stroke-linejoin:miter;stroke-miterlimit:4;stroke-dasharray:none;stroke-dashoffset:0;stroke-opacity:1;paint-order:stroke fill markers"/> <path id="path5292" d="m 35.035964,63.826304 a 20.788654,20.788654 0 0 0 -20.788569,20.78858 20.788654,20.788654 0 0 0 6.261276,14.84274 L 35.153594,84.812704 49.88997,70.076334 a 20.788654,20.788654 0 0 0 -14.854006,-6.25003 z" style="opacity:1;fill:#597b96;fill-opacity:1;fill-rule:nonzero;stroke:none;stroke-width:0.01697025;stroke-linecap:round;stroke-linejoin:miter;stroke-miterlimit:4;stroke-dasharray:none;stroke-dashoffset:0;stroke-opacity:1;paint-order:stroke fill markers"/> </g> <path id="path5555" d="m -119.12058,52.72679 -12.1393,12.089712 2.6443,2.644799 0.046,1.977649 12.7454,12.74599 a 20.788654,20.788654 0 0 0 14.0462,-14.049269 l -12.6323,-12.632819 -0.2077,-0.0155 -1.8826,-0.14056 z" style="opacity:0.5;fill:#000000;stroke:none;stroke-width:0.00848513px;stroke-linecap:butt;stroke-linejoin:miter;stroke-opacity:1"/> <path id="rect5520" d="m -123.34928,52.324171 c -0.7148,0 -1.2903,0.575519 -1.2903,1.29036 v 0.910021 a 8.2743958,8.2743958 0 0 0 -0.4517,0.194818 l -0.649,-0.64906 c -0.5055,-0.50546 -1.3192,-0.50546 -1.8247,0 l -2.3265,2.326481 c -0.5054,0.50546 -0.5054,1.319231 0,1.824691 l 0.647,0.646989 a 8.2743958,8.2743958 0 0 0 -0.1855,0.45372 h -0.9173 c -0.7148,0 -1.2903,0.575519 -1.2903,1.29036 v 3.290239 c 0,0.714841 0.5755,1.290363 1.2903,1.290363 h 0.9106 a 8.2743958,8.2743958 0 0 0 0.1943,0.451127 l -0.6491,0.64906 c -0.5055,0.505471 -0.5055,1.319231 0,1.824691 l 2.327,2.326482 c 0.5055,0.505468 1.3192,0.50546 1.8247,0 l 0.6465,-0.646473 a 8.2743958,8.2743958 0 0 0 0.4537,0.18551 v 0.916752 c 0,0.714831 0.5755,1.29035 1.2903,1.29035 h 3.2903 c 0.7148,0 1.2903,-0.575519 1.2903,-1.29035 v -0.910031 a 8.2743958,8.2743958 0 0 0 0.4512,-0.1943 l 0.649,0.64905 c 0.5055,0.50547 1.3193,0.50547 1.8247,0 l 2.327,-2.326468 c 0.5055,-0.50546 0.5055,-1.319742 0,-1.825213 l -0.647,-0.646988 a 8.2743958,8.2743958 0 0 0 0.185,-0.453199 h 0.9178 c 0.7148,0 1.2904,-0.575522 1.2904,-1.290363 v -3.290239 c 0,-0.714841 -0.5756,-1.29036 -1.2904,-1.29036 h -0.91 a 8.2743958,8.2743958 0 0 0 -0.1948,-0.451649 l 0.649,-0.64906 c 0.5055,-0.50546 0.5055,-1.319231 0,-1.824691 l -2.327,-2.326481 c -0.5054,-0.50546 -1.3192,-0.50546 -1.8247,0 l -0.6464,0.64648 a 8.2743958,8.2743958 0 0 0 -0.4538,-0.185518 v -0.916741 c 0,-0.714841 -0.5755,-1.29036 -1.2903,-1.29036 z m 1.6449,5.532991 a 4.4001399,4.4001399 0 0 1 4.4003,4.400248 4.4001399,4.4001399 0 0 1 -4.4003,4.400251 4.4001399,4.4001399 0 0 1 -4.3997,-4.400251 4.4001399,4.4001399 0 0 1 4.3997,-4.400248 z" style="opacity:1;fill:#ffffff;fill-opacity:1;fill-rule:nonzero;stroke:none;stroke-width:0.01697025;stroke-linecap:round;stroke-linejoin:miter;stroke-miterlimit:4;stroke-dasharray:none;stroke-dashoffset:0;stroke-opacity:1;paint-order:stroke fill markers"/> </g> </g> </svg>