<?xml version='1.0' encoding='utf-8'?>
<svg xmlns="http://www.w3.org/2000/svg" width="5000" height="5000" viewBox="0 0 1322.9166 1322.9167" version="1.1" id="svg8"> <defs id="defs2"/> <metadata id="metadata5"> </metadata> <g id="layer1" transform="translate(0,1025.9167)"> <g transform="matrix(31.182028,0,0,31.182028,4450.6058,-5272.8721)" id="g7215" style="stroke-width:0.03206975"> <path id="path8311" d="m -121.51708,136.62299 a 20.788654,20.788654 0 0 0 -1.7723,0.0886 20.788654,20.788654 0 0 1 1.7723,-0.0886 z m 2.0298,0.10159 a 20.788654,20.788654 0 0 1 1.2627,0.18601 20.788654,20.788654 0 0 0 -1.2627,-0.18601 z m -4.8295,0.11172 a 20.788654,20.788654 0 0 0 -1.0313,0.15562 20.788654,20.788654 0 0 1 1.0313,-0.15562 z m 6.877,0.19304 a 20.788654,20.788654 0 0 1 1.3871,0.34866 20.788654,20.788654 0 0 0 -1.3871,-0.34866 z m -8.9211,0.19023 a 20.788654,20.788654 0 0 0 -1.0043,0.25636 20.788654,20.788654 0 0 1 1.0043,-0.25636 z m 10.9315,0.31743 a 20.788654,20.788654 0 0 1 1.4416,0.52032 20.788654,20.788654 0 0 0 -1.4416,-0.52032 z m -12.9227,0.26677 a 20.788654,20.788654 0 0 0 -0.9757,0.35598 20.788654,20.788654 0 0 1 0.9757,-0.35598 z m 14.8728,0.43899 a 20.788654,20.788654 0 0 1 1.5188,0.72689 20.788654,20.788654 0 0 0 -1.5188,-0.72689 z m -16.7934,0.33995 a 20.788654,20.788654 0 0 0 -0.9385,0.45363 20.788654,20.788654 0 0 1 0.9385,-0.45363 z m 18.6617,0.55578 a 20.788654,20.788654 0 0 1 1.5235,0.92612 20.788654,20.788654 0 0 0 -1.5235,-0.92612 z m -20.499,0.41338 a 20.788654,20.788654 0 0 0 -0.8864,0.54341 20.788654,20.788654 0 0 1 0.8864,-0.54341 z m 22.2713,0.66554 a 20.788654,20.788654 0 0 1 1.4881,1.12225 20.788654,20.788654 0 0 0 -1.4881,-1.12225 z m -23.9994,0.4798 a 20.788654,20.788654 0 0 0 -0.831,0.63175 20.788654,20.788654 0 0 1 0.831,-0.63175 z m 25.6555,0.77021 a 20.788654,20.788654 0 0 1 1.5063,1.39324 20.788654,20.788654 0 0 0 -1.5063,-1.39324 z m -27.2618,0.54255 a 20.788654,20.788654 0 0 0 -0.7649,0.71281 20.788654,20.788654 0 0 1 0.7649,-0.71281 z m 28.7813,0.86307 -14.7363,14.73648 -14.645,14.64499 a 20.788654,20.788654 0 0 0 14.5273,5.94583 20.788654,20.788654 0 0 0 20.7886,-20.78865 20.788654,20.788654 0 0 0 -5.9346,-14.53865 z m -29.3813,29.38147 a 20.788654,20.788654 0 0 1 -1.264,-1.3592 20.788654,20.788654 0 0 0 1.264,1.3592 z m -0.8681,-28.777 a 20.788654,20.788654 0 0 0 -0.6894,0.78485 20.788654,20.788654 0 0 1 0.6894,-0.78485 z m -1.3136,1.60599 a 20.788654,20.788654 0 0 0 -0.6084,0.8507 20.788654,20.788654 0 0 1 0.6084,-0.8507 z m -1.1481,1.73095 a 20.788654,20.788654 0 0 0 -0.5195,0.90556 20.788654,20.788654 0 0 1 0.5195,-0.90556 z m -0.9678,1.83364 a 20.788654,20.788654 0 0 0 -0.428,0.95651 20.788654,20.788654 0 0 1 0.428,-0.95651 z m -0.78,1.92089 a 20.788654,20.788654 0 0 0 -0.3313,0.99618 20.788654,20.788654 0 0 1 0.3313,-0.99618 z m -0.5856,1.99349 a 20.788654,20.788654 0 0 0 -0.2297,1.02207 20.788654,20.788654 0 0 1 0.2297,-1.02207 z m -0.3839,2.04302 a 20.788654,20.788654 0 0 0 -0.1255,1.03444 20.788654,20.788654 0 0 1 0.1255,-1.03444 z m -0.2141,2.8062 a 20.788654,20.788654 0 0 0 0.093,1.80606 20.788654,20.788654 0 0 1 -0.093,-1.80606 z m 0.1989,2.68096 a 20.788654,20.788654 0 0 0 0.186,1.22019 20.788654,20.788654 0 0 1 -0.186,-1.22019 z m 0.3512,1.95522 a 20.788654,20.788654 0 0 0 0.3394,1.32205 20.788654,20.788654 0 0 1 -0.3394,-1.32205 z m 0.535,1.91047 a 20.788654,20.788654 0 0 0 0.5144,1.40366 20.788654,20.788654 0 0 1 -0.5144,-1.40366 z m 0.7184,1.85926 a 20.788654,20.788654 0 0 0 0.7032,1.45094 20.788654,20.788654 0 0 1 -0.7032,-1.45094 z m 0.8954,1.78581 a 20.788654,20.788654 0 0 0 0.9039,1.47007 20.788654,20.788654 0 0 1 -0.9039,-1.47007 z m 1.0635,1.69323 a 20.788654,20.788654 0 0 0 1.1109,1.45769 20.788654,20.788654 0 0 1 -1.1109,-1.45769 z" style="opacity:1;fill:#992d6d;fill-opacity:1;fill-rule:nonzero;stroke:none;stroke-width:0.01697024;stroke-linecap:round;stroke-linejoin:miter;stroke-miterlimit:4;stroke-dasharray:none;stroke-dashoffset:0;stroke-opacity:1;paint-order:stroke fill markers"/> <path id="path8313" d="m -121.51698,136.62291 a 20.788654,20.788654 0 0 0 -20.7886,20.7887 20.788654,20.788654 0 0 0 6.2613,14.84282 l 14.6449,-14.645 14.7364,-14.73646 a 20.788654,20.788654 0 0 0 -14.854,-6.25006 z" style="opacity:1;fill:#cc3a92;fill-opacity:1;fill-rule:nonzero;stroke:none;stroke-width:0.01697024;stroke-linecap:round;stroke-linejoin:miter;stroke-miterlimit:4;stroke-dasharray:none;stroke-dashoffset:0;stroke-opacity:1;paint-order:stroke fill markers"/> <path id="path8585" d="m -125.83138,148.38455 c -0.4406,0 -0.7953,0.35525 -0.7953,0.79582 v 1.70222 l -0.6331,-0.63304 h -1.312 c -0.9664,0 -1.7446,0.71557 -1.7446,1.60456 v 12.98008 c 0,0.45562 0.205,0.8645 0.5343,1.156 v 0.002 l 11.8732,11.87318 a 20.788654,20.788654 0 0 0 16.5163,-15.30966 l -11.7202,-11.72073 -5.3e-4,-5.3e-4 c -0.242,-0.2708 -0.5793,-0.46663 -0.9653,-0.5457 -0.1234,-0.0253 -0.2514,-0.0388 -0.3834,-0.0388 h -0.5597 l -1.6118,-1.61179 c -0.012,-0.0131 -0.025,-0.0255 -0.038,-0.0377 l -0.026,-0.0258 v 0.004 c -0.1388,-0.11899 -0.3166,-0.19378 -0.5147,-0.19378 -0.4406,0 -0.7958,0.35522 -0.7958,0.79581 v 1.71308 l -0.6439,-0.64389 h -4.9847 l -1.6268,-1.62677 c 0,-0.004 -0.01,-0.007 -0.01,-0.0104 l -0.015,-0.015 -5.3e-4,0.002 c -0.1419,-0.13246 -0.3312,-0.21497 -0.5415,-0.21497 z" style="opacity:0.5;fill:#000000;stroke:none;stroke-width:0.00848512px;stroke-linecap:butt;stroke-linejoin:miter;stroke-opacity:1"/> <path id="path8430" d="m -125.83148,148.38477 c -0.4405,0 -0.7954,0.35492 -0.7954,0.79549 v 2.6289 c 0,0.44057 0.3549,0.79549 0.7954,0.79549 0.4406,0 0.7955,-0.35492 0.7955,-0.79549 v -2.6289 c 0,-0.44057 -0.3549,-0.79549 -0.7955,-0.79549 z m 8.6184,0 c -0.4406,0 -0.7955,0.3549 -0.7955,0.79549 v 2.6289 c 0,0.4406 0.3549,0.79549 0.7955,0.79549 0.4406,0 0.7949,-0.35489 0.7949,-0.79549 v -2.6289 c 0,-0.44058 -0.3543,-0.79549 -0.7949,-0.79549 z m -11.359,1.86474 c -0.9664,0 -1.7444,0.71547 -1.7444,1.60446 v 12.98002 c 0,0.889 0.778,1.60448 1.7444,1.60448 h 14.1101 c 0.9664,0 1.7444,-0.71548 1.7444,-1.60448 v -12.98002 c 0,-0.889 -0.778,-1.60446 -1.7444,-1.60446 h -1.3124 v 1.99546 c 0,0.79725 -0.6421,1.43937 -1.4393,1.43937 -0.7973,0 -1.4388,-0.64212 -1.4388,-1.43937 v -1.99546 h -5.7292 v 1.99853 c 0,0.79724 -0.6415,1.43873 -1.4387,1.43873 -0.7973,0 -1.4394,-0.64149 -1.4394,-1.43873 v -1.99853 z m 0.9213,4.46415 h 12.2674 c 0.8402,0 1.5161,0.47118 1.5161,1.05698 v 8.55329 c 0,0.58581 -0.6759,1.05697 -1.5161,1.05697 h -12.2674 c -0.8401,0 -1.516,-0.47116 -1.516,-1.05697 v -8.55329 c 0,-0.5858 0.6759,-1.05698 1.516,-1.05698 z m 6.6076,1.35221 v 2.26123 h 2.2618 v -2.26123 z m 3.2992,0 v 2.26123 h 2.2618 v -2.26123 z m -9.8969,2.90757 v 2.26123 h 2.2612 v -2.26123 z m 3.2991,0 v 2.26123 h 2.2613 v -2.26123 z m 3.2986,0 v 2.26123 h 2.2618 v -2.26123 z m 3.2992,0 v 2.26123 h 2.2618 v -2.26123 z m -9.8969,2.90757 v 2.26124 h 2.2612 v -2.26124 z m 3.2991,0 v 2.26124 h 2.2613 v -2.26124 z m 3.2986,0 v 2.26124 h 2.2618 v -2.26124 z m 3.2992,0 v 2.26124 h 2.2618 v -2.26124 z" style="opacity:1;fill:#ffffff;fill-opacity:1;fill-rule:nonzero;stroke:none;stroke-width:0.01697024;stroke-linecap:round;stroke-linejoin:miter;stroke-miterlimit:4;stroke-dasharray:none;stroke-dashoffset:0;stroke-opacity:1;paint-order:stroke fill markers"/> </g> </g> </svg>