<?xml version='1.0' encoding='utf-8'?>
<svg xmlns="http://www.w3.org/2000/svg" width="5000" height="5000" viewBox="0 0 1322.9166 1322.9167" version="1.1" id="svg8"> <defs id="defs2"/> <metadata id="metadata5"> </metadata> <g id="layer1" transform="translate(0,1025.9167)"> <g transform="matrix(31.181946,0,0,31.181946,1477.0777,-6756.4092)" id="g7017" style="stroke-width:0.03206984"> <path id="path8682" d="m -26.156776,184.2003 a 20.788654,20.788654 0 0 0 -1.77231,0.0886 20.788654,20.788654 0 0 1 1.77231,-0.0886 z m 2.02979,0.10159 a 20.788654,20.788654 0 0 1 1.2626,0.18601 20.788654,20.788654 0 0 0 -1.2626,-0.18601 z m -4.8295,0.11172 a 20.788654,20.788654 0 0 0 -1.03139,0.15562 20.788654,20.788654 0 0 1 1.03139,-0.15562 z m 6.87701,0.19304 a 20.788654,20.788654 0 0 1 1.3871,0.34866 20.788654,20.788654 0 0 0 -1.3871,-0.34866 z m -8.92111,0.19023 a 20.788654,20.788654 0 0 0 -1.0044,0.25636 20.788654,20.788654 0 0 1 1.0044,-0.25636 z m 10.93151,0.31743 a 20.788654,20.788654 0 0 1 1.4416,0.52032 20.788654,20.788654 0 0 0 -1.4416,-0.52032 z m -12.9228,0.26677 a 20.788654,20.788654 0 0 0 -0.97561,0.35598 20.788654,20.788654 0 0 1 0.97561,-0.35598 z m 14.8729,0.43899 a 20.788654,20.788654 0 0 1 1.51879,0.72688 20.788654,20.788654 0 0 0 -1.51879,-0.72688 z m -16.7935,0.33994 a 20.788654,20.788654 0 0 0 -0.9384,0.45363 20.788654,20.788654 0 0 1 0.9384,-0.45363 z m 18.6618,0.55578 a 20.788654,20.788654 0 0 1 1.5235,0.92611 20.788654,20.788654 0 0 0 -1.5235,-0.92611 z m -20.49911,0.41338 a 20.788654,20.788654 0 0 0 -0.88639,0.5434 20.788654,20.788654 0 0 1 0.88639,-0.5434 z m 22.2714,0.66553 a 20.788654,20.788654 0 0 1 1.48801,1.12225 20.788654,20.788654 0 0 0 -1.48801,-1.12225 z m -23.9995,0.4798 a 20.788654,20.788654 0 0 0 -0.831,0.63175 20.788654,20.788654 0 0 1 0.831,-0.63175 z m 25.65551,0.7702 a 20.788654,20.788654 0 0 1 1.50639,1.39324 20.788654,20.788654 0 0 0 -1.50639,-1.39324 z m -27.26171,0.54255 a 20.788654,20.788654 0 0 0 -0.7649,0.71281 20.788654,20.788654 0 0 1 0.7649,-0.71281 z m 28.78131,0.86307 -14.7364,14.73639 -14.6449,14.64491 a 20.788654,20.788654 0 0 0 14.5273,5.94583 20.788654,20.788654 0 0 0 20.7885998,-20.78857 20.788654,20.788654 0 0 0 -5.9345998,-14.53856 z m -29.3813,29.3813 a 20.788654,20.788654 0 0 1 -1.2641,-1.35919 20.788654,20.788654 0 0 0 1.2641,1.35919 z m -0.8681,-28.77683 a 20.788654,20.788654 0 0 0 -0.68951,0.78484 20.788654,20.788654 0 0 1 0.68951,-0.78484 z m -1.31361,1.60598 a 20.788654,20.788654 0 0 0 -0.60839,0.85069 20.788654,20.788654 0 0 1 0.60839,-0.85069 z m -1.14819,1.73093 a 20.788654,20.788654 0 0 0 -0.51941,0.90556 20.788654,20.788654 0 0 1 0.51941,-0.90556 z m -0.9677,1.83364 a 20.788654,20.788654 0 0 0 -0.42801,0.9565 20.788654,20.788654 0 0 1 0.42801,-0.9565 z m -0.7801,1.92087 a 20.788654,20.788654 0 0 0 -0.33121,0.99618 20.788654,20.788654 0 0 1 0.33121,-0.99618 z m -0.5856,1.99348 a 20.788654,20.788654 0 0 0 -0.2296,1.02207 20.788654,20.788654 0 0 1 0.2296,-1.02207 z m -0.3838,2.04301 a 20.788654,20.788654 0 0 0 -0.12551,1.03444 20.788654,20.788654 0 0 1 0.12551,-1.03444 z m -0.21421,2.80618 a 20.788654,20.788654 0 0 0 0.093,1.80606 20.788654,20.788654 0 0 1 -0.093,-1.80606 z m 0.19901,2.68095 a 20.788654,20.788654 0 0 0 0.186,1.22018 20.788654,20.788654 0 0 1 -0.186,-1.22018 z m 0.3512,1.95521 a 20.788654,20.788654 0 0 0 0.33929,1.32204 20.788654,20.788654 0 0 1 -0.33929,-1.32204 z m 0.5349,1.91046 a 20.788654,20.788654 0 0 0 0.5144,1.40365 20.788654,20.788654 0 0 1 -0.5144,-1.40365 z m 0.7185,1.85925 a 20.788654,20.788654 0 0 0 0.70319,1.45093 20.788654,20.788654 0 0 1 -0.70319,-1.45093 z m 0.8954,1.7858 a 20.788654,20.788654 0 0 0 0.90389,1.47006 20.788654,20.788654 0 0 1 -0.90389,-1.47006 z m 1.0634,1.69322 a 20.788654,20.788654 0 0 0 1.11099,1.45768 20.788654,20.788654 0 0 1 -1.11099,-1.45768 z" style="opacity:1;fill:#cc7a66;fill-opacity:1;fill-rule:nonzero;stroke:none;stroke-width:0.01697029;stroke-linecap:round;stroke-linejoin:miter;stroke-miterlimit:4;stroke-dasharray:none;stroke-dashoffset:0;stroke-opacity:1;paint-order:stroke fill markers"/> <path id="path8684" d="m -26.156676,184.20022 a 20.788654,20.788654 0 0 0 -20.7886,20.78858 20.788654,20.788654 0 0 0 6.26129,14.84274 l 14.64491,-14.64492 14.7364,-14.73637 a 20.788654,20.788654 0 0 0 -14.854,-6.25003 z" style="opacity:1;fill:#ff9980;fill-opacity:1;fill-rule:nonzero;stroke:none;stroke-width:0.01697029;stroke-linecap:round;stroke-linejoin:miter;stroke-miterlimit:4;stroke-dasharray:none;stroke-dashoffset:0;stroke-opacity:1;paint-order:stroke fill markers"/> <path id="path8868" d="m -18.642276,195.67134 -12.02,2.46289 v 1.73995 7.41918 c -0.58511,-0.20844 -1.2276,-0.31751 -1.87891,-0.31884 -2.37769,0 -4.30519,1.40448 -4.30519,3.13676 0,0.70477 0.3229,1.35318 0.86149,1.87689 v 0.003 l 1.57251,1.57252 11.87729,11.87731 A 20.788654,20.788654 0 0 0 -5.6895762,208.62135 L -17.579776,196.73113 Z" style="opacity:0.5;fill:#000000;stroke:none;stroke-width:0.00848514px;stroke-linecap:butt;stroke-linejoin:miter;stroke-opacity:1"/> <path id="path8837" d="m -18.642086,195.6715 -12.0204,2.46293 v 1.73982 7.41932 c -0.58509,-0.20845 -1.2276,-0.31746 -1.87889,-0.31879 -2.37771,0 -4.30511,1.40428 -4.30511,3.13656 0,1.73228 1.9274,3.13657 4.30511,3.13657 2.37759,0 4.3051,-1.40429 4.3051,-3.13657 v -9.49907 l 7.1678,-1.47027 v 6.18353 c -0.5851,-0.20843 -1.2274,-0.31743 -1.8787,-0.3188 -2.3776,0 -4.3051,1.40429 -4.3051,3.13657 0,1.73228 1.9275,3.13657 4.3051,3.13657 2.37759,0 4.30509,-1.40429 4.30509,-3.13657 v -9.49907 -1.23292 z" style="opacity:1;fill:#ffffff;fill-opacity:1;fill-rule:nonzero;stroke:none;stroke-width:0.00093003;stroke-linecap:round;stroke-linejoin:round;stroke-miterlimit:4;stroke-dasharray:none;stroke-dashoffset:0;stroke-opacity:1;paint-order:markers stroke fill"/> </g> </g> </svg>