<?xml version='1.0' encoding='utf-8'?>
<svg xmlns="http://www.w3.org/2000/svg" width="5000" height="5000" viewBox="0 0 1322.9166 1322.9167" version="1.1" id="svg8"> <defs id="defs2"/> <metadata id="metadata5"> </metadata> <g id="layer1" transform="translate(0,1025.9167)"> <g transform="matrix(31.181946,0,0,31.181946,1477.0777,-5272.8623)" id="g7149" style="stroke-width:0.03206984"> <path style="opacity:1;fill:#cc8f66;fill-opacity:1;fill-rule:nonzero;stroke:none;stroke-width:0.01697029;stroke-linecap:round;stroke-linejoin:miter;stroke-miterlimit:4;stroke-dasharray:none;stroke-dashoffset:0;stroke-opacity:1;paint-order:stroke fill markers" d="m -26.156776,136.62319 a 20.788654,20.788654 0 0 0 -1.77231,0.0886 20.788654,20.788654 0 0 1 1.77231,-0.0886 z m 2.02979,0.10159 a 20.788654,20.788654 0 0 1 1.2626,0.18601 20.788654,20.788654 0 0 0 -1.2626,-0.18601 z m -4.8295,0.11172 a 20.788654,20.788654 0 0 0 -1.03139,0.15562 20.788654,20.788654 0 0 1 1.03139,-0.15562 z m 6.87701,0.19304 a 20.788654,20.788654 0 0 1 1.3871,0.34866 20.788654,20.788654 0 0 0 -1.3871,-0.34866 z m -8.92111,0.19023 a 20.788654,20.788654 0 0 0 -1.0044,0.25636 20.788654,20.788654 0 0 1 1.0044,-0.25636 z m 10.93151,0.31743 a 20.788654,20.788654 0 0 1 1.4416,0.52032 20.788654,20.788654 0 0 0 -1.4416,-0.52032 z m -12.9228,0.26677 a 20.788654,20.788654 0 0 0 -0.97561,0.35598 20.788654,20.788654 0 0 1 0.97561,-0.35598 z m 14.8729,0.43899 a 20.788654,20.788654 0 0 1 1.51879,0.72688 20.788654,20.788654 0 0 0 -1.51879,-0.72688 z m -16.7935,0.33994 a 20.788654,20.788654 0 0 0 -0.9384,0.45363 20.788654,20.788654 0 0 1 0.9384,-0.45363 z m 18.6618,0.55578 a 20.788654,20.788654 0 0 1 1.5235,0.92611 20.788654,20.788654 0 0 0 -1.5235,-0.92611 z m -20.49911,0.41338 a 20.788654,20.788654 0 0 0 -0.88639,0.5434 20.788654,20.788654 0 0 1 0.88639,-0.5434 z m 22.2714,0.66553 a 20.788654,20.788654 0 0 1 1.48801,1.12225 20.788654,20.788654 0 0 0 -1.48801,-1.12225 z m -23.9995,0.4798 a 20.788654,20.788654 0 0 0 -0.831,0.63175 20.788654,20.788654 0 0 1 0.831,-0.63175 z m 25.65551,0.7702 a 20.788654,20.788654 0 0 1 1.50639,1.39324 20.788654,20.788654 0 0 0 -1.50639,-1.39324 z m -27.26171,0.54255 a 20.788654,20.788654 0 0 0 -0.7649,0.71281 20.788654,20.788654 0 0 1 0.7649,-0.71281 z m 28.78131,0.86307 -14.7364,14.73639 -14.6449,14.64491 a 20.788654,20.788654 0 0 0 14.5273,5.94583 20.788654,20.788654 0 0 0 20.7885998,-20.78857 20.788654,20.788654 0 0 0 -5.9345998,-14.53856 z m -29.3813,29.3813 a 20.788654,20.788654 0 0 1 -1.2641,-1.35919 20.788654,20.788654 0 0 0 1.2641,1.35919 z m -0.8681,-28.77683 a 20.788654,20.788654 0 0 0 -0.68951,0.78484 20.788654,20.788654 0 0 1 0.68951,-0.78484 z m -1.31361,1.60598 a 20.788654,20.788654 0 0 0 -0.60839,0.85069 20.788654,20.788654 0 0 1 0.60839,-0.85069 z m -1.14819,1.73093 a 20.788654,20.788654 0 0 0 -0.51941,0.90556 20.788654,20.788654 0 0 1 0.51941,-0.90556 z m -0.9677,1.83364 a 20.788654,20.788654 0 0 0 -0.42801,0.9565 20.788654,20.788654 0 0 1 0.42801,-0.9565 z m -0.7801,1.92087 a 20.788654,20.788654 0 0 0 -0.33121,0.99618 20.788654,20.788654 0 0 1 0.33121,-0.99618 z m -0.5856,1.99348 a 20.788654,20.788654 0 0 0 -0.2296,1.02207 20.788654,20.788654 0 0 1 0.2296,-1.02207 z m -0.3838,2.04301 a 20.788654,20.788654 0 0 0 -0.12551,1.03444 20.788654,20.788654 0 0 1 0.12551,-1.03444 z m -0.21421,2.80618 a 20.788654,20.788654 0 0 0 0.093,1.80606 20.788654,20.788654 0 0 1 -0.093,-1.80606 z m 0.19901,2.68095 a 20.788654,20.788654 0 0 0 0.186,1.22018 20.788654,20.788654 0 0 1 -0.186,-1.22018 z m 0.3512,1.95521 a 20.788654,20.788654 0 0 0 0.33929,1.32204 20.788654,20.788654 0 0 1 -0.33929,-1.32204 z m 0.5349,1.91046 a 20.788654,20.788654 0 0 0 0.5144,1.40365 20.788654,20.788654 0 0 1 -0.5144,-1.40365 z m 0.7185,1.85925 a 20.788654,20.788654 0 0 0 0.70319,1.45093 20.788654,20.788654 0 0 1 -0.70319,-1.45093 z m 0.8954,1.7858 a 20.788654,20.788654 0 0 0 0.90389,1.47006 20.788654,20.788654 0 0 1 -0.90389,-1.47006 z m 1.0634,1.69322 a 20.788654,20.788654 0 0 0 1.11099,1.45768 20.788654,20.788654 0 0 1 -1.11099,-1.45768 z" id="path8307"/> <path style="opacity:1;fill:#ffb380;fill-opacity:1;fill-rule:nonzero;stroke:none;stroke-width:0.01697029;stroke-linecap:round;stroke-linejoin:miter;stroke-miterlimit:4;stroke-dasharray:none;stroke-dashoffset:0;stroke-opacity:1;paint-order:stroke fill markers" d="m -26.156676,136.62311 a 20.788654,20.788654 0 0 0 -20.7886,20.78858 20.788654,20.788654 0 0 0 6.26129,14.84274 l 14.64491,-14.64492 14.7364,-14.73637 a 20.788654,20.788654 0 0 0 -14.854,-6.25003 z" id="path8309"/> <path id="path8637" d="m -32.855386,146.80583 a 3.4620528,3.4620528 0 0 0 -3.46179,3.46232 3.4620528,3.4620528 0 0 0 1.01279,2.44378 v 0.002 l 0.039,0.0382 1.76891,1.7694 h -0.055 c -3.06251,0 -5.52831,2.46479 -5.52831,5.52731 v 2.88884 l 3.85761,3.85764 11.281,11.28097 a 20.788654,20.788654 0 0 0 18.4654998,-18.72186 l -11.1527998,-11.1528 -4.88911,4.88962 1.43041,1.4304 h -0.067 c -0.15781,0 -0.31331,0.009 -0.46761,0.0217 l -1.17409,-1.17409 -4.2416,4.24057 4.2411,-4.24108 -1.7663,-1.76631 a 3.4620528,3.4620528 0 0 0 -0.291,-0.29094 l -0.045,-0.0455 v 0.004 a 3.4620528,3.4620528 0 0 0 -2.2541,-0.83975 3.4620528,3.4620528 0 0 0 -1.36061,0.27957 l -2.89239,-2.89233 v 0.002 a 3.4620528,3.4620528 0 0 0 -2.4438,-1.01234 z m 16.2248,1.39526 -0.4015,-0.40153 a 3.4620528,3.4620528 0 0 0 -0.022,-0.0222 l -0.018,-0.0181 v 10e-4 a 3.4620528,3.4620528 0 0 0 -2.3843,-0.95446 3.4620528,3.4620528 0 0 0 -3.4618,3.46232 3.4620528,3.4620528 0 0 0 0.043,0.53485 4.5087201,4.5087201 0 0 1 1.0966,2.02778 l 0.2594,0.25942 z" style="opacity:0.5;fill:#000000;stroke:none;stroke-width:0.00848514px;stroke-linecap:butt;stroke-linejoin:miter;stroke-opacity:1"/> <path id="circle8481" d="m -32.855186,146.80578 a 3.4620528,3.4620528 0 0 0 -3.46209,3.46214 3.4620528,3.4620528 0 0 0 3.46209,3.46215 3.4620528,3.4620528 0 0 0 2.3221,-0.8994 4.5087201,4.5087201 0 0 1 1.09291,-2.02176 3.4620528,3.4620528 0 0 0 0.047,-0.54099 3.4620528,3.4620528 0 0 0 -3.46211,-3.46214 z m 13.39761,0 a 3.4620528,3.4620528 0 0 0 -3.4621,3.46214 3.4620528,3.4620528 0 0 0 0.044,0.5351 4.5087201,4.5087201 0 0 1 1.09629,2.02765 3.4620528,3.4620528 0 0 0 2.3221,0.8994 3.4620528,3.4620528 0 0 0 3.4613,-3.46215 3.4620528,3.4620528 0 0 0 -3.4613,-3.46214 z m -6.6996,3.62369 a 3.4620528,3.4620528 0 0 0 -3.4622,3.46215 3.4620528,3.4620528 0 0 0 3.4622,3.4613 3.4620528,3.4620528 0 0 0 3.4621,-3.4613 3.4620528,3.4620528 0 0 0 -3.4621,-3.46215 z m -7.3963,4.09148 c -3.06251,0 -5.5285,2.46511 -5.5285,5.52764 v 2.88834 a 13.948141,6.8602079 0 0 0 5.6051,0.71936 v -0.5839 c 0,-2.75157 1.69529,-5.0879 4.1007,-6.0392 a 4.5087201,4.5087201 0 0 1 -1.20231,-2.28256 c -0.50009,-0.14785 -1.02909,-0.22968 -1.5784,-0.22968 z m 13.3976,0 c -0.54841,0 -1.07641,0.0813 -1.5758,0.22885 a 4.5087201,4.5087201 0 0 1 -1.1998,2.28507 c 2.4028,0.9524 4.0957,3.28763 4.0957,6.03752 v 0.5797 a 13.948141,6.8602079 0 0 0 5.6042,-0.70927 v -2.89423 c 0,-3.06253 -2.46511,-5.52764 -5.52761,-5.52764 z m -6.6988,3.62282 c -3.06251,0 -5.5285,2.46515 -5.5285,5.52766 v 2.88836 a 13.948141,6.8602079 0 0 0 6.2268,0.73028 13.948141,6.8602079 0 0 0 6.226,-0.72439 v -2.89425 c 0,-3.06251 -2.4651,-5.52766 -5.52771,-5.52766 z" style="opacity:1;fill:#ffffff;fill-opacity:1;fill-rule:nonzero;stroke:none;stroke-width:0.01697029;stroke-linecap:round;stroke-linejoin:miter;stroke-miterlimit:4;stroke-dasharray:none;stroke-dashoffset:0;stroke-opacity:1;paint-order:stroke fill markers"/> </g> </g> </svg>