<?xml version='1.0' encoding='utf-8'?>
<svg xmlns="http://www.w3.org/2000/svg" width="5000" height="5000" viewBox="0 0 1322.9166 1322.9167" version="1.1" id="svg8"> <defs id="defs2"/> <metadata id="metadata5"> </metadata> <g id="layer1" transform="translate(0,1025.9167)"> <g transform="matrix(31.182024,0,0,31.182024,2966.7587,-3789.3237)" id="g7281" style="stroke-width:0.03206976"> <path style="opacity:1;fill:#256ea5;fill-opacity:1;fill-rule:nonzero;stroke:none;stroke-width:0.01697025;stroke-linecap:round;stroke-linejoin:miter;stroke-miterlimit:4;stroke-dasharray:none;stroke-dashoffset:0;stroke-opacity:1;paint-order:stroke fill markers" d="m -73.930481,89.04607 a 20.788654,20.788654 0 0 0 -1.772301,0.0886 20.788654,20.788654 0 0 1 1.772301,-0.0886 z m 2.029801,0.10159 a 20.788654,20.788654 0 0 1 1.2627,0.18601 20.788654,20.788654 0 0 0 -1.2627,-0.18601 z m -4.829501,0.11172 a 20.788654,20.788654 0 0 0 -1.0313,0.15562 20.788654,20.788654 0 0 1 1.0313,-0.15562 z m 6.877,0.19304 a 20.788654,20.788654 0 0 1 1.387099,0.34866 20.788654,20.788654 0 0 0 -1.387099,-0.34866 z m -8.921102,0.19023 a 20.788654,20.788654 0 0 0 -1.004297,0.25636 20.788654,20.788654 0 0 1 1.004297,-0.25636 z m 10.931502,0.31743 a 20.788654,20.788654 0 0 1 1.4416,0.52032 20.788654,20.788654 0 0 0 -1.4416,-0.52032 z m -12.9227,0.26677 a 20.788654,20.788654 0 0 0 -0.975702,0.35598 20.788654,20.788654 0 0 1 0.975702,-0.35598 z m 14.8728,0.43899 a 20.788654,20.788654 0 0 1 1.518799,0.72688 20.788654,20.788654 0 0 0 -1.518799,-0.72688 z m -16.7934,0.33994 a 20.788654,20.788654 0 0 0 -0.938501,0.45363 20.788654,20.788654 0 0 1 0.938501,-0.45363 z m 18.6617,0.55578 a 20.788654,20.788654 0 0 1 1.5235,0.92611 20.788654,20.788654 0 0 0 -1.5235,-0.92611 z m -20.499001,0.41338 a 20.788654,20.788654 0 0 0 -0.886399,0.5434 20.788654,20.788654 0 0 1 0.886399,-0.5434 z m 22.271302,0.66553 a 20.788654,20.788654 0 0 1 1.488099,1.12225 20.788654,20.788654 0 0 0 -1.488099,-1.12225 z m -23.999402,0.4798 a 20.788654,20.788654 0 0 0 -0.831,0.63175 20.788654,20.788654 0 0 1 0.831,-0.63175 z m 25.6555,0.7702 a 20.788654,20.788654 0 0 1 1.5063,1.39324 20.788654,20.788654 0 0 0 -1.5063,-1.39324 z m -27.261798,0.54255 a 20.788654,20.788654 0 0 0 -0.7649,0.71281 20.788654,20.788654 0 0 1 0.7649,-0.71281 z m 28.781298,0.86307 -14.7363,14.73639 -14.644999,14.64491 a 20.788654,20.788654 0 0 0 14.5273,5.94583 20.788654,20.788654 0 0 0 20.788605,-20.78857 20.788654,20.788654 0 0 0 -5.934606,-14.53856 z m -29.381299,29.3813 a 20.788654,20.788654 0 0 1 -1.264,-1.35919 20.788654,20.788654 0 0 0 1.264,1.35919 z m -0.868101,-28.77683 a 20.788654,20.788654 0 0 0 -0.689401,0.78484 20.788654,20.788654 0 0 1 0.689401,-0.78484 z m -1.313601,1.60598 a 20.788654,20.788654 0 0 0 -0.608398,0.85069 20.788654,20.788654 0 0 1 0.608398,-0.85069 z m -1.148098,1.73093 a 20.788654,20.788654 0 0 0 -0.519501,0.90556 20.788654,20.788654 0 0 1 0.519501,-0.90556 z m -0.967801,1.83364 a 20.788654,20.788654 0 0 0 -0.428,0.9565 20.788654,20.788654 0 0 1 0.428,-0.9565 z m -0.779999,1.92087 a 20.788654,20.788654 0 0 0 -0.331301,0.99618 20.788654,20.788654 0 0 1 0.331301,-0.99618 z m -0.5856,1.99348 a 20.788654,20.788654 0 0 0 -0.229701,1.02207 20.788654,20.788654 0 0 1 0.229701,-1.02207 z m -0.3839,2.04301 a 20.788654,20.788654 0 0 0 -0.1255,1.03444 20.788654,20.788654 0 0 1 0.1255,-1.03444 z m -0.214101,2.80618 a 20.788654,20.788654 0 0 0 0.093,1.80606 20.788654,20.788654 0 0 1 -0.093,-1.80606 z m 0.198901,2.68095 a 20.788654,20.788654 0 0 0 0.185999,1.22018 20.788654,20.788654 0 0 1 -0.185999,-1.22018 z m 0.3512,1.95521 a 20.788654,20.788654 0 0 0 0.339399,1.32204 20.788654,20.788654 0 0 1 -0.339399,-1.32204 z m 0.535,1.91046 a 20.788654,20.788654 0 0 0 0.514401,1.40365 20.788654,20.788654 0 0 1 -0.514401,-1.40365 z m 0.7184,1.85925 a 20.788654,20.788654 0 0 0 0.703199,1.45093 20.788654,20.788654 0 0 1 -0.703199,-1.45093 z m 0.8954,1.7858 a 20.788654,20.788654 0 0 0 0.903899,1.47006 20.788654,20.788654 0 0 1 -0.903899,-1.47006 z m 1.063501,1.69322 a 20.788654,20.788654 0 0 0 1.110898,1.45768 20.788654,20.788654 0 0 1 -1.110898,-1.45768 z" id="path5274"/> <path style="opacity:1;fill:#3a8ecc;fill-opacity:1;fill-rule:nonzero;stroke:none;stroke-width:0.01697025;stroke-linecap:round;stroke-linejoin:miter;stroke-miterlimit:4;stroke-dasharray:none;stroke-dashoffset:0;stroke-opacity:1;paint-order:stroke fill markers" d="m -73.930381,89.04599 a 20.788654,20.788654 0 0 0 -20.788601,20.78858 20.788654,20.788654 0 0 0 6.261301,14.84274 l 14.644899,-14.64492 14.7364,-14.73637 a 20.788654,20.788654 0 0 0 -14.853999,-6.25003 z" id="path5276"/> <path id="path6339" d="m -70.772981,97.55143 a 4.9853427,4.9853427 0 0 0 -4.9857,4.98523 4.9853427,4.9853427 0 0 0 0,0.0579 3.0791822,3.0791822 0 0 0 -2.459299,-1.23094 3.0791822,3.0791822 0 0 0 -3.0788,3.0794 3.0791822,3.0791822 0 0 0 1.543499,2.66444 h -2.759501 c -0.5471,0 -0.987999,0.44038 -0.987999,0.98753 v 7.99538 c 0,0.27503 0.111699,0.52299 0.291899,0.70177 v 5.3e-4 l 1.3173,1.31671 12.096901,12.09745 a 20.788654,20.788654 0 0 0 16.407795,-17.33072 l -11.635495,-11.63598 h -5.29e-4 l -2.2717,-2.2717 -0.01,-0.008 a 4.9853427,4.9853427 0 0 0 0,-0.004 l -0.01201,-0.0124 -0.0011,5.3e-4 a 4.9853427,4.9853427 0 0 0 -3.455602,-1.39371 z" style="opacity:0.5;fill:#000000;stroke:none;stroke-width:0.00848512px;stroke-linecap:butt;stroke-linejoin:miter;stroke-opacity:1"/> <path id="rect6295" d="m -70.772981,97.55129 a 4.9853427,4.9853427 0 0 0 -4.9857,4.98562 4.9853427,4.9853427 0 0 0 0,0.0575 3.0791822,3.0791822 0 0 0 -2.459201,-1.23081 3.0791822,3.0791822 0 0 0 -3.078801,3.07925 3.0791822,3.0791822 0 0 0 1.543503,2.66454 h -2.759702 c -0.547198,0 -0.987798,0.44066 -0.987798,0.98781 v 7.99522 c 0,0.54715 0.4406,0.98781 0.987798,0.98781 h 0.3531 v 0.53136 c 0,0.1524 0.1226,0.27501 0.275,0.27501 h 12.426402 c 0.1524,0 0.275,-0.12261 0.275,-0.27501 v -0.53136 h 0.531 c 0.547198,0 0.987798,-0.44066 0.987798,-0.98781 v -1.96914 l 2.554801,1.49083 a 0.49576104,0.49576104 0 0 0 0.745601,-0.4285 v -2.98206 -2.98043 a 0.49576104,0.49576104 0 0 0 -0.509902,-0.49573 0.49576104,0.49576104 0 0 0 -0.235699,0.0672 l -2.554801,1.49083 v -2.18825 c 0,-0.54715 -0.4406,-0.9878 -0.987798,-0.9878 h -0.137702 a 4.9853427,4.9853427 0 0 0 3.000301,-4.57049 4.9853427,4.9853427 0 0 0 -4.9852,-4.98563 z m -4.397999,7.32575 a 4.9853427,4.9853427 0 0 0 2.423199,2.23037 h -3.933499 a 3.0791822,3.0791822 0 0 0 1.5103,-2.23037 z m -6.553401,3.22061 h 3.117699 c 0.1524,0 0.275,0.1226 0.275,0.27499 v 2.23644 c 0,0.15239 -0.1226,0.275 -0.275,0.275 h -3.117699 c -0.1524,0 -0.275,-0.12261 -0.275,-0.275 v -2.23644 c 0,-0.15239 0.1226,-0.27499 0.275,-0.27499 z m 0,6.45093 h 9.2374 c 0.1524,0 0.275,0.12301 0.275,0.2754 v 0.14621 c 0,0.15239 -0.1226,0.27499 -0.275,0.27499 h -9.2374 c -0.1524,0 -0.275,-0.1226 -0.275,-0.27499 v -0.14621 c 0,-0.15239 0.1226,-0.2754 0.275,-0.2754 z" style="opacity:1;fill:#ffffff;fill-opacity:1;fill-rule:nonzero;stroke:none;stroke-width:0.00849849;stroke-linecap:square;stroke-linejoin:miter;stroke-miterlimit:0;stroke-dasharray:none;stroke-dashoffset:0;stroke-opacity:1;paint-order:fill markers stroke"/> </g> </g> </svg>