<?xml version='1.0' encoding='utf-8'?>
<svg xmlns="http://www.w3.org/2000/svg" width="5000" height="5000" viewBox="0 0 1322.9166 1322.9167" version="1.1" id="svg8"> <defs id="defs2"/> <metadata id="metadata5"> </metadata> <g id="layer1" transform="translate(0,1025.9167)"> <g transform="matrix(31.182024,0,0,31.182024,2966.7587,-6756.4251)" id="g7050" style="stroke-width:0.03206976"> <path style="opacity:1;fill:#485a5e;fill-opacity:1;fill-rule:nonzero;stroke:none;stroke-width:0.01697025;stroke-linecap:round;stroke-linejoin:miter;stroke-miterlimit:4;stroke-dasharray:none;stroke-dashoffset:0;stroke-opacity:1;paint-order:stroke fill markers" d="m -73.930481,184.2003 a 20.788654,20.788654 0 0 0 -1.772301,0.0886 20.788654,20.788654 0 0 1 1.772301,-0.0886 z m 2.029801,0.10159 a 20.788654,20.788654 0 0 1 1.2627,0.18601 20.788654,20.788654 0 0 0 -1.2627,-0.18601 z m -4.829501,0.11172 a 20.788654,20.788654 0 0 0 -1.0313,0.15562 20.788654,20.788654 0 0 1 1.0313,-0.15562 z m 6.877,0.19304 a 20.788654,20.788654 0 0 1 1.387099,0.34866 20.788654,20.788654 0 0 0 -1.387099,-0.34866 z m -8.921102,0.19023 a 20.788654,20.788654 0 0 0 -1.004297,0.25636 20.788654,20.788654 0 0 1 1.004297,-0.25636 z m 10.931502,0.31743 a 20.788654,20.788654 0 0 1 1.4416,0.52032 20.788654,20.788654 0 0 0 -1.4416,-0.52032 z m -12.9227,0.26677 a 20.788654,20.788654 0 0 0 -0.975702,0.35598 20.788654,20.788654 0 0 1 0.975702,-0.35598 z m 14.8728,0.43899 a 20.788654,20.788654 0 0 1 1.518799,0.72688 20.788654,20.788654 0 0 0 -1.518799,-0.72688 z m -16.7934,0.33994 a 20.788654,20.788654 0 0 0 -0.938501,0.45363 20.788654,20.788654 0 0 1 0.938501,-0.45363 z m 18.6617,0.55578 a 20.788654,20.788654 0 0 1 1.5235,0.92611 20.788654,20.788654 0 0 0 -1.5235,-0.92611 z m -20.499001,0.41338 a 20.788654,20.788654 0 0 0 -0.886399,0.5434 20.788654,20.788654 0 0 1 0.886399,-0.5434 z m 22.271302,0.66553 a 20.788654,20.788654 0 0 1 1.488099,1.12225 20.788654,20.788654 0 0 0 -1.488099,-1.12225 z m -23.999402,0.4798 a 20.788654,20.788654 0 0 0 -0.831,0.63175 20.788654,20.788654 0 0 1 0.831,-0.63175 z m 25.6555,0.7702 a 20.788654,20.788654 0 0 1 1.5063,1.39324 20.788654,20.788654 0 0 0 -1.5063,-1.39324 z m -27.261798,0.54255 a 20.788654,20.788654 0 0 0 -0.7649,0.71281 20.788654,20.788654 0 0 1 0.7649,-0.71281 z m 28.781298,0.86307 -14.7363,14.73639 -14.644999,14.64491 a 20.788654,20.788654 0 0 0 14.5273,5.94583 20.788654,20.788654 0 0 0 20.788605,-20.78857 20.788654,20.788654 0 0 0 -5.934606,-14.53856 z m -29.381299,29.3813 a 20.788654,20.788654 0 0 1 -1.264,-1.35919 20.788654,20.788654 0 0 0 1.264,1.35919 z m -0.868101,-28.77683 a 20.788654,20.788654 0 0 0 -0.689401,0.78484 20.788654,20.788654 0 0 1 0.689401,-0.78484 z m -1.313601,1.60598 a 20.788654,20.788654 0 0 0 -0.608398,0.85069 20.788654,20.788654 0 0 1 0.608398,-0.85069 z m -1.148098,1.73093 a 20.788654,20.788654 0 0 0 -0.519501,0.90556 20.788654,20.788654 0 0 1 0.519501,-0.90556 z m -0.967801,1.83364 a 20.788654,20.788654 0 0 0 -0.428,0.9565 20.788654,20.788654 0 0 1 0.428,-0.9565 z m -0.779999,1.92087 a 20.788654,20.788654 0 0 0 -0.331301,0.99618 20.788654,20.788654 0 0 1 0.331301,-0.99618 z m -0.5856,1.99348 a 20.788654,20.788654 0 0 0 -0.229701,1.02207 20.788654,20.788654 0 0 1 0.229701,-1.02207 z m -0.3839,2.04301 a 20.788654,20.788654 0 0 0 -0.1255,1.03444 20.788654,20.788654 0 0 1 0.1255,-1.03444 z m -0.214101,2.80618 a 20.788654,20.788654 0 0 0 0.093,1.80606 20.788654,20.788654 0 0 1 -0.093,-1.80606 z m 0.198901,2.68095 a 20.788654,20.788654 0 0 0 0.185999,1.22018 20.788654,20.788654 0 0 1 -0.185999,-1.22018 z m 0.3512,1.95521 a 20.788654,20.788654 0 0 0 0.339399,1.32204 20.788654,20.788654 0 0 1 -0.339399,-1.32204 z m 0.535,1.91046 a 20.788654,20.788654 0 0 0 0.514401,1.40365 20.788654,20.788654 0 0 1 -0.514401,-1.40365 z m 0.7184,1.85925 a 20.788654,20.788654 0 0 0 0.703199,1.45093 20.788654,20.788654 0 0 1 -0.703199,-1.45093 z m 0.8954,1.7858 a 20.788654,20.788654 0 0 0 0.903899,1.47006 20.788654,20.788654 0 0 1 -0.903899,-1.47006 z m 1.063501,1.69322 a 20.788654,20.788654 0 0 0 1.110898,1.45768 20.788654,20.788654 0 0 1 -1.110898,-1.45768 z" id="path8678"/> <path style="opacity:1;fill:#6f8a91;fill-opacity:1;fill-rule:nonzero;stroke:none;stroke-width:0.01697025;stroke-linecap:round;stroke-linejoin:miter;stroke-miterlimit:4;stroke-dasharray:none;stroke-dashoffset:0;stroke-opacity:1;paint-order:stroke fill markers" d="m -73.930381,184.20022 a 20.788654,20.788654 0 0 0 -20.788601,20.78858 20.788654,20.788654 0 0 0 6.261301,14.84274 l 14.644899,-14.64492 14.7364,-14.73637 a 20.788654,20.788654 0 0 0 -14.853999,-6.25003 z" id="path8680"/> <path id="path8774" d="m -72.838983,193.62191 c -2.058799,0 -3.964598,0.39274 -5.717497,1.17822 -1.752801,0.77722 -3.249401,1.89756 -4.489601,3.36104 -1.8108,2.14973 -2.716101,4.70048 -2.716101,7.65224 0,2.89668 0.937299,5.27887 2.8117,7.14686 v 5.3e-4 c 0,0.003 0.01,0.006 0.01,0.008 l 0.673399,0.67335 11.818901,11.81891 a 20.788654,20.788654 0 0 0 17.090406,-17.63923 l -11.053607,-11.05359 -0.01,-0.001 c -0.1588,-0.16239 -0.326602,-0.31995 -0.500801,-0.47387 v -5.3e-4 c -0.1456,-0.12868 -0.295399,-0.25481 -0.453199,-0.37672 -1.992601,-1.52962 -4.481401,-2.29443 -7.4662,-2.29443 z" style="opacity:0.5;fill:#000000;stroke:none;stroke-width:0.00848512px;stroke-linecap:butt;stroke-linejoin:miter;stroke-opacity:1"/> <path d="m -62.098582,202.78742 c 0,1.4304 -0.277,2.73265 -0.830998,3.90674 -0.554001,1.16582 -1.368401,2.16627 -2.4433,3.00136 -1.198801,0.93431 -2.554801,1.40147 -4.0679,1.40147 -0.926103,0 -1.620602,-0.15296 -2.083602,-0.45889 -0.462999,-0.30592 -0.7318,-0.78961 -0.806198,-1.45107 -0.504302,0.68626 -1.029402,1.17409 -1.575102,1.46348 -0.545701,0.28111 -1.215401,0.42167 -2.009198,0.42167 -2.844202,0 -4.266401,-1.44694 -4.266401,-4.34082 0,-1.93476 0.541599,-3.58014 1.624801,-4.93613 1.165799,-1.47175 2.691299,-2.20762 4.5764,-2.20762 1.2651,0 2.178698,0.45889 2.740898,1.37666 l 0.6077,-1.01699 h 3.001402 l -1.9348,7.76387 c -0.025,0.11575 -0.041,0.1943 -0.05,0.23564 v 0.14883 c 0,0.40515 0.1944,0.60772 0.582999,0.60772 1.2485,0 2.282002,-0.69453 3.100501,-2.0836 0.6946,-1.18235 1.041799,-2.44326 1.041799,-3.78271 0,-2.11667 -0.810199,-3.76618 -2.430798,-4.94854 -1.447001,-1.05006 -3.270102,-1.57509 -5.469501,-1.57509 -2.3895,0 -4.419301,0.58291 -6.089499,1.74873 -2.662402,1.86035 -3.993603,4.41936 -3.993603,7.67705 0,2.43913 0.822701,4.37803 2.468102,5.8167 1.645399,1.43867 3.8613,2.158 6.647699,2.158 2.678901,0 5.1015,-0.77308 7.267702,-2.31923 1.153798,-0.8386 2.975999,0.80391 1.4263,1.98437 -2.662402,1.98437 -5.651302,2.97656 -8.966901,2.97656 -1.5792,0 -3.042701,-0.22324 -4.390401,-0.66972 -1.372499,-0.43822 -2.592099,-1.08728 -3.6587,-1.94717 -2.455699,-1.96784 -3.6835,-4.60954 -3.6835,-7.9251 0,-2.95176 0.905401,-5.50251 2.716101,-7.65224 1.2402,-1.46348 2.7368,-2.58383 4.489699,-3.36104 1.752801,-0.78548 3.6586,-1.17822 5.717402,-1.17822 2.9849,0 5.473599,0.76481 7.466198,2.29443 2.1829,1.68672 3.2743,3.97702 3.2743,6.8709 z m -9.9715,0.94258 c -0.058,-0.54571 -0.2398,-0.97566 -0.545698,-1.28985 -0.297701,-0.32246 -0.669801,-0.48369 -1.1162,-0.48369 -0.950902,0 -1.711601,0.59945 -2.2821,1.79834 -0.4547,0.96739 -0.682102,1.98438 -0.682102,3.05098 0,1.2485 0.483701,1.87275 1.4511,1.87275 0.6532,0 1.2237,-0.26458 1.711499,-0.79375 0.413401,-0.46302 0.702802,-1.04593 0.868201,-1.74873 z" style="font-style:normal;font-variant:normal;font-weight:normal;font-stretch:normal;font-size:25.39999962px;line-height:1.25;font-family:'GrilledCheese BTN Wide Blk';-inkscape-font-specification:'GrilledCheese BTN Wide Blk, Normal';font-variant-ligatures:normal;font-variant-caps:normal;font-variant-numeric:normal;font-feature-settings:normal;text-align:start;letter-spacing:0px;word-spacing:0px;writing-mode:lr-tb;text-anchor:start;fill:#ffffff;fill-opacity:1;stroke:none;stroke-width:0.00848513" id="path8767"/> </g> </g> </svg>