<?xml version='1.0' encoding='utf-8'?>
<svg xmlns="http://www.w3.org/2000/svg" width="5000" height="5000" viewBox="0 0 1322.9166 1322.9167" version="1.1" id="svg8"> <defs id="defs2"/> <metadata id="metadata5"> </metadata> <g id="layer1" transform="translate(0,1025.9167)"> <g transform="matrix(31.182006,0,0,31.182006,-12.599946,-5272.8717)" id="g7116" style="stroke-width:0.03206978"> <path id="path8327" d="m 21.616914,136.62319 a 20.788654,20.788654 0 0 0 -1.7723,0.0886 20.788654,20.788654 0 0 1 1.7723,-0.0886 z m 2.02978,0.10159 a 20.788654,20.788654 0 0 1 1.26265,0.18601 20.788654,20.788654 0 0 0 -1.26265,-0.18601 z m -4.8295,0.11172 a 20.788654,20.788654 0 0 0 -1.03136,0.15562 20.788654,20.788654 0 0 1 1.03136,-0.15562 z m 6.877,0.19304 a 20.788654,20.788654 0 0 1 1.38706,0.34866 20.788654,20.788654 0 0 0 -1.38706,-0.34866 z m -8.92114,0.19023 a 20.788654,20.788654 0 0 0 -1.00434,0.25636 20.788654,20.788654 0 0 1 1.00434,-0.25636 z m 10.9315,0.31743 a 20.788654,20.788654 0 0 1 1.44165,0.52032 20.788654,20.788654 0 0 0 -1.44165,-0.52032 z m -12.92273,0.26677 a 20.788654,20.788654 0 0 0 -0.97563,0.35598 20.788654,20.788654 0 0 1 0.97563,-0.35598 z m 14.87288,0.43899 a 20.788654,20.788654 0 0 1 1.51874,0.72688 20.788654,20.788654 0 0 0 -1.51874,-0.72688 z m -16.79348,0.33994 a 20.788654,20.788654 0 0 0 -0.93848,0.45363 20.788654,20.788654 0 0 1 0.93848,-0.45363 z m 18.66173,0.55578 a 20.788654,20.788654 0 0 1 1.52352,0.92611 20.788654,20.788654 0 0 0 -1.52352,-0.92611 z m -20.49901,0.41338 a 20.788654,20.788654 0 0 0 -0.88642,0.5434 20.788654,20.788654 0 0 1 0.88642,-0.5434 z m 22.27131,0.66553 a 20.788654,20.788654 0 0 1 1.48807,1.12225 20.788654,20.788654 0 0 0 -1.48807,-1.12225 z m -23.9994202,0.4798 a 20.788654,20.788654 0 0 0 -0.83099,0.63175 20.788654,20.788654 0 0 1 0.83099,-0.63175 z m 25.6554902,0.7702 a 20.788654,20.788654 0 0 1 1.50637,1.39324 20.788654,20.788654 0 0 0 -1.50637,-1.39324 z m -27.2617702,0.54255 a 20.788654,20.788654 0 0 0 -0.76486,0.71281 20.788654,20.788654 0 0 1 0.76486,-0.71281 z m 28.7813602,0.86307 -14.73638,14.73639 -14.6449202,14.64491 a 20.788654,20.788654 0 0 0 14.5273002,5.94583 20.788654,20.788654 0 0 0 20.78855,-20.78857 20.788654,20.788654 0 0 0 -5.93455,-14.53856 z m -29.3813002,29.3813 a 20.788654,20.788654 0 0 1 -1.26408,-1.35919 20.788654,20.788654 0 0 0 1.26408,1.35919 z m -0.86813,-28.77683 a 20.788654,20.788654 0 0 0 -0.68945,0.78484 20.788654,20.788654 0 0 1 0.68945,-0.78484 z m -1.31361,1.60598 a 20.788654,20.788654 0 0 0 -0.6084,0.85069 20.788654,20.788654 0 0 1 0.6084,-0.85069 z m -1.14815,1.73093 a 20.788654,20.788654 0 0 0 -0.51947,0.90556 20.788654,20.788654 0 0 1 0.51947,-0.90556 z m -0.96774,1.83364 a 20.788654,20.788654 0 0 0 -0.42803,0.9565 20.788654,20.788654 0 0 1 0.42803,-0.9565 z m -0.78006,1.92087 a 20.788654,20.788654 0 0 0 -0.33123,0.99618 20.788654,20.788654 0 0 1 0.33123,-0.99618 z m -0.5856,1.99348 a 20.788654,20.788654 0 0 0 -0.22964,1.02207 20.788654,20.788654 0 0 1 0.22964,-1.02207 z m -0.38383,2.04301 a 20.788654,20.788654 0 0 0 -0.12551001,1.03444 20.788654,20.788654 0 0 1 0.12551001,-1.03444 z m -0.21416001,2.80618 a 20.788654,20.788654 0 0 0 0.0929,1.80606 20.788654,20.788654 0 0 1 -0.0929,-1.80606 z m 0.19894001,2.68095 a 20.788654,20.788654 0 0 0 0.18601,1.22018 20.788654,20.788654 0 0 1 -0.18601,-1.22018 z m 0.3512,1.95521 a 20.788654,20.788654 0 0 0 0.33936,1.32204 20.788654,20.788654 0 0 1 -0.33936,-1.32204 z m 0.53497,1.91046 a 20.788654,20.788654 0 0 0 0.5144,1.40365 20.788654,20.788654 0 0 1 -0.5144,-1.40365 z m 0.71842,1.85925 a 20.788654,20.788654 0 0 0 0.70323,1.45093 20.788654,20.788654 0 0 1 -0.70323,-1.45093 z m 0.89543,1.7858 a 20.788654,20.788654 0 0 0 0.90388,1.47006 20.788654,20.788654 0 0 1 -0.90388,-1.47006 z m 1.06342,1.69322 a 20.788654,20.788654 0 0 0 1.111,1.45768 20.788654,20.788654 0 0 1 -1.111,-1.45768 z" style="opacity:1;fill:#00b2b2;fill-opacity:1;fill-rule:nonzero;stroke:none;stroke-width:0.01697026;stroke-linecap:round;stroke-linejoin:miter;stroke-miterlimit:4;stroke-dasharray:none;stroke-dashoffset:0;stroke-opacity:1;paint-order:stroke fill markers"/> <path id="path8329" d="M 21.616984,136.62311 A 20.788654,20.788654 0 0 0 0.82841379,157.41169 20.788654,20.788654 0 0 0 7.0896938,172.25443 l 14.6449202,-14.64492 14.73637,-14.73637 a 20.788654,20.788654 0 0 0 -14.854,-6.25003 z" style="opacity:1;fill:#00e5e5;fill-opacity:1;fill-rule:nonzero;stroke:none;stroke-width:0.01697026;stroke-linecap:round;stroke-linejoin:miter;stroke-miterlimit:4;stroke-dasharray:none;stroke-dashoffset:0;stroke-opacity:1;paint-order:stroke fill markers"/> <path id="path8662" d="m 18.967654,145.193 a 2.2190957,2.2190957 0 0 0 -1.94149,1.2697 2.2190957,2.2190957 0 0 0 0.3979,2.47375 l -0.002,0.002 2.44533,2.44533 0.61082,1.70791 c -7.9e-4,0.0107 0.0109,0.0169 0.0139,0.0279 a 3.8628706,3.8628706 0 0 0 -0.41082,0.28577 3.8628706,3.8628706 0 0 0 -1.32137,2.09135 c -0.0241,-0.008 -0.0447,-0.0197 -0.0713,-0.0227 l -5.71541,-0.60462 -1.32343,-1.32343 -0.002,0.002 a 2.2190957,2.2190957 0 0 0 -2.9553702,-0.1509 2.2190957,2.2190957 0 0 0 -0.33021,3.12126 l 0.009,0.009 a 2.2190957,2.2190957 0 0 0 0.29766,0.29817 l 6.9189602,6.93033 1.25832,1.26039 a 2.2190957,2.2190957 0 0 0 0.11007,1.47795 2.2190957,2.2190957 0 0 0 0.31316,0.51004 2.2190957,2.2190957 0 0 0 0.14779,0.1633 2.2190957,2.2190957 0 0 0 0.001,0.001 l 10.15184,10.15183 a 20.788654,20.788654 0 0 0 14.62236,-17.11472 l -9.57763,-9.57784 -5.3e-4,5.3e-4 a 2.2190957,2.2190957 0 0 0 -0.94309,-0.57567 2.2190957,2.2190957 0 0 0 -0.65629,-0.0961 2.2190957,2.2190957 0 0 0 -2.11305,1.57096 2.2190957,2.2190957 0 0 0 -0.031,1.17047 l -0.92294,0.49196 -0.8971,-0.8971 -6.40943,-6.40891 -0.002,0.002 a 2.2190957,2.2190957 0 0 0 -0.66042,-0.48058 2.2190957,2.2190957 0 0 0 -1.01234,-0.21189 z" style="opacity:0.5;fill:#000000;stroke:none;stroke-width:0.00848513px;stroke-linecap:butt;stroke-linejoin:miter;stroke-opacity:1"/> <path id="path8521" d="m 8.3627338,156.51801 a 2.2190958,2.2190958 0 0 1 0.33002,-3.12115 2.2190958,2.2190958 0 0 1 3.1211502,0.33002 2.2190958,2.2190958 0 0 1 0.4665,1.06862 l 6.40892,0.67807 c 0.0266,0.003 0.0472,0.0149 0.0713,0.0225 a 3.8628706,3.8628706 0 0 1 1.32109,-2.09111 3.8628706,3.8628706 0 0 1 0.4107,-0.2856 c -0.003,-0.011 -0.0146,-0.0174 -0.0137,-0.0281 l -1.24237,-3.47312 a 2.2190958,2.2190958 0 0 1 -1.15368,-0.20166 2.2190958,2.2190958 0 0 1 -1.05666,-2.95391 2.2190958,2.2190958 0 0 1 2.95408,-1.05794 2.2190958,2.2190958 0 0 1 1.05778,2.9553 2.2190958,2.2190958 0 0 1 -0.79227,0.90793 l 1.22468,3.42121 a 3.8628706,3.8628706 0 0 1 4.04744,1.28988 3.8628706,3.8628706 0 0 1 0.25977,0.36745 l 3.09409,-1.64827 a 2.2190958,2.2190958 0 0 1 0.0311,-1.17048 2.2190958,2.2190958 0 0 1 2.76916,-1.475 2.2190958,2.2190958 0 0 1 1.4757,2.76864 2.2190958,2.2190958 0 0 1 -2.76933,1.47622 2.2190958,2.2190958 0 0 1 -1.01315,-0.65195 l -3.14586,1.67584 a 3.8628706,3.8628706 0 0 1 -0.75231,3.5742 l 0.87651,0.94466 a 2.2190958,2.2190958 0 0 1 1.13996,-0.26919 2.2190958,2.2190958 0 0 1 2.1342,2.29907 2.2190958,2.2190958 0 0 1 -2.29918,2.13543 2.2190958,2.2190958 0 0 1 -2.13479,-2.29972 2.2190958,2.2190958 0 0 1 0.37029,-1.14677 l -0.88201,-0.9502 a 3.8628706,3.8628706 0 0 1 -3.02875,0.55716 c -5.3e-4,0.0625 -0.009,0.12643 -0.0328,0.18903 l -1.33367,3.44 a 2.2190958,2.2190958 0 0 1 0.73968,0.90735 2.2190958,2.2190958 0 0 1 -1.1339,2.92503 2.2190958,2.2190958 0 0 1 -2.61257,-0.62319 2.2190958,2.2190958 0 0 1 -0.31294,-0.51016 2.2190958,2.2190958 0 0 1 1.13465,-2.92675 2.2190958,2.2190958 0 0 1 1.19275,-0.16801 l 1.32946,-3.4289 c 0.0213,-0.0584 0.0579,-0.10649 0.0969,-0.15103 a 3.8628706,3.8628706 0 0 1 -1.19991,-0.98248 3.8628706,3.8628706 0 0 1 -0.85314,-2.30893 c -0.027,-2.6e-4 -0.0495,0.0118 -0.0784,0.009 l -6.39873,-0.67609 a 2.2190958,2.2190958 0 0 1 -0.69447,0.98796 2.2190958,2.2190958 0 0 1 -3.1206102,-0.32947 z" style="opacity:1;fill:#ffffff;fill-opacity:1;fill-rule:nonzero;stroke:none;stroke-width:0.00093002;stroke-linecap:round;stroke-linejoin:round;stroke-miterlimit:4;stroke-dasharray:none;stroke-dashoffset:0;stroke-opacity:1;paint-order:markers stroke fill"/> </g> </g> </svg>